<mxfile host="app.diagrams.net" agent="Mozilla/5.0 (Windows NT 10.0; Win64; x64) AppleWebKit/537.36 (KHTML, like Gecko) Chrome/131.0.0.0 Safari/537.36 Edg/131.0.0.0" version="26.0.5">
  <diagram name="Página-1" id="Fe35ihLNycX_VQl5yag2">
    <mxGraphModel dx="4753" dy="2777" grid="1" gridSize="10" guides="1" tooltips="1" connect="1" arrows="1" fold="1" page="1" pageScale="1" pageWidth="827" pageHeight="1169" math="0" shadow="0">
      <root>
        <mxCell id="0" />
        <mxCell id="1" parent="0" />
        <mxCell id="NwMDnGha9xEeuAbCb21C-125" value="&lt;span data-teams=&quot;true&quot;&gt;&lt;span style=&quot;font-family: -apple-system, BlinkMacSystemFont, &amp;quot;Segoe UI&amp;quot;, system-ui, &amp;quot;Apple Color Emoji&amp;quot;, &amp;quot;Segoe UI Emoji&amp;quot;, &amp;quot;Segoe UI Web&amp;quot;, sans-serif; white-space-collapse: preserve;&quot;&gt;&lt;p&gt;&lt;strong style=&quot;font-family: Helvetica; white-space-collapse: collapse;&quot;&gt;Exercício 4.&lt;/strong&gt;&lt;span style=&quot;font-family: Helvetica; white-space-collapse: collapse;&quot;&gt; Uma discográfica deseja registar os vários álbuns produzidos numa base de dados. Cada álbum pode ter várias músicas. Quer-se guardar nos álbuns o nome e o ano de lançamento. Cada música pode ter vários artistas. E quer-se guardar nas músicas o nome, a data de lançamento e o estilo musical. Um artista por sua vez, pode atuar em várias músicas. Para os artistas quer-se armazenar o nome, data de nascimento e o NIF.&lt;/span&gt;&amp;nbsp;&lt;/p&gt;&lt;/span&gt;&lt;/span&gt;" style="text;strokeColor=none;fillColor=none;spacingLeft=4;spacingRight=4;overflow=hidden;rotatable=0;points=[[0,0.5],[1,0.5]];portConstraint=eastwest;fontSize=14;whiteSpace=wrap;html=1;fontFamily=Helvetica;fontColor=default;labelBackgroundColor=default;" parent="1" vertex="1">
          <mxGeometry x="40" width="600" height="120" as="geometry" />
        </mxCell>
        <mxCell id="jHHYnB5XeiIA4RbSCAga-26" style="edgeStyle=orthogonalEdgeStyle;shape=connector;rounded=0;orthogonalLoop=1;jettySize=auto;html=1;strokeColor=default;align=center;verticalAlign=middle;fontFamily=Helvetica;fontSize=11;fontColor=default;labelBackgroundColor=default;endArrow=none;endFill=0;startArrow=ERone;startFill=0;" parent="1" source="jHHYnB5XeiIA4RbSCAga-1" target="jHHYnB5XeiIA4RbSCAga-24" edge="1">
          <mxGeometry relative="1" as="geometry" />
        </mxCell>
        <mxCell id="jHHYnB5XeiIA4RbSCAga-28" style="edgeStyle=orthogonalEdgeStyle;shape=connector;rounded=0;orthogonalLoop=1;jettySize=auto;html=1;strokeColor=default;align=center;verticalAlign=middle;fontFamily=Helvetica;fontSize=11;fontColor=default;labelBackgroundColor=default;endArrow=none;endFill=0;startArrow=ERmany;startFill=0;" parent="1" source="jHHYnB5XeiIA4RbSCAga-1" target="jHHYnB5XeiIA4RbSCAga-25" edge="1">
          <mxGeometry relative="1" as="geometry" />
        </mxCell>
        <mxCell id="jHHYnB5XeiIA4RbSCAga-1" value="Álbum&amp;nbsp;" style="whiteSpace=wrap;html=1;align=center;" parent="1" vertex="1">
          <mxGeometry x="364" y="260" width="120" height="40" as="geometry" />
        </mxCell>
        <mxCell id="jHHYnB5XeiIA4RbSCAga-31" style="edgeStyle=orthogonalEdgeStyle;shape=connector;rounded=0;orthogonalLoop=1;jettySize=auto;html=1;strokeColor=default;align=center;verticalAlign=middle;fontFamily=Helvetica;fontSize=11;fontColor=default;labelBackgroundColor=default;endArrow=none;endFill=0;startArrow=ERmany;startFill=0;" parent="1" source="jHHYnB5XeiIA4RbSCAga-2" target="jHHYnB5XeiIA4RbSCAga-30" edge="1">
          <mxGeometry relative="1" as="geometry" />
        </mxCell>
        <mxCell id="jHHYnB5XeiIA4RbSCAga-2" value="Música" style="whiteSpace=wrap;html=1;align=center;" parent="1" vertex="1">
          <mxGeometry x="114" y="370" width="120" height="40" as="geometry" />
        </mxCell>
        <mxCell id="jHHYnB5XeiIA4RbSCAga-3" value="Artista" style="whiteSpace=wrap;html=1;align=center;" parent="1" vertex="1">
          <mxGeometry x="594" y="370" width="120" height="40" as="geometry" />
        </mxCell>
        <mxCell id="jHHYnB5XeiIA4RbSCAga-13" style="rounded=0;orthogonalLoop=1;jettySize=auto;html=1;strokeColor=default;endArrow=none;endFill=0;" parent="1" source="jHHYnB5XeiIA4RbSCAga-4" target="jHHYnB5XeiIA4RbSCAga-1" edge="1">
          <mxGeometry relative="1" as="geometry" />
        </mxCell>
        <mxCell id="jHHYnB5XeiIA4RbSCAga-4" value="Nome" style="ellipse;whiteSpace=wrap;html=1;align=center;" parent="1" vertex="1">
          <mxGeometry x="284" y="200" width="80" height="40" as="geometry" />
        </mxCell>
        <mxCell id="jHHYnB5XeiIA4RbSCAga-14" style="rounded=0;orthogonalLoop=1;jettySize=auto;html=1;strokeColor=default;endArrow=none;endFill=0;" parent="1" source="jHHYnB5XeiIA4RbSCAga-5" target="jHHYnB5XeiIA4RbSCAga-1" edge="1">
          <mxGeometry relative="1" as="geometry" />
        </mxCell>
        <mxCell id="jHHYnB5XeiIA4RbSCAga-5" value="Ano&lt;div&gt;Lançamento&lt;/div&gt;" style="ellipse;whiteSpace=wrap;html=1;align=center;" parent="1" vertex="1">
          <mxGeometry x="364" y="160" width="120" height="40" as="geometry" />
        </mxCell>
        <mxCell id="jHHYnB5XeiIA4RbSCAga-15" style="rounded=0;orthogonalLoop=1;jettySize=auto;html=1;strokeColor=default;endArrow=none;endFill=0;" parent="1" source="jHHYnB5XeiIA4RbSCAga-6" target="jHHYnB5XeiIA4RbSCAga-1" edge="1">
          <mxGeometry relative="1" as="geometry" />
        </mxCell>
        <mxCell id="jHHYnB5XeiIA4RbSCAga-6" value="Estilo" style="ellipse;whiteSpace=wrap;html=1;align=center;" parent="1" vertex="1">
          <mxGeometry x="484" y="200" width="80" height="40" as="geometry" />
        </mxCell>
        <mxCell id="jHHYnB5XeiIA4RbSCAga-16" style="edgeStyle=none;shape=connector;rounded=0;orthogonalLoop=1;jettySize=auto;html=1;strokeColor=default;align=center;verticalAlign=middle;fontFamily=Helvetica;fontSize=11;fontColor=default;labelBackgroundColor=default;endArrow=none;endFill=0;" parent="1" source="jHHYnB5XeiIA4RbSCAga-7" target="jHHYnB5XeiIA4RbSCAga-2" edge="1">
          <mxGeometry relative="1" as="geometry" />
        </mxCell>
        <mxCell id="jHHYnB5XeiIA4RbSCAga-7" value="Nome" style="ellipse;whiteSpace=wrap;html=1;align=center;" parent="1" vertex="1">
          <mxGeometry x="34" y="430" width="80" height="40" as="geometry" />
        </mxCell>
        <mxCell id="jHHYnB5XeiIA4RbSCAga-17" style="edgeStyle=none;shape=connector;rounded=0;orthogonalLoop=1;jettySize=auto;html=1;strokeColor=default;align=center;verticalAlign=middle;fontFamily=Helvetica;fontSize=11;fontColor=default;labelBackgroundColor=default;endArrow=none;endFill=0;" parent="1" source="jHHYnB5XeiIA4RbSCAga-8" target="jHHYnB5XeiIA4RbSCAga-2" edge="1">
          <mxGeometry relative="1" as="geometry" />
        </mxCell>
        <mxCell id="jHHYnB5XeiIA4RbSCAga-8" value="Ano&lt;div&gt;Lançamento&lt;/div&gt;" style="ellipse;whiteSpace=wrap;html=1;align=center;" parent="1" vertex="1">
          <mxGeometry x="114" y="480" width="120" height="40" as="geometry" />
        </mxCell>
        <mxCell id="jHHYnB5XeiIA4RbSCAga-18" style="edgeStyle=none;shape=connector;rounded=0;orthogonalLoop=1;jettySize=auto;html=1;strokeColor=default;align=center;verticalAlign=middle;fontFamily=Helvetica;fontSize=11;fontColor=default;labelBackgroundColor=default;endArrow=none;endFill=0;" parent="1" source="jHHYnB5XeiIA4RbSCAga-9" target="jHHYnB5XeiIA4RbSCAga-2" edge="1">
          <mxGeometry relative="1" as="geometry" />
        </mxCell>
        <mxCell id="jHHYnB5XeiIA4RbSCAga-9" value="Estilo" style="ellipse;whiteSpace=wrap;html=1;align=center;" parent="1" vertex="1">
          <mxGeometry x="234" y="430" width="80" height="40" as="geometry" />
        </mxCell>
        <mxCell id="jHHYnB5XeiIA4RbSCAga-19" style="edgeStyle=none;shape=connector;rounded=0;orthogonalLoop=1;jettySize=auto;html=1;strokeColor=default;align=center;verticalAlign=middle;fontFamily=Helvetica;fontSize=11;fontColor=default;labelBackgroundColor=default;endArrow=none;endFill=0;" parent="1" source="jHHYnB5XeiIA4RbSCAga-10" target="jHHYnB5XeiIA4RbSCAga-3" edge="1">
          <mxGeometry relative="1" as="geometry" />
        </mxCell>
        <mxCell id="jHHYnB5XeiIA4RbSCAga-10" value="Nome" style="ellipse;whiteSpace=wrap;html=1;align=center;" parent="1" vertex="1">
          <mxGeometry x="514" y="430" width="80" height="40" as="geometry" />
        </mxCell>
        <mxCell id="jHHYnB5XeiIA4RbSCAga-21" style="edgeStyle=none;shape=connector;rounded=0;orthogonalLoop=1;jettySize=auto;html=1;strokeColor=default;align=center;verticalAlign=middle;fontFamily=Helvetica;fontSize=11;fontColor=default;labelBackgroundColor=default;endArrow=none;endFill=0;" parent="1" source="jHHYnB5XeiIA4RbSCAga-11" target="jHHYnB5XeiIA4RbSCAga-3" edge="1">
          <mxGeometry relative="1" as="geometry" />
        </mxCell>
        <mxCell id="jHHYnB5XeiIA4RbSCAga-11" value="NIF" style="ellipse;whiteSpace=wrap;html=1;align=center;" parent="1" vertex="1">
          <mxGeometry x="714" y="430" width="80" height="40" as="geometry" />
        </mxCell>
        <mxCell id="jHHYnB5XeiIA4RbSCAga-20" style="edgeStyle=none;shape=connector;rounded=0;orthogonalLoop=1;jettySize=auto;html=1;strokeColor=default;align=center;verticalAlign=middle;fontFamily=Helvetica;fontSize=11;fontColor=default;labelBackgroundColor=default;endArrow=none;endFill=0;" parent="1" source="jHHYnB5XeiIA4RbSCAga-12" target="jHHYnB5XeiIA4RbSCAga-3" edge="1">
          <mxGeometry relative="1" as="geometry" />
        </mxCell>
        <mxCell id="jHHYnB5XeiIA4RbSCAga-12" value="Data&lt;div&gt;Nascimento&lt;/div&gt;" style="ellipse;whiteSpace=wrap;html=1;align=center;" parent="1" vertex="1">
          <mxGeometry x="594" y="480" width="120" height="40" as="geometry" />
        </mxCell>
        <mxCell id="jHHYnB5XeiIA4RbSCAga-27" style="edgeStyle=orthogonalEdgeStyle;shape=connector;rounded=0;orthogonalLoop=1;jettySize=auto;html=1;strokeColor=default;align=center;verticalAlign=middle;fontFamily=Helvetica;fontSize=11;fontColor=default;labelBackgroundColor=default;endArrow=ERmany;endFill=0;" parent="1" source="jHHYnB5XeiIA4RbSCAga-24" target="jHHYnB5XeiIA4RbSCAga-2" edge="1">
          <mxGeometry relative="1" as="geometry" />
        </mxCell>
        <mxCell id="jHHYnB5XeiIA4RbSCAga-24" value="Contém" style="shape=rhombus;perimeter=rhombusPerimeter;whiteSpace=wrap;html=1;align=center;fontFamily=Helvetica;fontSize=11;fontColor=default;labelBackgroundColor=default;" parent="1" vertex="1">
          <mxGeometry x="114" y="250" width="120" height="60" as="geometry" />
        </mxCell>
        <mxCell id="jHHYnB5XeiIA4RbSCAga-29" style="edgeStyle=orthogonalEdgeStyle;shape=connector;rounded=0;orthogonalLoop=1;jettySize=auto;html=1;strokeColor=default;align=center;verticalAlign=middle;fontFamily=Helvetica;fontSize=11;fontColor=default;labelBackgroundColor=default;endArrow=ERmany;endFill=0;" parent="1" source="jHHYnB5XeiIA4RbSCAga-25" target="jHHYnB5XeiIA4RbSCAga-3" edge="1">
          <mxGeometry relative="1" as="geometry" />
        </mxCell>
        <mxCell id="jHHYnB5XeiIA4RbSCAga-25" value="Tem" style="shape=rhombus;perimeter=rhombusPerimeter;whiteSpace=wrap;html=1;align=center;fontFamily=Helvetica;fontSize=11;fontColor=default;labelBackgroundColor=default;" parent="1" vertex="1">
          <mxGeometry x="594" y="250" width="120" height="60" as="geometry" />
        </mxCell>
        <mxCell id="jHHYnB5XeiIA4RbSCAga-32" style="edgeStyle=orthogonalEdgeStyle;shape=connector;rounded=0;orthogonalLoop=1;jettySize=auto;html=1;strokeColor=default;align=center;verticalAlign=middle;fontFamily=Helvetica;fontSize=11;fontColor=default;labelBackgroundColor=default;endArrow=ERmany;endFill=0;" parent="1" source="jHHYnB5XeiIA4RbSCAga-30" target="jHHYnB5XeiIA4RbSCAga-3" edge="1">
          <mxGeometry relative="1" as="geometry" />
        </mxCell>
        <mxCell id="jHHYnB5XeiIA4RbSCAga-30" value="Producir" style="shape=rhombus;perimeter=rhombusPerimeter;whiteSpace=wrap;html=1;align=center;fontFamily=Helvetica;fontSize=11;fontColor=default;labelBackgroundColor=default;" parent="1" vertex="1">
          <mxGeometry x="364" y="360" width="120" height="60" as="geometry" />
        </mxCell>
        <mxCell id="-2n7A1uFH6f_V6zUvD9d-1" value="" style="edgeStyle=orthogonalEdgeStyle;shape=connector;rounded=0;orthogonalLoop=1;jettySize=auto;html=1;strokeColor=#82b366;align=center;verticalAlign=middle;fontFamily=Helvetica;fontSize=11;fontColor=default;labelBackgroundColor=none;endArrow=none;endFill=0;fillColor=#d5e8d4;startArrow=ERone;startFill=0;" edge="1" parent="1" source="-2n7A1uFH6f_V6zUvD9d-2" target="-2n7A1uFH6f_V6zUvD9d-5">
          <mxGeometry relative="1" as="geometry" />
        </mxCell>
        <mxCell id="-2n7A1uFH6f_V6zUvD9d-2" value="Avião" style="whiteSpace=wrap;html=1;align=center;fontFamily=Helvetica;fontSize=11;labelBackgroundColor=none;fillColor=#d5e8d4;strokeColor=#82b366;" vertex="1" parent="1">
          <mxGeometry x="133" y="600" width="100" height="40" as="geometry" />
        </mxCell>
        <mxCell id="-2n7A1uFH6f_V6zUvD9d-3" value="Voos" style="whiteSpace=wrap;html=1;align=center;fontFamily=Helvetica;fontSize=11;labelBackgroundColor=none;fillColor=#d5e8d4;strokeColor=#82b366;" vertex="1" parent="1">
          <mxGeometry x="559" y="600" width="100" height="40" as="geometry" />
        </mxCell>
        <mxCell id="-2n7A1uFH6f_V6zUvD9d-4" value="" style="edgeStyle=orthogonalEdgeStyle;shape=connector;rounded=0;orthogonalLoop=1;jettySize=auto;html=1;strokeColor=#82b366;align=center;verticalAlign=middle;fontFamily=Helvetica;fontSize=11;fontColor=default;labelBackgroundColor=none;endArrow=ERmany;endFill=0;fillColor=#d5e8d4;" edge="1" parent="1" source="-2n7A1uFH6f_V6zUvD9d-5" target="-2n7A1uFH6f_V6zUvD9d-3">
          <mxGeometry relative="1" as="geometry" />
        </mxCell>
        <mxCell id="-2n7A1uFH6f_V6zUvD9d-5" value="Faz" style="shape=rhombus;perimeter=rhombusPerimeter;whiteSpace=wrap;html=1;align=center;fontFamily=Helvetica;fontSize=11;labelBackgroundColor=none;fillColor=#d5e8d4;strokeColor=#82b366;" vertex="1" parent="1">
          <mxGeometry x="326.5" y="590" width="120" height="60" as="geometry" />
        </mxCell>
        <mxCell id="-2n7A1uFH6f_V6zUvD9d-6" style="shape=connector;rounded=0;orthogonalLoop=1;jettySize=auto;html=1;strokeColor=#82b366;align=center;verticalAlign=middle;fontFamily=Helvetica;fontSize=11;fontColor=default;labelBackgroundColor=none;endArrow=none;endFill=0;fillColor=#d5e8d4;" edge="1" parent="1" source="-2n7A1uFH6f_V6zUvD9d-7" target="-2n7A1uFH6f_V6zUvD9d-2">
          <mxGeometry relative="1" as="geometry" />
        </mxCell>
        <mxCell id="-2n7A1uFH6f_V6zUvD9d-7" value="Matrícula" style="ellipse;whiteSpace=wrap;html=1;align=center;fontFamily=Helvetica;fontSize=11;labelBackgroundColor=none;fillColor=#d5e8d4;strokeColor=#82b366;" vertex="1" parent="1">
          <mxGeometry x="20" y="650" width="100" height="40" as="geometry" />
        </mxCell>
        <mxCell id="-2n7A1uFH6f_V6zUvD9d-8" style="shape=connector;rounded=0;orthogonalLoop=1;jettySize=auto;html=1;strokeColor=#82b366;align=center;verticalAlign=middle;fontFamily=Helvetica;fontSize=11;fontColor=default;labelBackgroundColor=none;endArrow=none;endFill=0;fillColor=#d5e8d4;" edge="1" parent="1" source="-2n7A1uFH6f_V6zUvD9d-9" target="-2n7A1uFH6f_V6zUvD9d-2">
          <mxGeometry relative="1" as="geometry" />
        </mxCell>
        <mxCell id="-2n7A1uFH6f_V6zUvD9d-9" value="Autonomia&amp;nbsp;" style="ellipse;whiteSpace=wrap;html=1;align=center;fontFamily=Helvetica;fontSize=11;labelBackgroundColor=none;fillColor=#d5e8d4;strokeColor=#82b366;" vertex="1" parent="1">
          <mxGeometry x="220" y="680" width="100" height="40" as="geometry" />
        </mxCell>
        <mxCell id="-2n7A1uFH6f_V6zUvD9d-10" style="shape=connector;rounded=0;orthogonalLoop=1;jettySize=auto;html=1;strokeColor=default;align=center;verticalAlign=middle;fontFamily=Helvetica;fontSize=11;fontColor=default;labelBackgroundColor=default;endArrow=none;endFill=0;" edge="1" parent="1" source="-2n7A1uFH6f_V6zUvD9d-11" target="-2n7A1uFH6f_V6zUvD9d-3">
          <mxGeometry relative="1" as="geometry" />
        </mxCell>
        <mxCell id="-2n7A1uFH6f_V6zUvD9d-11" value="Data" style="ellipse;whiteSpace=wrap;html=1;align=center;fontFamily=Helvetica;fontSize=11;labelBackgroundColor=none;fillColor=#d5e8d4;strokeColor=#82b366;" vertex="1" parent="1">
          <mxGeometry x="460" y="670" width="100" height="40" as="geometry" />
        </mxCell>
        <mxCell id="-2n7A1uFH6f_V6zUvD9d-12" style="shape=connector;rounded=0;orthogonalLoop=1;jettySize=auto;html=1;strokeColor=default;align=center;verticalAlign=middle;fontFamily=Helvetica;fontSize=11;fontColor=default;labelBackgroundColor=default;endArrow=none;endFill=0;" edge="1" parent="1" source="-2n7A1uFH6f_V6zUvD9d-13" target="-2n7A1uFH6f_V6zUvD9d-3">
          <mxGeometry relative="1" as="geometry" />
        </mxCell>
        <mxCell id="-2n7A1uFH6f_V6zUvD9d-13" value="Numero&lt;div&gt;Referência&lt;/div&gt;" style="ellipse;whiteSpace=wrap;html=1;align=center;fontFamily=Helvetica;fontSize=11;labelBackgroundColor=none;fillColor=#d5e8d4;strokeColor=#82b366;" vertex="1" parent="1">
          <mxGeometry x="640" y="670" width="100" height="40" as="geometry" />
        </mxCell>
        <mxCell id="-2n7A1uFH6f_V6zUvD9d-14" value="Avião" style="whiteSpace=wrap;html=1;align=center;fontFamily=Helvetica;fontSize=11;labelBackgroundColor=none;fillColor=#d5e8d4;strokeColor=#82b366;" vertex="1" parent="1">
          <mxGeometry x="133" y="600" width="100" height="40" as="geometry" />
        </mxCell>
        <mxCell id="-2n7A1uFH6f_V6zUvD9d-15" style="shape=connector;rounded=0;orthogonalLoop=1;jettySize=auto;html=1;strokeColor=#82b366;align=center;verticalAlign=middle;fontFamily=Helvetica;fontSize=11;fontColor=default;labelBackgroundColor=none;endArrow=none;endFill=0;fillColor=#d5e8d4;" edge="1" parent="1" source="-2n7A1uFH6f_V6zUvD9d-16" target="-2n7A1uFH6f_V6zUvD9d-14">
          <mxGeometry relative="1" as="geometry" />
        </mxCell>
        <mxCell id="-2n7A1uFH6f_V6zUvD9d-16" value="Marca" style="ellipse;whiteSpace=wrap;html=1;align=center;fontFamily=Helvetica;fontSize=11;labelBackgroundColor=none;fillColor=#d5e8d4;strokeColor=#82b366;" vertex="1" parent="1">
          <mxGeometry x="110" y="700" width="100" height="40" as="geometry" />
        </mxCell>
        <mxCell id="-2n7A1uFH6f_V6zUvD9d-17" style="shape=connector;rounded=0;orthogonalLoop=1;jettySize=auto;html=1;strokeColor=default;align=center;verticalAlign=middle;fontFamily=Helvetica;fontSize=11;fontColor=default;labelBackgroundColor=default;endArrow=none;endFill=0;" edge="1" parent="1" source="-2n7A1uFH6f_V6zUvD9d-18" target="-2n7A1uFH6f_V6zUvD9d-3">
          <mxGeometry relative="1" as="geometry" />
        </mxCell>
        <mxCell id="-2n7A1uFH6f_V6zUvD9d-18" value="Hora" style="ellipse;whiteSpace=wrap;html=1;align=center;fontFamily=Helvetica;fontSize=11;labelBackgroundColor=none;fillColor=#d5e8d4;strokeColor=#82b366;" vertex="1" parent="1">
          <mxGeometry x="560" y="720" width="100" height="40" as="geometry" />
        </mxCell>
        <mxCell id="-2n7A1uFH6f_V6zUvD9d-19" value="Médico" style="whiteSpace=wrap;html=1;align=center;fontFamily=Helvetica;fontSize=11;labelBackgroundColor=none;fillColor=#d5e8d4;strokeColor=#82b366;" vertex="1" parent="1">
          <mxGeometry x="175" y="1230" width="100" height="40" as="geometry" />
        </mxCell>
        <mxCell id="-2n7A1uFH6f_V6zUvD9d-20" value="" style="edgeStyle=orthogonalEdgeStyle;shape=connector;rounded=0;orthogonalLoop=1;jettySize=auto;html=1;strokeColor=default;align=center;verticalAlign=middle;fontFamily=Helvetica;fontSize=11;fontColor=default;labelBackgroundColor=default;endArrow=none;endFill=0;startArrow=ERone;startFill=0;" edge="1" parent="1" source="-2n7A1uFH6f_V6zUvD9d-19" target="-2n7A1uFH6f_V6zUvD9d-22">
          <mxGeometry relative="1" as="geometry" />
        </mxCell>
        <mxCell id="-2n7A1uFH6f_V6zUvD9d-21" value="" style="shape=connector;rounded=0;orthogonalLoop=1;jettySize=auto;html=1;strokeColor=default;align=center;verticalAlign=middle;fontFamily=Helvetica;fontSize=11;fontColor=default;labelBackgroundColor=default;endArrow=ERmany;endFill=0;" edge="1" parent="1" source="-2n7A1uFH6f_V6zUvD9d-22" target="-2n7A1uFH6f_V6zUvD9d-23">
          <mxGeometry relative="1" as="geometry" />
        </mxCell>
        <mxCell id="-2n7A1uFH6f_V6zUvD9d-22" value="Dá" style="shape=rhombus;perimeter=rhombusPerimeter;whiteSpace=wrap;html=1;align=center;fontFamily=Helvetica;fontSize=11;labelBackgroundColor=none;fillColor=#d5e8d4;strokeColor=#82b366;" vertex="1" parent="1">
          <mxGeometry x="375" y="1220" width="120" height="60" as="geometry" />
        </mxCell>
        <mxCell id="-2n7A1uFH6f_V6zUvD9d-23" value="Consulta" style="whiteSpace=wrap;html=1;align=center;fontFamily=Helvetica;fontSize=11;labelBackgroundColor=none;fillColor=#d5e8d4;strokeColor=#82b366;" vertex="1" parent="1">
          <mxGeometry x="565" y="1340" width="100" height="40" as="geometry" />
        </mxCell>
        <mxCell id="-2n7A1uFH6f_V6zUvD9d-24" value="" style="shape=connector;rounded=0;orthogonalLoop=1;jettySize=auto;html=1;strokeColor=default;align=center;verticalAlign=middle;fontFamily=Helvetica;fontSize=11;fontColor=default;labelBackgroundColor=default;endArrow=ERone;endFill=0;startArrow=ERmany;startFill=0;" edge="1" parent="1" source="-2n7A1uFH6f_V6zUvD9d-19" target="-2n7A1uFH6f_V6zUvD9d-112">
          <mxGeometry relative="1" as="geometry">
            <mxPoint x="96.23475237772118" y="1314.3826238111394" as="targetPoint" />
          </mxGeometry>
        </mxCell>
        <mxCell id="-2n7A1uFH6f_V6zUvD9d-25" style="shape=connector;rounded=0;orthogonalLoop=1;jettySize=auto;html=1;strokeColor=default;align=center;verticalAlign=middle;fontFamily=Helvetica;fontSize=11;fontColor=default;labelBackgroundColor=default;endArrow=none;endFill=0;" edge="1" parent="1" source="-2n7A1uFH6f_V6zUvD9d-26" target="-2n7A1uFH6f_V6zUvD9d-23">
          <mxGeometry relative="1" as="geometry" />
        </mxCell>
        <mxCell id="-2n7A1uFH6f_V6zUvD9d-26" value="Data" style="ellipse;whiteSpace=wrap;html=1;align=center;fontFamily=Helvetica;fontSize=11;labelBackgroundColor=none;fillColor=#d5e8d4;strokeColor=#82b366;" vertex="1" parent="1">
          <mxGeometry x="675" y="1400" width="100" height="40" as="geometry" />
        </mxCell>
        <mxCell id="-2n7A1uFH6f_V6zUvD9d-27" value="" style="shape=connector;rounded=0;orthogonalLoop=1;jettySize=auto;html=1;strokeColor=default;align=center;verticalAlign=middle;fontFamily=Helvetica;fontSize=11;fontColor=default;labelBackgroundColor=default;endArrow=none;endFill=0;" edge="1" parent="1" source="-2n7A1uFH6f_V6zUvD9d-28" target="-2n7A1uFH6f_V6zUvD9d-23">
          <mxGeometry relative="1" as="geometry" />
        </mxCell>
        <mxCell id="-2n7A1uFH6f_V6zUvD9d-28" value="Hora" style="ellipse;whiteSpace=wrap;html=1;align=center;fontFamily=Helvetica;fontSize=11;labelBackgroundColor=none;fillColor=#d5e8d4;strokeColor=#82b366;" vertex="1" parent="1">
          <mxGeometry x="695" y="1340" width="100" height="40" as="geometry" />
        </mxCell>
        <mxCell id="-2n7A1uFH6f_V6zUvD9d-29" style="shape=connector;rounded=0;orthogonalLoop=1;jettySize=auto;html=1;strokeColor=default;align=center;verticalAlign=middle;fontFamily=Helvetica;fontSize=11;fontColor=default;labelBackgroundColor=default;endArrow=none;endFill=0;" edge="1" parent="1" source="-2n7A1uFH6f_V6zUvD9d-30" target="-2n7A1uFH6f_V6zUvD9d-23">
          <mxGeometry relative="1" as="geometry" />
        </mxCell>
        <mxCell id="-2n7A1uFH6f_V6zUvD9d-30" value="Valor" style="ellipse;whiteSpace=wrap;html=1;align=center;fontFamily=Helvetica;fontSize=11;labelBackgroundColor=none;fillColor=#d5e8d4;strokeColor=#82b366;" vertex="1" parent="1">
          <mxGeometry x="655" y="1280" width="100" height="40" as="geometry" />
        </mxCell>
        <mxCell id="-2n7A1uFH6f_V6zUvD9d-31" value="" style="edgeStyle=orthogonalEdgeStyle;shape=connector;rounded=0;orthogonalLoop=1;jettySize=auto;html=1;strokeColor=default;align=center;verticalAlign=middle;fontFamily=Helvetica;fontSize=11;fontColor=default;labelBackgroundColor=default;endArrow=none;endFill=0;startArrow=ERone;startFill=0;" edge="1" parent="1" source="-2n7A1uFH6f_V6zUvD9d-32" target="-2n7A1uFH6f_V6zUvD9d-36">
          <mxGeometry relative="1" as="geometry" />
        </mxCell>
        <mxCell id="-2n7A1uFH6f_V6zUvD9d-32" value="Paciente" style="whiteSpace=wrap;html=1;align=center;fontFamily=Helvetica;fontSize=11;labelBackgroundColor=none;fillColor=#d5e8d4;strokeColor=#82b366;" vertex="1" parent="1">
          <mxGeometry x="185" y="1430" width="100" height="40" as="geometry" />
        </mxCell>
        <mxCell id="-2n7A1uFH6f_V6zUvD9d-33" value="" style="shape=connector;rounded=0;orthogonalLoop=1;jettySize=auto;html=1;strokeColor=default;align=center;verticalAlign=middle;fontFamily=Helvetica;fontSize=11;fontColor=default;labelBackgroundColor=default;endArrow=none;endFill=0;" edge="1" parent="1" source="-2n7A1uFH6f_V6zUvD9d-34" target="-2n7A1uFH6f_V6zUvD9d-32">
          <mxGeometry relative="1" as="geometry" />
        </mxCell>
        <mxCell id="-2n7A1uFH6f_V6zUvD9d-34" value="Nome" style="ellipse;whiteSpace=wrap;html=1;align=center;fontFamily=Helvetica;fontSize=11;labelBackgroundColor=none;fillColor=#d5e8d4;strokeColor=#82b366;" vertex="1" parent="1">
          <mxGeometry x="185" y="1490" width="100" height="40" as="geometry" />
        </mxCell>
        <mxCell id="-2n7A1uFH6f_V6zUvD9d-35" value="" style="shape=connector;rounded=0;orthogonalLoop=1;jettySize=auto;html=1;strokeColor=default;align=center;verticalAlign=middle;fontFamily=Helvetica;fontSize=11;fontColor=default;labelBackgroundColor=default;endArrow=ERmany;endFill=0;" edge="1" parent="1" source="-2n7A1uFH6f_V6zUvD9d-36" target="-2n7A1uFH6f_V6zUvD9d-23">
          <mxGeometry relative="1" as="geometry" />
        </mxCell>
        <mxCell id="-2n7A1uFH6f_V6zUvD9d-36" value="Solícita" style="shape=rhombus;perimeter=rhombusPerimeter;whiteSpace=wrap;html=1;align=center;fontFamily=Helvetica;fontSize=11;labelBackgroundColor=none;fillColor=#d5e8d4;strokeColor=#82b366;" vertex="1" parent="1">
          <mxGeometry x="375" y="1420" width="120" height="60" as="geometry" />
        </mxCell>
        <mxCell id="-2n7A1uFH6f_V6zUvD9d-37" value="Aviao" style="shape=table;startSize=40;container=1;collapsible=1;childLayout=tableLayout;fixedRows=1;rowLines=0;fontStyle=1;align=center;resizeLast=1;html=1;whiteSpace=wrap;" vertex="1" parent="1">
          <mxGeometry x="47" y="790" width="273" height="130" as="geometry">
            <mxRectangle x="81" y="240" width="70" height="40" as="alternateBounds" />
          </mxGeometry>
        </mxCell>
        <mxCell id="-2n7A1uFH6f_V6zUvD9d-38" value="" style="shape=tableRow;horizontal=0;startSize=0;swimlaneHead=0;swimlaneBody=0;fillColor=none;collapsible=0;dropTarget=0;points=[[0,0.5],[1,0.5]];portConstraint=eastwest;top=0;left=0;right=0;bottom=1;html=1;" vertex="1" parent="-2n7A1uFH6f_V6zUvD9d-37">
          <mxGeometry y="40" width="273" height="30" as="geometry" />
        </mxCell>
        <mxCell id="-2n7A1uFH6f_V6zUvD9d-39" value="PK" style="shape=partialRectangle;connectable=0;fillColor=none;top=0;left=0;bottom=0;right=0;fontStyle=1;overflow=hidden;html=1;whiteSpace=wrap;" vertex="1" parent="-2n7A1uFH6f_V6zUvD9d-38">
          <mxGeometry width="53" height="30" as="geometry">
            <mxRectangle width="53" height="30" as="alternateBounds" />
          </mxGeometry>
        </mxCell>
        <mxCell id="-2n7A1uFH6f_V6zUvD9d-40" value="matricula" style="shape=partialRectangle;connectable=0;fillColor=none;top=0;left=0;bottom=0;right=0;align=left;spacingLeft=6;fontStyle=5;overflow=hidden;html=1;whiteSpace=wrap;" vertex="1" parent="-2n7A1uFH6f_V6zUvD9d-38">
          <mxGeometry x="53" width="220" height="30" as="geometry">
            <mxRectangle width="220" height="30" as="alternateBounds" />
          </mxGeometry>
        </mxCell>
        <mxCell id="-2n7A1uFH6f_V6zUvD9d-41" value="" style="shape=tableRow;horizontal=0;startSize=0;swimlaneHead=0;swimlaneBody=0;fillColor=none;collapsible=0;dropTarget=0;points=[[0,0.5],[1,0.5]];portConstraint=eastwest;top=0;left=0;right=0;bottom=0;html=1;" vertex="1" parent="-2n7A1uFH6f_V6zUvD9d-37">
          <mxGeometry y="70" width="273" height="30" as="geometry" />
        </mxCell>
        <mxCell id="-2n7A1uFH6f_V6zUvD9d-42" value="" style="shape=partialRectangle;connectable=0;fillColor=none;top=0;left=0;bottom=0;right=0;editable=1;overflow=hidden;html=1;whiteSpace=wrap;" vertex="1" parent="-2n7A1uFH6f_V6zUvD9d-41">
          <mxGeometry width="53" height="30" as="geometry">
            <mxRectangle width="53" height="30" as="alternateBounds" />
          </mxGeometry>
        </mxCell>
        <mxCell id="-2n7A1uFH6f_V6zUvD9d-43" value="marca" style="shape=partialRectangle;connectable=0;fillColor=none;top=0;left=0;bottom=0;right=0;align=left;spacingLeft=6;overflow=hidden;html=1;whiteSpace=wrap;" vertex="1" parent="-2n7A1uFH6f_V6zUvD9d-41">
          <mxGeometry x="53" width="220" height="30" as="geometry">
            <mxRectangle width="220" height="30" as="alternateBounds" />
          </mxGeometry>
        </mxCell>
        <mxCell id="-2n7A1uFH6f_V6zUvD9d-44" value="" style="shape=tableRow;horizontal=0;startSize=0;swimlaneHead=0;swimlaneBody=0;fillColor=none;collapsible=0;dropTarget=0;points=[[0,0.5],[1,0.5]];portConstraint=eastwest;top=0;left=0;right=0;bottom=0;html=1;" vertex="1" parent="-2n7A1uFH6f_V6zUvD9d-37">
          <mxGeometry y="100" width="273" height="30" as="geometry" />
        </mxCell>
        <mxCell id="-2n7A1uFH6f_V6zUvD9d-45" value="" style="shape=partialRectangle;connectable=0;fillColor=none;top=0;left=0;bottom=0;right=0;editable=1;overflow=hidden;html=1;whiteSpace=wrap;" vertex="1" parent="-2n7A1uFH6f_V6zUvD9d-44">
          <mxGeometry width="53" height="30" as="geometry">
            <mxRectangle width="53" height="30" as="alternateBounds" />
          </mxGeometry>
        </mxCell>
        <mxCell id="-2n7A1uFH6f_V6zUvD9d-46" value="autonomia (em horas)" style="shape=partialRectangle;connectable=0;fillColor=none;top=0;left=0;bottom=0;right=0;align=left;spacingLeft=6;overflow=hidden;html=1;whiteSpace=wrap;" vertex="1" parent="-2n7A1uFH6f_V6zUvD9d-44">
          <mxGeometry x="53" width="220" height="30" as="geometry">
            <mxRectangle width="220" height="30" as="alternateBounds" />
          </mxGeometry>
        </mxCell>
        <mxCell id="-2n7A1uFH6f_V6zUvD9d-47" value="Voo" style="shape=table;startSize=30;container=1;collapsible=1;childLayout=tableLayout;fixedRows=1;rowLines=0;fontStyle=1;align=center;resizeLast=1;html=1;whiteSpace=wrap;" vertex="1" parent="1">
          <mxGeometry x="460" y="790" width="280" height="150" as="geometry">
            <mxRectangle x="494" y="240" width="60" height="30" as="alternateBounds" />
          </mxGeometry>
        </mxCell>
        <mxCell id="-2n7A1uFH6f_V6zUvD9d-48" value="" style="shape=tableRow;horizontal=0;startSize=0;swimlaneHead=0;swimlaneBody=0;fillColor=none;collapsible=0;dropTarget=0;points=[[0,0.5],[1,0.5]];portConstraint=eastwest;top=0;left=0;right=0;bottom=1;html=1;" vertex="1" parent="-2n7A1uFH6f_V6zUvD9d-47">
          <mxGeometry y="30" width="280" height="30" as="geometry" />
        </mxCell>
        <mxCell id="-2n7A1uFH6f_V6zUvD9d-49" value="PK" style="shape=partialRectangle;connectable=0;fillColor=none;top=0;left=0;bottom=0;right=0;fontStyle=1;overflow=hidden;html=1;whiteSpace=wrap;" vertex="1" parent="-2n7A1uFH6f_V6zUvD9d-48">
          <mxGeometry width="60" height="30" as="geometry">
            <mxRectangle width="60" height="30" as="alternateBounds" />
          </mxGeometry>
        </mxCell>
        <mxCell id="-2n7A1uFH6f_V6zUvD9d-50" value="numeroReferencia" style="shape=partialRectangle;connectable=0;fillColor=none;top=0;left=0;bottom=0;right=0;align=left;spacingLeft=6;fontStyle=5;overflow=hidden;html=1;whiteSpace=wrap;" vertex="1" parent="-2n7A1uFH6f_V6zUvD9d-48">
          <mxGeometry x="60" width="220" height="30" as="geometry">
            <mxRectangle width="220" height="30" as="alternateBounds" />
          </mxGeometry>
        </mxCell>
        <mxCell id="-2n7A1uFH6f_V6zUvD9d-51" value="" style="shape=tableRow;horizontal=0;startSize=0;swimlaneHead=0;swimlaneBody=0;fillColor=none;collapsible=0;dropTarget=0;points=[[0,0.5],[1,0.5]];portConstraint=eastwest;top=0;left=0;right=0;bottom=0;html=1;" vertex="1" parent="-2n7A1uFH6f_V6zUvD9d-47">
          <mxGeometry y="60" width="280" height="30" as="geometry" />
        </mxCell>
        <mxCell id="-2n7A1uFH6f_V6zUvD9d-52" value="FK" style="shape=partialRectangle;connectable=0;fillColor=none;top=0;left=0;bottom=0;right=0;editable=1;overflow=hidden;html=1;whiteSpace=wrap;" vertex="1" parent="-2n7A1uFH6f_V6zUvD9d-51">
          <mxGeometry width="60" height="30" as="geometry">
            <mxRectangle width="60" height="30" as="alternateBounds" />
          </mxGeometry>
        </mxCell>
        <mxCell id="-2n7A1uFH6f_V6zUvD9d-53" value="matriculaAviao" style="shape=partialRectangle;connectable=0;fillColor=none;top=0;left=0;bottom=0;right=0;align=left;spacingLeft=6;overflow=hidden;html=1;whiteSpace=wrap;" vertex="1" parent="-2n7A1uFH6f_V6zUvD9d-51">
          <mxGeometry x="60" width="220" height="30" as="geometry">
            <mxRectangle width="220" height="30" as="alternateBounds" />
          </mxGeometry>
        </mxCell>
        <mxCell id="-2n7A1uFH6f_V6zUvD9d-54" value="" style="shape=tableRow;horizontal=0;startSize=0;swimlaneHead=0;swimlaneBody=0;fillColor=none;collapsible=0;dropTarget=0;points=[[0,0.5],[1,0.5]];portConstraint=eastwest;top=0;left=0;right=0;bottom=0;html=1;" vertex="1" parent="-2n7A1uFH6f_V6zUvD9d-47">
          <mxGeometry y="90" width="280" height="30" as="geometry" />
        </mxCell>
        <mxCell id="-2n7A1uFH6f_V6zUvD9d-55" value="" style="shape=partialRectangle;connectable=0;fillColor=none;top=0;left=0;bottom=0;right=0;editable=1;overflow=hidden;html=1;whiteSpace=wrap;" vertex="1" parent="-2n7A1uFH6f_V6zUvD9d-54">
          <mxGeometry width="60" height="30" as="geometry">
            <mxRectangle width="60" height="30" as="alternateBounds" />
          </mxGeometry>
        </mxCell>
        <mxCell id="-2n7A1uFH6f_V6zUvD9d-56" value="data (dd/mm/yyyy)" style="shape=partialRectangle;connectable=0;fillColor=none;top=0;left=0;bottom=0;right=0;align=left;spacingLeft=6;overflow=hidden;html=1;whiteSpace=wrap;" vertex="1" parent="-2n7A1uFH6f_V6zUvD9d-54">
          <mxGeometry x="60" width="220" height="30" as="geometry">
            <mxRectangle width="220" height="30" as="alternateBounds" />
          </mxGeometry>
        </mxCell>
        <mxCell id="-2n7A1uFH6f_V6zUvD9d-57" value="" style="shape=tableRow;horizontal=0;startSize=0;swimlaneHead=0;swimlaneBody=0;fillColor=none;collapsible=0;dropTarget=0;points=[[0,0.5],[1,0.5]];portConstraint=eastwest;top=0;left=0;right=0;bottom=0;html=1;" vertex="1" parent="-2n7A1uFH6f_V6zUvD9d-47">
          <mxGeometry y="120" width="280" height="30" as="geometry" />
        </mxCell>
        <mxCell id="-2n7A1uFH6f_V6zUvD9d-58" value="" style="shape=partialRectangle;connectable=0;fillColor=none;top=0;left=0;bottom=0;right=0;editable=1;overflow=hidden;html=1;whiteSpace=wrap;" vertex="1" parent="-2n7A1uFH6f_V6zUvD9d-57">
          <mxGeometry width="60" height="30" as="geometry">
            <mxRectangle width="60" height="30" as="alternateBounds" />
          </mxGeometry>
        </mxCell>
        <mxCell id="-2n7A1uFH6f_V6zUvD9d-59" value="hora" style="shape=partialRectangle;connectable=0;fillColor=none;top=0;left=0;bottom=0;right=0;align=left;spacingLeft=6;overflow=hidden;html=1;whiteSpace=wrap;" vertex="1" parent="-2n7A1uFH6f_V6zUvD9d-57">
          <mxGeometry x="60" width="220" height="30" as="geometry">
            <mxRectangle width="220" height="30" as="alternateBounds" />
          </mxGeometry>
        </mxCell>
        <mxCell id="-2n7A1uFH6f_V6zUvD9d-60" style="edgeStyle=orthogonalEdgeStyle;rounded=0;orthogonalLoop=1;jettySize=auto;html=1;entryX=0;entryY=0.5;entryDx=0;entryDy=0;endArrow=ERzeroToMany;endFill=0;startArrow=ERmandOne;startFill=0;" edge="1" parent="1" source="-2n7A1uFH6f_V6zUvD9d-38" target="-2n7A1uFH6f_V6zUvD9d-51">
          <mxGeometry relative="1" as="geometry" />
        </mxCell>
        <mxCell id="-2n7A1uFH6f_V6zUvD9d-61" value="Medico" style="shape=table;startSize=30;container=1;collapsible=1;childLayout=tableLayout;fixedRows=1;rowLines=0;fontStyle=1;align=center;resizeLast=1;html=1;fontSize=12;" vertex="1" parent="1">
          <mxGeometry x="118.5" y="1580" width="180" height="150" as="geometry" />
        </mxCell>
        <mxCell id="-2n7A1uFH6f_V6zUvD9d-62" value="" style="shape=tableRow;horizontal=0;startSize=0;swimlaneHead=0;swimlaneBody=0;fillColor=none;collapsible=0;dropTarget=0;points=[[0,0.5],[1,0.5]];portConstraint=eastwest;top=0;left=0;right=0;bottom=1;" vertex="1" parent="-2n7A1uFH6f_V6zUvD9d-61">
          <mxGeometry y="30" width="180" height="30" as="geometry" />
        </mxCell>
        <mxCell id="-2n7A1uFH6f_V6zUvD9d-63" value="PK" style="shape=partialRectangle;connectable=0;fillColor=none;top=0;left=0;bottom=0;right=0;fontStyle=1;overflow=hidden;whiteSpace=wrap;html=1;" vertex="1" parent="-2n7A1uFH6f_V6zUvD9d-62">
          <mxGeometry width="30" height="30" as="geometry">
            <mxRectangle width="30" height="30" as="alternateBounds" />
          </mxGeometry>
        </mxCell>
        <mxCell id="-2n7A1uFH6f_V6zUvD9d-64" value="numCedula" style="shape=partialRectangle;connectable=0;fillColor=none;top=0;left=0;bottom=0;right=0;align=left;spacingLeft=6;fontStyle=5;overflow=hidden;whiteSpace=wrap;html=1;" vertex="1" parent="-2n7A1uFH6f_V6zUvD9d-62">
          <mxGeometry x="30" width="150" height="30" as="geometry">
            <mxRectangle width="150" height="30" as="alternateBounds" />
          </mxGeometry>
        </mxCell>
        <mxCell id="-2n7A1uFH6f_V6zUvD9d-65" value="" style="shape=tableRow;horizontal=0;startSize=0;swimlaneHead=0;swimlaneBody=0;fillColor=none;collapsible=0;dropTarget=0;points=[[0,0.5],[1,0.5]];portConstraint=eastwest;top=0;left=0;right=0;bottom=0;" vertex="1" parent="-2n7A1uFH6f_V6zUvD9d-61">
          <mxGeometry y="60" width="180" height="30" as="geometry" />
        </mxCell>
        <mxCell id="-2n7A1uFH6f_V6zUvD9d-66" value="" style="shape=partialRectangle;connectable=0;fillColor=none;top=0;left=0;bottom=0;right=0;editable=1;overflow=hidden;whiteSpace=wrap;html=1;" vertex="1" parent="-2n7A1uFH6f_V6zUvD9d-65">
          <mxGeometry width="30" height="30" as="geometry">
            <mxRectangle width="30" height="30" as="alternateBounds" />
          </mxGeometry>
        </mxCell>
        <mxCell id="-2n7A1uFH6f_V6zUvD9d-67" value="nome" style="shape=partialRectangle;connectable=0;fillColor=none;top=0;left=0;bottom=0;right=0;align=left;spacingLeft=6;overflow=hidden;whiteSpace=wrap;html=1;" vertex="1" parent="-2n7A1uFH6f_V6zUvD9d-65">
          <mxGeometry x="30" width="150" height="30" as="geometry">
            <mxRectangle width="150" height="30" as="alternateBounds" />
          </mxGeometry>
        </mxCell>
        <mxCell id="-2n7A1uFH6f_V6zUvD9d-68" value="" style="shape=tableRow;horizontal=0;startSize=0;swimlaneHead=0;swimlaneBody=0;fillColor=none;collapsible=0;dropTarget=0;points=[[0,0.5],[1,0.5]];portConstraint=eastwest;top=0;left=0;right=0;bottom=0;" vertex="1" parent="-2n7A1uFH6f_V6zUvD9d-61">
          <mxGeometry y="90" width="180" height="30" as="geometry" />
        </mxCell>
        <mxCell id="-2n7A1uFH6f_V6zUvD9d-69" value="" style="shape=partialRectangle;connectable=0;fillColor=none;top=0;left=0;bottom=0;right=0;editable=1;overflow=hidden;whiteSpace=wrap;html=1;" vertex="1" parent="-2n7A1uFH6f_V6zUvD9d-68">
          <mxGeometry width="30" height="30" as="geometry">
            <mxRectangle width="30" height="30" as="alternateBounds" />
          </mxGeometry>
        </mxCell>
        <mxCell id="-2n7A1uFH6f_V6zUvD9d-70" value="telefone" style="shape=partialRectangle;connectable=0;fillColor=none;top=0;left=0;bottom=0;right=0;align=left;spacingLeft=6;overflow=hidden;whiteSpace=wrap;html=1;" vertex="1" parent="-2n7A1uFH6f_V6zUvD9d-68">
          <mxGeometry x="30" width="150" height="30" as="geometry">
            <mxRectangle width="150" height="30" as="alternateBounds" />
          </mxGeometry>
        </mxCell>
        <mxCell id="-2n7A1uFH6f_V6zUvD9d-71" style="shape=tableRow;horizontal=0;startSize=0;swimlaneHead=0;swimlaneBody=0;fillColor=none;collapsible=0;dropTarget=0;points=[[0,0.5],[1,0.5]];portConstraint=eastwest;top=0;left=0;right=0;bottom=0;" vertex="1" parent="-2n7A1uFH6f_V6zUvD9d-61">
          <mxGeometry y="120" width="180" height="30" as="geometry" />
        </mxCell>
        <mxCell id="-2n7A1uFH6f_V6zUvD9d-72" value="FK" style="shape=partialRectangle;connectable=0;fillColor=none;top=0;left=0;bottom=0;right=0;editable=1;overflow=hidden;whiteSpace=wrap;html=1;" vertex="1" parent="-2n7A1uFH6f_V6zUvD9d-71">
          <mxGeometry width="30" height="30" as="geometry">
            <mxRectangle width="30" height="30" as="alternateBounds" />
          </mxGeometry>
        </mxCell>
        <mxCell id="-2n7A1uFH6f_V6zUvD9d-73" value="codEspecialidade" style="shape=partialRectangle;connectable=0;fillColor=none;top=0;left=0;bottom=0;right=0;align=left;spacingLeft=6;overflow=hidden;whiteSpace=wrap;html=1;" vertex="1" parent="-2n7A1uFH6f_V6zUvD9d-71">
          <mxGeometry x="30" width="150" height="30" as="geometry">
            <mxRectangle width="150" height="30" as="alternateBounds" />
          </mxGeometry>
        </mxCell>
        <mxCell id="-2n7A1uFH6f_V6zUvD9d-74" value="Consulta" style="shape=table;startSize=30;container=1;collapsible=1;childLayout=tableLayout;fixedRows=1;rowLines=0;fontStyle=1;align=center;resizeLast=1;html=1;" vertex="1" parent="1">
          <mxGeometry x="392" y="1580" width="180" height="210" as="geometry" />
        </mxCell>
        <mxCell id="-2n7A1uFH6f_V6zUvD9d-75" value="" style="shape=tableRow;horizontal=0;startSize=0;swimlaneHead=0;swimlaneBody=0;fillColor=none;collapsible=0;dropTarget=0;points=[[0,0.5],[1,0.5]];portConstraint=eastwest;top=0;left=0;right=0;bottom=1;" vertex="1" parent="-2n7A1uFH6f_V6zUvD9d-74">
          <mxGeometry y="30" width="180" height="30" as="geometry" />
        </mxCell>
        <mxCell id="-2n7A1uFH6f_V6zUvD9d-76" value="PK" style="shape=partialRectangle;connectable=0;fillColor=none;top=0;left=0;bottom=0;right=0;fontStyle=1;overflow=hidden;whiteSpace=wrap;html=1;" vertex="1" parent="-2n7A1uFH6f_V6zUvD9d-75">
          <mxGeometry width="30" height="30" as="geometry">
            <mxRectangle width="30" height="30" as="alternateBounds" />
          </mxGeometry>
        </mxCell>
        <mxCell id="-2n7A1uFH6f_V6zUvD9d-77" value="id" style="shape=partialRectangle;connectable=0;fillColor=none;top=0;left=0;bottom=0;right=0;align=left;spacingLeft=6;fontStyle=5;overflow=hidden;whiteSpace=wrap;html=1;" vertex="1" parent="-2n7A1uFH6f_V6zUvD9d-75">
          <mxGeometry x="30" width="150" height="30" as="geometry">
            <mxRectangle width="150" height="30" as="alternateBounds" />
          </mxGeometry>
        </mxCell>
        <mxCell id="-2n7A1uFH6f_V6zUvD9d-78" value="" style="shape=tableRow;horizontal=0;startSize=0;swimlaneHead=0;swimlaneBody=0;fillColor=none;collapsible=0;dropTarget=0;points=[[0,0.5],[1,0.5]];portConstraint=eastwest;top=0;left=0;right=0;bottom=0;" vertex="1" parent="-2n7A1uFH6f_V6zUvD9d-74">
          <mxGeometry y="60" width="180" height="30" as="geometry" />
        </mxCell>
        <mxCell id="-2n7A1uFH6f_V6zUvD9d-79" value="" style="shape=partialRectangle;connectable=0;fillColor=none;top=0;left=0;bottom=0;right=0;editable=1;overflow=hidden;whiteSpace=wrap;html=1;" vertex="1" parent="-2n7A1uFH6f_V6zUvD9d-78">
          <mxGeometry width="30" height="30" as="geometry">
            <mxRectangle width="30" height="30" as="alternateBounds" />
          </mxGeometry>
        </mxCell>
        <mxCell id="-2n7A1uFH6f_V6zUvD9d-80" value="data" style="shape=partialRectangle;connectable=0;fillColor=none;top=0;left=0;bottom=0;right=0;align=left;spacingLeft=6;overflow=hidden;whiteSpace=wrap;html=1;" vertex="1" parent="-2n7A1uFH6f_V6zUvD9d-78">
          <mxGeometry x="30" width="150" height="30" as="geometry">
            <mxRectangle width="150" height="30" as="alternateBounds" />
          </mxGeometry>
        </mxCell>
        <mxCell id="-2n7A1uFH6f_V6zUvD9d-81" value="" style="shape=tableRow;horizontal=0;startSize=0;swimlaneHead=0;swimlaneBody=0;fillColor=none;collapsible=0;dropTarget=0;points=[[0,0.5],[1,0.5]];portConstraint=eastwest;top=0;left=0;right=0;bottom=0;" vertex="1" parent="-2n7A1uFH6f_V6zUvD9d-74">
          <mxGeometry y="90" width="180" height="30" as="geometry" />
        </mxCell>
        <mxCell id="-2n7A1uFH6f_V6zUvD9d-82" value="" style="shape=partialRectangle;connectable=0;fillColor=none;top=0;left=0;bottom=0;right=0;editable=1;overflow=hidden;whiteSpace=wrap;html=1;" vertex="1" parent="-2n7A1uFH6f_V6zUvD9d-81">
          <mxGeometry width="30" height="30" as="geometry">
            <mxRectangle width="30" height="30" as="alternateBounds" />
          </mxGeometry>
        </mxCell>
        <mxCell id="-2n7A1uFH6f_V6zUvD9d-83" value="hora" style="shape=partialRectangle;connectable=0;fillColor=none;top=0;left=0;bottom=0;right=0;align=left;spacingLeft=6;overflow=hidden;whiteSpace=wrap;html=1;" vertex="1" parent="-2n7A1uFH6f_V6zUvD9d-81">
          <mxGeometry x="30" width="150" height="30" as="geometry">
            <mxRectangle width="150" height="30" as="alternateBounds" />
          </mxGeometry>
        </mxCell>
        <mxCell id="-2n7A1uFH6f_V6zUvD9d-84" value="" style="shape=tableRow;horizontal=0;startSize=0;swimlaneHead=0;swimlaneBody=0;fillColor=none;collapsible=0;dropTarget=0;points=[[0,0.5],[1,0.5]];portConstraint=eastwest;top=0;left=0;right=0;bottom=0;" vertex="1" parent="-2n7A1uFH6f_V6zUvD9d-74">
          <mxGeometry y="120" width="180" height="30" as="geometry" />
        </mxCell>
        <mxCell id="-2n7A1uFH6f_V6zUvD9d-85" value="" style="shape=partialRectangle;connectable=0;fillColor=none;top=0;left=0;bottom=0;right=0;editable=1;overflow=hidden;whiteSpace=wrap;html=1;" vertex="1" parent="-2n7A1uFH6f_V6zUvD9d-84">
          <mxGeometry width="30" height="30" as="geometry">
            <mxRectangle width="30" height="30" as="alternateBounds" />
          </mxGeometry>
        </mxCell>
        <mxCell id="-2n7A1uFH6f_V6zUvD9d-86" value="valor" style="shape=partialRectangle;connectable=0;fillColor=none;top=0;left=0;bottom=0;right=0;align=left;spacingLeft=6;overflow=hidden;whiteSpace=wrap;html=1;" vertex="1" parent="-2n7A1uFH6f_V6zUvD9d-84">
          <mxGeometry x="30" width="150" height="30" as="geometry">
            <mxRectangle width="150" height="30" as="alternateBounds" />
          </mxGeometry>
        </mxCell>
        <mxCell id="-2n7A1uFH6f_V6zUvD9d-87" style="shape=tableRow;horizontal=0;startSize=0;swimlaneHead=0;swimlaneBody=0;fillColor=none;collapsible=0;dropTarget=0;points=[[0,0.5],[1,0.5]];portConstraint=eastwest;top=0;left=0;right=0;bottom=0;" vertex="1" parent="-2n7A1uFH6f_V6zUvD9d-74">
          <mxGeometry y="150" width="180" height="30" as="geometry" />
        </mxCell>
        <mxCell id="-2n7A1uFH6f_V6zUvD9d-88" value="FK" style="shape=partialRectangle;connectable=0;fillColor=none;top=0;left=0;bottom=0;right=0;editable=1;overflow=hidden;whiteSpace=wrap;html=1;" vertex="1" parent="-2n7A1uFH6f_V6zUvD9d-87">
          <mxGeometry width="30" height="30" as="geometry">
            <mxRectangle width="30" height="30" as="alternateBounds" />
          </mxGeometry>
        </mxCell>
        <mxCell id="-2n7A1uFH6f_V6zUvD9d-89" value="&lt;div&gt;&lt;span style=&quot;background-color: initial;&quot;&gt;numCedulaMedico&lt;/span&gt;&lt;/div&gt;" style="shape=partialRectangle;connectable=0;fillColor=none;top=0;left=0;bottom=0;right=0;align=left;spacingLeft=6;overflow=hidden;whiteSpace=wrap;html=1;" vertex="1" parent="-2n7A1uFH6f_V6zUvD9d-87">
          <mxGeometry x="30" width="150" height="30" as="geometry">
            <mxRectangle width="150" height="30" as="alternateBounds" />
          </mxGeometry>
        </mxCell>
        <mxCell id="-2n7A1uFH6f_V6zUvD9d-90" style="shape=tableRow;horizontal=0;startSize=0;swimlaneHead=0;swimlaneBody=0;fillColor=none;collapsible=0;dropTarget=0;points=[[0,0.5],[1,0.5]];portConstraint=eastwest;top=0;left=0;right=0;bottom=0;" vertex="1" parent="-2n7A1uFH6f_V6zUvD9d-74">
          <mxGeometry y="180" width="180" height="30" as="geometry" />
        </mxCell>
        <mxCell id="-2n7A1uFH6f_V6zUvD9d-91" value="FK" style="shape=partialRectangle;connectable=0;fillColor=none;top=0;left=0;bottom=0;right=0;editable=1;overflow=hidden;whiteSpace=wrap;html=1;" vertex="1" parent="-2n7A1uFH6f_V6zUvD9d-90">
          <mxGeometry width="30" height="30" as="geometry">
            <mxRectangle width="30" height="30" as="alternateBounds" />
          </mxGeometry>
        </mxCell>
        <mxCell id="-2n7A1uFH6f_V6zUvD9d-92" value="numUtentePaciente" style="shape=partialRectangle;connectable=0;fillColor=none;top=0;left=0;bottom=0;right=0;align=left;spacingLeft=6;overflow=hidden;whiteSpace=wrap;html=1;" vertex="1" parent="-2n7A1uFH6f_V6zUvD9d-90">
          <mxGeometry x="30" width="150" height="30" as="geometry">
            <mxRectangle width="150" height="30" as="alternateBounds" />
          </mxGeometry>
        </mxCell>
        <mxCell id="-2n7A1uFH6f_V6zUvD9d-93" value="Paciente" style="shape=table;startSize=30;container=1;collapsible=1;childLayout=tableLayout;fixedRows=1;rowLines=0;fontStyle=1;align=center;resizeLast=1;html=1;" vertex="1" parent="1">
          <mxGeometry x="632" y="1580" width="180" height="120" as="geometry" />
        </mxCell>
        <mxCell id="-2n7A1uFH6f_V6zUvD9d-94" value="" style="shape=tableRow;horizontal=0;startSize=0;swimlaneHead=0;swimlaneBody=0;fillColor=none;collapsible=0;dropTarget=0;points=[[0,0.5],[1,0.5]];portConstraint=eastwest;top=0;left=0;right=0;bottom=1;" vertex="1" parent="-2n7A1uFH6f_V6zUvD9d-93">
          <mxGeometry y="30" width="180" height="30" as="geometry" />
        </mxCell>
        <mxCell id="-2n7A1uFH6f_V6zUvD9d-95" value="PK" style="shape=partialRectangle;connectable=0;fillColor=none;top=0;left=0;bottom=0;right=0;fontStyle=1;overflow=hidden;whiteSpace=wrap;html=1;" vertex="1" parent="-2n7A1uFH6f_V6zUvD9d-94">
          <mxGeometry width="30" height="30" as="geometry">
            <mxRectangle width="30" height="30" as="alternateBounds" />
          </mxGeometry>
        </mxCell>
        <mxCell id="-2n7A1uFH6f_V6zUvD9d-96" value="numUtente" style="shape=partialRectangle;connectable=0;fillColor=none;top=0;left=0;bottom=0;right=0;align=left;spacingLeft=6;fontStyle=5;overflow=hidden;whiteSpace=wrap;html=1;" vertex="1" parent="-2n7A1uFH6f_V6zUvD9d-94">
          <mxGeometry x="30" width="150" height="30" as="geometry">
            <mxRectangle width="150" height="30" as="alternateBounds" />
          </mxGeometry>
        </mxCell>
        <mxCell id="-2n7A1uFH6f_V6zUvD9d-97" value="" style="shape=tableRow;horizontal=0;startSize=0;swimlaneHead=0;swimlaneBody=0;fillColor=none;collapsible=0;dropTarget=0;points=[[0,0.5],[1,0.5]];portConstraint=eastwest;top=0;left=0;right=0;bottom=0;" vertex="1" parent="-2n7A1uFH6f_V6zUvD9d-93">
          <mxGeometry y="60" width="180" height="30" as="geometry" />
        </mxCell>
        <mxCell id="-2n7A1uFH6f_V6zUvD9d-98" value="" style="shape=partialRectangle;connectable=0;fillColor=none;top=0;left=0;bottom=0;right=0;editable=1;overflow=hidden;whiteSpace=wrap;html=1;" vertex="1" parent="-2n7A1uFH6f_V6zUvD9d-97">
          <mxGeometry width="30" height="30" as="geometry">
            <mxRectangle width="30" height="30" as="alternateBounds" />
          </mxGeometry>
        </mxCell>
        <mxCell id="-2n7A1uFH6f_V6zUvD9d-99" value="nome" style="shape=partialRectangle;connectable=0;fillColor=none;top=0;left=0;bottom=0;right=0;align=left;spacingLeft=6;overflow=hidden;whiteSpace=wrap;html=1;" vertex="1" parent="-2n7A1uFH6f_V6zUvD9d-97">
          <mxGeometry x="30" width="150" height="30" as="geometry">
            <mxRectangle width="150" height="30" as="alternateBounds" />
          </mxGeometry>
        </mxCell>
        <mxCell id="-2n7A1uFH6f_V6zUvD9d-100" value="" style="shape=tableRow;horizontal=0;startSize=0;swimlaneHead=0;swimlaneBody=0;fillColor=none;collapsible=0;dropTarget=0;points=[[0,0.5],[1,0.5]];portConstraint=eastwest;top=0;left=0;right=0;bottom=0;" vertex="1" parent="-2n7A1uFH6f_V6zUvD9d-93">
          <mxGeometry y="90" width="180" height="30" as="geometry" />
        </mxCell>
        <mxCell id="-2n7A1uFH6f_V6zUvD9d-101" value="" style="shape=partialRectangle;connectable=0;fillColor=none;top=0;left=0;bottom=0;right=0;editable=1;overflow=hidden;whiteSpace=wrap;html=1;" vertex="1" parent="-2n7A1uFH6f_V6zUvD9d-100">
          <mxGeometry width="30" height="30" as="geometry">
            <mxRectangle width="30" height="30" as="alternateBounds" />
          </mxGeometry>
        </mxCell>
        <mxCell id="-2n7A1uFH6f_V6zUvD9d-102" value="telefone" style="shape=partialRectangle;connectable=0;fillColor=none;top=0;left=0;bottom=0;right=0;align=left;spacingLeft=6;overflow=hidden;whiteSpace=wrap;html=1;" vertex="1" parent="-2n7A1uFH6f_V6zUvD9d-100">
          <mxGeometry x="30" width="150" height="30" as="geometry">
            <mxRectangle width="150" height="30" as="alternateBounds" />
          </mxGeometry>
        </mxCell>
        <mxCell id="-2n7A1uFH6f_V6zUvD9d-103" value="Especialidade" style="shape=table;startSize=30;container=1;collapsible=1;childLayout=tableLayout;fixedRows=1;rowLines=0;fontStyle=1;align=center;resizeLast=1;html=1;" vertex="1" parent="1">
          <mxGeometry x="118.5" y="1810" width="180" height="90" as="geometry" />
        </mxCell>
        <mxCell id="-2n7A1uFH6f_V6zUvD9d-104" value="" style="shape=tableRow;horizontal=0;startSize=0;swimlaneHead=0;swimlaneBody=0;fillColor=none;collapsible=0;dropTarget=0;points=[[0,0.5],[1,0.5]];portConstraint=eastwest;top=0;left=0;right=0;bottom=1;" vertex="1" parent="-2n7A1uFH6f_V6zUvD9d-103">
          <mxGeometry y="30" width="180" height="30" as="geometry" />
        </mxCell>
        <mxCell id="-2n7A1uFH6f_V6zUvD9d-105" value="PK" style="shape=partialRectangle;connectable=0;fillColor=none;top=0;left=0;bottom=0;right=0;fontStyle=1;overflow=hidden;whiteSpace=wrap;html=1;" vertex="1" parent="-2n7A1uFH6f_V6zUvD9d-104">
          <mxGeometry width="30" height="30" as="geometry">
            <mxRectangle width="30" height="30" as="alternateBounds" />
          </mxGeometry>
        </mxCell>
        <mxCell id="-2n7A1uFH6f_V6zUvD9d-106" value="cod" style="shape=partialRectangle;connectable=0;fillColor=none;top=0;left=0;bottom=0;right=0;align=left;spacingLeft=6;fontStyle=5;overflow=hidden;whiteSpace=wrap;html=1;" vertex="1" parent="-2n7A1uFH6f_V6zUvD9d-104">
          <mxGeometry x="30" width="150" height="30" as="geometry">
            <mxRectangle width="150" height="30" as="alternateBounds" />
          </mxGeometry>
        </mxCell>
        <mxCell id="-2n7A1uFH6f_V6zUvD9d-107" value="" style="shape=tableRow;horizontal=0;startSize=0;swimlaneHead=0;swimlaneBody=0;fillColor=none;collapsible=0;dropTarget=0;points=[[0,0.5],[1,0.5]];portConstraint=eastwest;top=0;left=0;right=0;bottom=0;" vertex="1" parent="-2n7A1uFH6f_V6zUvD9d-103">
          <mxGeometry y="60" width="180" height="30" as="geometry" />
        </mxCell>
        <mxCell id="-2n7A1uFH6f_V6zUvD9d-108" value="" style="shape=partialRectangle;connectable=0;fillColor=none;top=0;left=0;bottom=0;right=0;editable=1;overflow=hidden;whiteSpace=wrap;html=1;" vertex="1" parent="-2n7A1uFH6f_V6zUvD9d-107">
          <mxGeometry width="30" height="30" as="geometry">
            <mxRectangle width="30" height="30" as="alternateBounds" />
          </mxGeometry>
        </mxCell>
        <mxCell id="-2n7A1uFH6f_V6zUvD9d-109" value="nome" style="shape=partialRectangle;connectable=0;fillColor=none;top=0;left=0;bottom=0;right=0;align=left;spacingLeft=6;overflow=hidden;whiteSpace=wrap;html=1;" vertex="1" parent="-2n7A1uFH6f_V6zUvD9d-107">
          <mxGeometry x="30" width="150" height="30" as="geometry">
            <mxRectangle width="150" height="30" as="alternateBounds" />
          </mxGeometry>
        </mxCell>
        <mxCell id="-2n7A1uFH6f_V6zUvD9d-110" style="edgeStyle=orthogonalEdgeStyle;rounded=0;orthogonalLoop=1;jettySize=auto;html=1;startArrow=ERzeroToMany;startFill=0;endArrow=ERmandOne;endFill=0;" edge="1" parent="1" source="-2n7A1uFH6f_V6zUvD9d-90" target="-2n7A1uFH6f_V6zUvD9d-94">
          <mxGeometry relative="1" as="geometry" />
        </mxCell>
        <mxCell id="-2n7A1uFH6f_V6zUvD9d-111" style="edgeStyle=orthogonalEdgeStyle;rounded=0;orthogonalLoop=1;jettySize=auto;html=1;exitX=1;exitY=0.5;exitDx=0;exitDy=0;startArrow=ERzeroToMany;startFill=0;endArrow=ERmandOne;endFill=0;" edge="1" parent="1" source="-2n7A1uFH6f_V6zUvD9d-71" target="-2n7A1uFH6f_V6zUvD9d-104">
          <mxGeometry relative="1" as="geometry" />
        </mxCell>
        <mxCell id="-2n7A1uFH6f_V6zUvD9d-112" value="Especialidade" style="whiteSpace=wrap;html=1;align=center;fontFamily=Helvetica;fontSize=11;labelBackgroundColor=none;fillColor=#d5e8d4;strokeColor=#82b366;" vertex="1" parent="1">
          <mxGeometry x="15" y="1310" width="100" height="40" as="geometry" />
        </mxCell>
        <mxCell id="-2n7A1uFH6f_V6zUvD9d-113" style="edgeStyle=orthogonalEdgeStyle;rounded=0;orthogonalLoop=1;jettySize=auto;html=1;endArrow=ERzeroToMany;endFill=0;startArrow=ERmandOne;startFill=0;" edge="1" parent="1" source="-2n7A1uFH6f_V6zUvD9d-62" target="-2n7A1uFH6f_V6zUvD9d-87">
          <mxGeometry relative="1" as="geometry" />
        </mxCell>
        <mxCell id="-2n7A1uFH6f_V6zUvD9d-600" value="&lt;span data-teams=&quot;true&quot;&gt;&lt;span style=&quot;font-family: -apple-system, BlinkMacSystemFont, &amp;quot;Segoe UI&amp;quot;, system-ui, &amp;quot;Apple Color Emoji&amp;quot;, &amp;quot;Segoe UI Emoji&amp;quot;, &amp;quot;Segoe UI Web&amp;quot;, sans-serif; font-size: 14px; white-space-collapse: preserve;&quot;&gt;&lt;p&gt;3. Um hotel pretende ter uma base de dados para guardar as reservas feitas por clientes. Um cliente pode reservar um ou mais quartos. Para cada cliente quer-se guardar o nome, o NIF e a nacionalidades. Para cada quarto é necessário guardar o número do quarto (que neste hotel é único de quarto para quarto) e o número de camas. Nas reservas, quer-se guardar em base de dados a data e o número de noites.&lt;/p&gt;&amp;nbsp;&lt;/span&gt;&lt;/span&gt;" style="text;strokeColor=none;fillColor=none;spacingLeft=4;spacingRight=4;overflow=hidden;rotatable=0;points=[[0,0.5],[1,0.5]];portConstraint=eastwest;fontSize=11;whiteSpace=wrap;html=1;fontFamily=Helvetica;fontColor=default;labelBackgroundColor=default;" vertex="1" parent="1">
          <mxGeometry x="860" y="80" width="600" height="120" as="geometry" />
        </mxCell>
        <mxCell id="-2n7A1uFH6f_V6zUvD9d-601" style="edgeStyle=orthogonalEdgeStyle;shape=connector;rounded=0;orthogonalLoop=1;jettySize=auto;html=1;strokeColor=#82b366;align=center;verticalAlign=middle;fontFamily=Helvetica;fontSize=11;fontColor=default;labelBackgroundColor=none;endArrow=none;endFill=0;startArrow=ERone;startFill=0;fillColor=#d5e8d4;" edge="1" parent="1" source="-2n7A1uFH6f_V6zUvD9d-602" target="-2n7A1uFH6f_V6zUvD9d-617">
          <mxGeometry relative="1" as="geometry" />
        </mxCell>
        <mxCell id="-2n7A1uFH6f_V6zUvD9d-602" value="Cliente" style="whiteSpace=wrap;html=1;align=center;fontFamily=Helvetica;fontSize=11;labelBackgroundColor=none;fillColor=#d5e8d4;strokeColor=#82b366;" vertex="1" parent="1">
          <mxGeometry x="1120" y="310" width="80" height="40" as="geometry" />
        </mxCell>
        <mxCell id="-2n7A1uFH6f_V6zUvD9d-603" style="edgeStyle=orthogonalEdgeStyle;shape=connector;rounded=0;orthogonalLoop=1;jettySize=auto;html=1;strokeColor=#82b366;align=center;verticalAlign=middle;fontFamily=Helvetica;fontSize=11;fontColor=default;labelBackgroundColor=default;endArrow=none;endFill=0;startArrow=ERmany;startFill=0;fillColor=#d5e8d4;" edge="1" parent="1" source="-2n7A1uFH6f_V6zUvD9d-604" target="-2n7A1uFH6f_V6zUvD9d-623">
          <mxGeometry relative="1" as="geometry" />
        </mxCell>
        <mxCell id="-2n7A1uFH6f_V6zUvD9d-604" value="Quarto" style="whiteSpace=wrap;html=1;align=center;fontFamily=Helvetica;fontSize=11;labelBackgroundColor=none;fillColor=#d5e8d4;strokeColor=#82b366;" vertex="1" parent="1">
          <mxGeometry x="990" y="470" width="80" height="40" as="geometry" />
        </mxCell>
        <mxCell id="-2n7A1uFH6f_V6zUvD9d-605" style="shape=connector;rounded=0;orthogonalLoop=1;jettySize=auto;html=1;strokeColor=#82b366;align=center;verticalAlign=middle;fontFamily=Helvetica;fontSize=11;fontColor=default;labelBackgroundColor=none;endArrow=none;endFill=0;fillColor=#d5e8d4;" edge="1" parent="1" source="-2n7A1uFH6f_V6zUvD9d-606" target="-2n7A1uFH6f_V6zUvD9d-602">
          <mxGeometry relative="1" as="geometry" />
        </mxCell>
        <mxCell id="-2n7A1uFH6f_V6zUvD9d-606" value="Nome" style="ellipse;whiteSpace=wrap;html=1;align=center;fontFamily=Helvetica;fontSize=11;labelBackgroundColor=none;fillColor=#d5e8d4;strokeColor=#82b366;" vertex="1" parent="1">
          <mxGeometry x="1120" y="230" width="80" height="40" as="geometry" />
        </mxCell>
        <mxCell id="-2n7A1uFH6f_V6zUvD9d-607" style="shape=connector;rounded=0;orthogonalLoop=1;jettySize=auto;html=1;strokeColor=#82b366;align=center;verticalAlign=middle;fontFamily=Helvetica;fontSize=11;fontColor=default;labelBackgroundColor=none;endArrow=none;endFill=0;fillColor=#d5e8d4;" edge="1" parent="1" source="-2n7A1uFH6f_V6zUvD9d-608" target="-2n7A1uFH6f_V6zUvD9d-602">
          <mxGeometry relative="1" as="geometry" />
        </mxCell>
        <mxCell id="-2n7A1uFH6f_V6zUvD9d-608" value="Nacionalidade" style="ellipse;whiteSpace=wrap;html=1;align=center;fontFamily=Helvetica;fontSize=11;labelBackgroundColor=none;fillColor=#d5e8d4;strokeColor=#82b366;" vertex="1" parent="1">
          <mxGeometry x="1200" y="270" width="80" height="40" as="geometry" />
        </mxCell>
        <mxCell id="-2n7A1uFH6f_V6zUvD9d-609" style="shape=connector;rounded=0;orthogonalLoop=1;jettySize=auto;html=1;strokeColor=#82b366;align=center;verticalAlign=middle;fontFamily=Helvetica;fontSize=11;fontColor=default;labelBackgroundColor=none;endArrow=none;endFill=0;fillColor=#d5e8d4;" edge="1" parent="1" source="-2n7A1uFH6f_V6zUvD9d-610" target="-2n7A1uFH6f_V6zUvD9d-602">
          <mxGeometry relative="1" as="geometry" />
        </mxCell>
        <mxCell id="-2n7A1uFH6f_V6zUvD9d-610" value="NIF" style="ellipse;whiteSpace=wrap;html=1;align=center;fontFamily=Helvetica;fontSize=11;labelBackgroundColor=none;fillColor=#d5e8d4;strokeColor=#82b366;" vertex="1" parent="1">
          <mxGeometry x="1040" y="270" width="80" height="40" as="geometry" />
        </mxCell>
        <mxCell id="-2n7A1uFH6f_V6zUvD9d-611" style="shape=connector;rounded=0;orthogonalLoop=1;jettySize=auto;html=1;strokeColor=#82b366;align=center;verticalAlign=middle;fontFamily=Helvetica;fontSize=11;fontColor=default;labelBackgroundColor=none;endArrow=none;endFill=0;fillColor=#d5e8d4;" edge="1" parent="1" source="-2n7A1uFH6f_V6zUvD9d-612" target="-2n7A1uFH6f_V6zUvD9d-604">
          <mxGeometry relative="1" as="geometry" />
        </mxCell>
        <mxCell id="-2n7A1uFH6f_V6zUvD9d-612" value="Número" style="ellipse;whiteSpace=wrap;html=1;align=center;fontFamily=Helvetica;fontSize=11;labelBackgroundColor=none;strokeColor=#82b366;verticalAlign=middle;fontStyle=4;fillColor=#d5e8d4;" vertex="1" parent="1">
          <mxGeometry x="910" y="510" width="80" height="40" as="geometry" />
        </mxCell>
        <mxCell id="-2n7A1uFH6f_V6zUvD9d-613" style="shape=connector;rounded=0;orthogonalLoop=1;jettySize=auto;html=1;strokeColor=#82b366;align=center;verticalAlign=middle;fontFamily=Helvetica;fontSize=11;fontColor=default;labelBackgroundColor=none;endArrow=none;endFill=0;fillColor=#d5e8d4;" edge="1" parent="1" source="-2n7A1uFH6f_V6zUvD9d-614" target="-2n7A1uFH6f_V6zUvD9d-604">
          <mxGeometry relative="1" as="geometry" />
        </mxCell>
        <mxCell id="-2n7A1uFH6f_V6zUvD9d-614" value="Camas" style="ellipse;whiteSpace=wrap;html=1;align=center;fontFamily=Helvetica;fontSize=11;labelBackgroundColor=none;fillColor=#d5e8d4;strokeColor=#82b366;" vertex="1" parent="1">
          <mxGeometry x="1070" y="510" width="80" height="40" as="geometry" />
        </mxCell>
        <mxCell id="-2n7A1uFH6f_V6zUvD9d-615" value="Reserva" style="whiteSpace=wrap;html=1;align=center;fontFamily=Helvetica;fontSize=11;labelBackgroundColor=none;fillColor=#d5e8d4;strokeColor=#82b366;" vertex="1" parent="1">
          <mxGeometry x="1340" y="470" width="80" height="40" as="geometry" />
        </mxCell>
        <mxCell id="-2n7A1uFH6f_V6zUvD9d-616" style="edgeStyle=orthogonalEdgeStyle;shape=connector;rounded=0;orthogonalLoop=1;jettySize=auto;html=1;strokeColor=#82b366;align=center;verticalAlign=middle;fontFamily=Helvetica;fontSize=11;fontColor=default;labelBackgroundColor=none;endArrow=ERmany;endFill=0;fillColor=#d5e8d4;" edge="1" parent="1" source="-2n7A1uFH6f_V6zUvD9d-617" target="-2n7A1uFH6f_V6zUvD9d-615">
          <mxGeometry relative="1" as="geometry" />
        </mxCell>
        <mxCell id="-2n7A1uFH6f_V6zUvD9d-617" value="Faz" style="shape=rhombus;perimeter=rhombusPerimeter;whiteSpace=wrap;html=1;align=center;fontFamily=Helvetica;fontSize=11;labelBackgroundColor=none;fillColor=#d5e8d4;strokeColor=#82b366;" vertex="1" parent="1">
          <mxGeometry x="1320" y="300" width="120" height="60" as="geometry" />
        </mxCell>
        <mxCell id="-2n7A1uFH6f_V6zUvD9d-618" style="shape=connector;rounded=0;orthogonalLoop=1;jettySize=auto;html=1;strokeColor=#82b366;align=center;verticalAlign=middle;fontFamily=Helvetica;fontSize=11;fontColor=default;labelBackgroundColor=none;endArrow=none;endFill=0;fillColor=#d5e8d4;" edge="1" parent="1" source="-2n7A1uFH6f_V6zUvD9d-619" target="-2n7A1uFH6f_V6zUvD9d-615">
          <mxGeometry relative="1" as="geometry" />
        </mxCell>
        <mxCell id="-2n7A1uFH6f_V6zUvD9d-619" value="Data" style="ellipse;whiteSpace=wrap;html=1;align=center;fontFamily=Helvetica;fontSize=11;labelBackgroundColor=none;fillColor=#d5e8d4;strokeColor=#82b366;" vertex="1" parent="1">
          <mxGeometry x="1420" y="510" width="80" height="40" as="geometry" />
        </mxCell>
        <mxCell id="-2n7A1uFH6f_V6zUvD9d-620" style="shape=connector;rounded=0;orthogonalLoop=1;jettySize=auto;html=1;strokeColor=#82b366;align=center;verticalAlign=middle;fontFamily=Helvetica;fontSize=11;fontColor=default;labelBackgroundColor=none;endArrow=none;endFill=0;fillColor=#d5e8d4;" edge="1" parent="1" source="-2n7A1uFH6f_V6zUvD9d-621" target="-2n7A1uFH6f_V6zUvD9d-615">
          <mxGeometry relative="1" as="geometry" />
        </mxCell>
        <mxCell id="-2n7A1uFH6f_V6zUvD9d-621" value="Noites" style="ellipse;whiteSpace=wrap;html=1;align=center;fontFamily=Helvetica;fontSize=11;labelBackgroundColor=none;fillColor=#d5e8d4;strokeColor=#82b366;" vertex="1" parent="1">
          <mxGeometry x="1420" y="430" width="80" height="40" as="geometry" />
        </mxCell>
        <mxCell id="-2n7A1uFH6f_V6zUvD9d-622" style="edgeStyle=orthogonalEdgeStyle;shape=connector;rounded=0;orthogonalLoop=1;jettySize=auto;html=1;strokeColor=#82b366;align=center;verticalAlign=middle;fontFamily=Helvetica;fontSize=11;fontColor=default;labelBackgroundColor=default;endArrow=ERmany;endFill=0;fillColor=#d5e8d4;" edge="1" parent="1" source="-2n7A1uFH6f_V6zUvD9d-623" target="-2n7A1uFH6f_V6zUvD9d-615">
          <mxGeometry relative="1" as="geometry" />
        </mxCell>
        <mxCell id="-2n7A1uFH6f_V6zUvD9d-623" value="Tem" style="shape=rhombus;perimeter=rhombusPerimeter;whiteSpace=wrap;html=1;align=center;fontFamily=Helvetica;fontSize=11;labelBackgroundColor=none;fillColor=#d5e8d4;strokeColor=#82b366;" vertex="1" parent="1">
          <mxGeometry x="1160" y="460" width="120" height="60" as="geometry" />
        </mxCell>
        <mxCell id="-2n7A1uFH6f_V6zUvD9d-624" value="Quarto" style="shape=table;startSize=30;container=1;collapsible=1;childLayout=tableLayout;fixedRows=1;rowLines=0;fontStyle=1;align=center;resizeLast=1;html=1;" vertex="1" parent="1">
          <mxGeometry x="900" y="600" width="180" height="90" as="geometry" />
        </mxCell>
        <mxCell id="-2n7A1uFH6f_V6zUvD9d-625" value="" style="shape=tableRow;horizontal=0;startSize=0;swimlaneHead=0;swimlaneBody=0;fillColor=none;collapsible=0;dropTarget=0;points=[[0,0.5],[1,0.5]];portConstraint=eastwest;top=0;left=0;right=0;bottom=1;" vertex="1" parent="-2n7A1uFH6f_V6zUvD9d-624">
          <mxGeometry y="30" width="180" height="30" as="geometry" />
        </mxCell>
        <mxCell id="-2n7A1uFH6f_V6zUvD9d-626" value="PK" style="shape=partialRectangle;connectable=0;fillColor=none;top=0;left=0;bottom=0;right=0;fontStyle=1;overflow=hidden;whiteSpace=wrap;html=1;" vertex="1" parent="-2n7A1uFH6f_V6zUvD9d-625">
          <mxGeometry width="30" height="30" as="geometry">
            <mxRectangle width="30" height="30" as="alternateBounds" />
          </mxGeometry>
        </mxCell>
        <mxCell id="-2n7A1uFH6f_V6zUvD9d-627" value="numero" style="shape=partialRectangle;connectable=0;fillColor=none;top=0;left=0;bottom=0;right=0;align=left;spacingLeft=6;fontStyle=5;overflow=hidden;whiteSpace=wrap;html=1;" vertex="1" parent="-2n7A1uFH6f_V6zUvD9d-625">
          <mxGeometry x="30" width="150" height="30" as="geometry">
            <mxRectangle width="150" height="30" as="alternateBounds" />
          </mxGeometry>
        </mxCell>
        <mxCell id="-2n7A1uFH6f_V6zUvD9d-628" value="" style="shape=tableRow;horizontal=0;startSize=0;swimlaneHead=0;swimlaneBody=0;fillColor=none;collapsible=0;dropTarget=0;points=[[0,0.5],[1,0.5]];portConstraint=eastwest;top=0;left=0;right=0;bottom=0;" vertex="1" parent="-2n7A1uFH6f_V6zUvD9d-624">
          <mxGeometry y="60" width="180" height="30" as="geometry" />
        </mxCell>
        <mxCell id="-2n7A1uFH6f_V6zUvD9d-629" value="" style="shape=partialRectangle;connectable=0;fillColor=none;top=0;left=0;bottom=0;right=0;editable=1;overflow=hidden;whiteSpace=wrap;html=1;" vertex="1" parent="-2n7A1uFH6f_V6zUvD9d-628">
          <mxGeometry width="30" height="30" as="geometry">
            <mxRectangle width="30" height="30" as="alternateBounds" />
          </mxGeometry>
        </mxCell>
        <mxCell id="-2n7A1uFH6f_V6zUvD9d-630" value="camas" style="shape=partialRectangle;connectable=0;fillColor=none;top=0;left=0;bottom=0;right=0;align=left;spacingLeft=6;overflow=hidden;whiteSpace=wrap;html=1;" vertex="1" parent="-2n7A1uFH6f_V6zUvD9d-628">
          <mxGeometry x="30" width="150" height="30" as="geometry">
            <mxRectangle width="150" height="30" as="alternateBounds" />
          </mxGeometry>
        </mxCell>
        <mxCell id="-2n7A1uFH6f_V6zUvD9d-631" value="Reserva" style="shape=table;startSize=30;container=1;collapsible=1;childLayout=tableLayout;fixedRows=1;rowLines=0;fontStyle=1;align=center;resizeLast=1;html=1;" vertex="1" parent="1">
          <mxGeometry x="1420" y="600" width="180" height="150" as="geometry" />
        </mxCell>
        <mxCell id="-2n7A1uFH6f_V6zUvD9d-632" value="" style="shape=tableRow;horizontal=0;startSize=0;swimlaneHead=0;swimlaneBody=0;fillColor=none;collapsible=0;dropTarget=0;points=[[0,0.5],[1,0.5]];portConstraint=eastwest;top=0;left=0;right=0;bottom=1;" vertex="1" parent="-2n7A1uFH6f_V6zUvD9d-631">
          <mxGeometry y="30" width="180" height="30" as="geometry" />
        </mxCell>
        <mxCell id="-2n7A1uFH6f_V6zUvD9d-633" value="PK" style="shape=partialRectangle;connectable=0;fillColor=none;top=0;left=0;bottom=0;right=0;fontStyle=1;overflow=hidden;whiteSpace=wrap;html=1;" vertex="1" parent="-2n7A1uFH6f_V6zUvD9d-632">
          <mxGeometry width="30" height="30" as="geometry">
            <mxRectangle width="30" height="30" as="alternateBounds" />
          </mxGeometry>
        </mxCell>
        <mxCell id="-2n7A1uFH6f_V6zUvD9d-634" value="numero" style="shape=partialRectangle;connectable=0;fillColor=none;top=0;left=0;bottom=0;right=0;align=left;spacingLeft=6;fontStyle=5;overflow=hidden;whiteSpace=wrap;html=1;" vertex="1" parent="-2n7A1uFH6f_V6zUvD9d-632">
          <mxGeometry x="30" width="150" height="30" as="geometry">
            <mxRectangle width="150" height="30" as="alternateBounds" />
          </mxGeometry>
        </mxCell>
        <mxCell id="-2n7A1uFH6f_V6zUvD9d-635" value="" style="shape=tableRow;horizontal=0;startSize=0;swimlaneHead=0;swimlaneBody=0;fillColor=none;collapsible=0;dropTarget=0;points=[[0,0.5],[1,0.5]];portConstraint=eastwest;top=0;left=0;right=0;bottom=0;" vertex="1" parent="-2n7A1uFH6f_V6zUvD9d-631">
          <mxGeometry y="60" width="180" height="30" as="geometry" />
        </mxCell>
        <mxCell id="-2n7A1uFH6f_V6zUvD9d-636" value="" style="shape=partialRectangle;connectable=0;fillColor=none;top=0;left=0;bottom=0;right=0;editable=1;overflow=hidden;whiteSpace=wrap;html=1;" vertex="1" parent="-2n7A1uFH6f_V6zUvD9d-635">
          <mxGeometry width="30" height="30" as="geometry">
            <mxRectangle width="30" height="30" as="alternateBounds" />
          </mxGeometry>
        </mxCell>
        <mxCell id="-2n7A1uFH6f_V6zUvD9d-637" value="data (dd/mm/yyyy)" style="shape=partialRectangle;connectable=0;fillColor=none;top=0;left=0;bottom=0;right=0;align=left;spacingLeft=6;overflow=hidden;whiteSpace=wrap;html=1;" vertex="1" parent="-2n7A1uFH6f_V6zUvD9d-635">
          <mxGeometry x="30" width="150" height="30" as="geometry">
            <mxRectangle width="150" height="30" as="alternateBounds" />
          </mxGeometry>
        </mxCell>
        <mxCell id="-2n7A1uFH6f_V6zUvD9d-638" value="" style="shape=tableRow;horizontal=0;startSize=0;swimlaneHead=0;swimlaneBody=0;fillColor=none;collapsible=0;dropTarget=0;points=[[0,0.5],[1,0.5]];portConstraint=eastwest;top=0;left=0;right=0;bottom=0;" vertex="1" parent="-2n7A1uFH6f_V6zUvD9d-631">
          <mxGeometry y="90" width="180" height="30" as="geometry" />
        </mxCell>
        <mxCell id="-2n7A1uFH6f_V6zUvD9d-639" value="" style="shape=partialRectangle;connectable=0;fillColor=none;top=0;left=0;bottom=0;right=0;editable=1;overflow=hidden;whiteSpace=wrap;html=1;" vertex="1" parent="-2n7A1uFH6f_V6zUvD9d-638">
          <mxGeometry width="30" height="30" as="geometry">
            <mxRectangle width="30" height="30" as="alternateBounds" />
          </mxGeometry>
        </mxCell>
        <mxCell id="-2n7A1uFH6f_V6zUvD9d-640" value="noites" style="shape=partialRectangle;connectable=0;fillColor=none;top=0;left=0;bottom=0;right=0;align=left;spacingLeft=6;overflow=hidden;whiteSpace=wrap;html=1;" vertex="1" parent="-2n7A1uFH6f_V6zUvD9d-638">
          <mxGeometry x="30" width="150" height="30" as="geometry">
            <mxRectangle width="150" height="30" as="alternateBounds" />
          </mxGeometry>
        </mxCell>
        <mxCell id="-2n7A1uFH6f_V6zUvD9d-641" style="shape=tableRow;horizontal=0;startSize=0;swimlaneHead=0;swimlaneBody=0;fillColor=none;collapsible=0;dropTarget=0;points=[[0,0.5],[1,0.5]];portConstraint=eastwest;top=0;left=0;right=0;bottom=0;" vertex="1" parent="-2n7A1uFH6f_V6zUvD9d-631">
          <mxGeometry y="120" width="180" height="30" as="geometry" />
        </mxCell>
        <mxCell id="-2n7A1uFH6f_V6zUvD9d-642" value="FK" style="shape=partialRectangle;connectable=0;fillColor=none;top=0;left=0;bottom=0;right=0;editable=1;overflow=hidden;whiteSpace=wrap;html=1;" vertex="1" parent="-2n7A1uFH6f_V6zUvD9d-641">
          <mxGeometry width="30" height="30" as="geometry">
            <mxRectangle width="30" height="30" as="alternateBounds" />
          </mxGeometry>
        </mxCell>
        <mxCell id="-2n7A1uFH6f_V6zUvD9d-643" value="numCliente" style="shape=partialRectangle;connectable=0;fillColor=none;top=0;left=0;bottom=0;right=0;align=left;spacingLeft=6;overflow=hidden;whiteSpace=wrap;html=1;" vertex="1" parent="-2n7A1uFH6f_V6zUvD9d-641">
          <mxGeometry x="30" width="150" height="30" as="geometry">
            <mxRectangle width="150" height="30" as="alternateBounds" />
          </mxGeometry>
        </mxCell>
        <mxCell id="-2n7A1uFH6f_V6zUvD9d-644" value="Cliente" style="shape=table;startSize=30;container=1;collapsible=1;childLayout=tableLayout;fixedRows=1;rowLines=0;fontStyle=1;align=center;resizeLast=1;html=1;" vertex="1" parent="1">
          <mxGeometry x="1160" y="740" width="180" height="150" as="geometry" />
        </mxCell>
        <mxCell id="-2n7A1uFH6f_V6zUvD9d-645" value="" style="shape=tableRow;horizontal=0;startSize=0;swimlaneHead=0;swimlaneBody=0;fillColor=none;collapsible=0;dropTarget=0;points=[[0,0.5],[1,0.5]];portConstraint=eastwest;top=0;left=0;right=0;bottom=1;" vertex="1" parent="-2n7A1uFH6f_V6zUvD9d-644">
          <mxGeometry y="30" width="180" height="30" as="geometry" />
        </mxCell>
        <mxCell id="-2n7A1uFH6f_V6zUvD9d-646" value="PK" style="shape=partialRectangle;connectable=0;fillColor=none;top=0;left=0;bottom=0;right=0;fontStyle=1;overflow=hidden;whiteSpace=wrap;html=1;" vertex="1" parent="-2n7A1uFH6f_V6zUvD9d-645">
          <mxGeometry width="30" height="30" as="geometry">
            <mxRectangle width="30" height="30" as="alternateBounds" />
          </mxGeometry>
        </mxCell>
        <mxCell id="-2n7A1uFH6f_V6zUvD9d-647" value="numero" style="shape=partialRectangle;connectable=0;fillColor=none;top=0;left=0;bottom=0;right=0;align=left;spacingLeft=6;fontStyle=5;overflow=hidden;whiteSpace=wrap;html=1;" vertex="1" parent="-2n7A1uFH6f_V6zUvD9d-645">
          <mxGeometry x="30" width="150" height="30" as="geometry">
            <mxRectangle width="150" height="30" as="alternateBounds" />
          </mxGeometry>
        </mxCell>
        <mxCell id="-2n7A1uFH6f_V6zUvD9d-648" value="" style="shape=tableRow;horizontal=0;startSize=0;swimlaneHead=0;swimlaneBody=0;fillColor=none;collapsible=0;dropTarget=0;points=[[0,0.5],[1,0.5]];portConstraint=eastwest;top=0;left=0;right=0;bottom=0;" vertex="1" parent="-2n7A1uFH6f_V6zUvD9d-644">
          <mxGeometry y="60" width="180" height="30" as="geometry" />
        </mxCell>
        <mxCell id="-2n7A1uFH6f_V6zUvD9d-649" value="" style="shape=partialRectangle;connectable=0;fillColor=none;top=0;left=0;bottom=0;right=0;editable=1;overflow=hidden;whiteSpace=wrap;html=1;" vertex="1" parent="-2n7A1uFH6f_V6zUvD9d-648">
          <mxGeometry width="30" height="30" as="geometry">
            <mxRectangle width="30" height="30" as="alternateBounds" />
          </mxGeometry>
        </mxCell>
        <mxCell id="-2n7A1uFH6f_V6zUvD9d-650" value="nome" style="shape=partialRectangle;connectable=0;fillColor=none;top=0;left=0;bottom=0;right=0;align=left;spacingLeft=6;overflow=hidden;whiteSpace=wrap;html=1;" vertex="1" parent="-2n7A1uFH6f_V6zUvD9d-648">
          <mxGeometry x="30" width="150" height="30" as="geometry">
            <mxRectangle width="150" height="30" as="alternateBounds" />
          </mxGeometry>
        </mxCell>
        <mxCell id="-2n7A1uFH6f_V6zUvD9d-651" value="" style="shape=tableRow;horizontal=0;startSize=0;swimlaneHead=0;swimlaneBody=0;fillColor=none;collapsible=0;dropTarget=0;points=[[0,0.5],[1,0.5]];portConstraint=eastwest;top=0;left=0;right=0;bottom=0;" vertex="1" parent="-2n7A1uFH6f_V6zUvD9d-644">
          <mxGeometry y="90" width="180" height="30" as="geometry" />
        </mxCell>
        <mxCell id="-2n7A1uFH6f_V6zUvD9d-652" value="" style="shape=partialRectangle;connectable=0;fillColor=none;top=0;left=0;bottom=0;right=0;editable=1;overflow=hidden;whiteSpace=wrap;html=1;" vertex="1" parent="-2n7A1uFH6f_V6zUvD9d-651">
          <mxGeometry width="30" height="30" as="geometry">
            <mxRectangle width="30" height="30" as="alternateBounds" />
          </mxGeometry>
        </mxCell>
        <mxCell id="-2n7A1uFH6f_V6zUvD9d-653" value="nif" style="shape=partialRectangle;connectable=0;fillColor=none;top=0;left=0;bottom=0;right=0;align=left;spacingLeft=6;overflow=hidden;whiteSpace=wrap;html=1;" vertex="1" parent="-2n7A1uFH6f_V6zUvD9d-651">
          <mxGeometry x="30" width="150" height="30" as="geometry">
            <mxRectangle width="150" height="30" as="alternateBounds" />
          </mxGeometry>
        </mxCell>
        <mxCell id="-2n7A1uFH6f_V6zUvD9d-654" style="shape=tableRow;horizontal=0;startSize=0;swimlaneHead=0;swimlaneBody=0;fillColor=none;collapsible=0;dropTarget=0;points=[[0,0.5],[1,0.5]];portConstraint=eastwest;top=0;left=0;right=0;bottom=0;" vertex="1" parent="-2n7A1uFH6f_V6zUvD9d-644">
          <mxGeometry y="120" width="180" height="30" as="geometry" />
        </mxCell>
        <mxCell id="-2n7A1uFH6f_V6zUvD9d-655" style="shape=partialRectangle;connectable=0;fillColor=none;top=0;left=0;bottom=0;right=0;editable=1;overflow=hidden;whiteSpace=wrap;html=1;" vertex="1" parent="-2n7A1uFH6f_V6zUvD9d-654">
          <mxGeometry width="30" height="30" as="geometry">
            <mxRectangle width="30" height="30" as="alternateBounds" />
          </mxGeometry>
        </mxCell>
        <mxCell id="-2n7A1uFH6f_V6zUvD9d-656" value="nacionalidade" style="shape=partialRectangle;connectable=0;fillColor=none;top=0;left=0;bottom=0;right=0;align=left;spacingLeft=6;overflow=hidden;whiteSpace=wrap;html=1;" vertex="1" parent="-2n7A1uFH6f_V6zUvD9d-654">
          <mxGeometry x="30" width="150" height="30" as="geometry">
            <mxRectangle width="150" height="30" as="alternateBounds" />
          </mxGeometry>
        </mxCell>
        <mxCell id="-2n7A1uFH6f_V6zUvD9d-657" value="Quarto_Reserva" style="shape=table;startSize=30;container=1;collapsible=1;childLayout=tableLayout;fixedRows=1;rowLines=0;fontStyle=1;align=center;resizeLast=1;html=1;whiteSpace=wrap;" vertex="1" parent="1">
          <mxGeometry x="1160" y="600" width="180" height="120" as="geometry" />
        </mxCell>
        <mxCell id="-2n7A1uFH6f_V6zUvD9d-658" value="" style="shape=tableRow;horizontal=0;startSize=0;swimlaneHead=0;swimlaneBody=0;fillColor=none;collapsible=0;dropTarget=0;points=[[0,0.5],[1,0.5]];portConstraint=eastwest;top=0;left=0;right=0;bottom=0;html=1;" vertex="1" parent="-2n7A1uFH6f_V6zUvD9d-657">
          <mxGeometry y="30" width="180" height="30" as="geometry" />
        </mxCell>
        <mxCell id="-2n7A1uFH6f_V6zUvD9d-659" value="PK,FK1" style="shape=partialRectangle;connectable=0;fillColor=none;top=0;left=0;bottom=0;right=0;fontStyle=1;overflow=hidden;html=1;whiteSpace=wrap;" vertex="1" parent="-2n7A1uFH6f_V6zUvD9d-658">
          <mxGeometry width="60" height="30" as="geometry">
            <mxRectangle width="60" height="30" as="alternateBounds" />
          </mxGeometry>
        </mxCell>
        <mxCell id="-2n7A1uFH6f_V6zUvD9d-660" value="numQuarto" style="shape=partialRectangle;connectable=0;fillColor=none;top=0;left=0;bottom=0;right=0;align=left;spacingLeft=6;fontStyle=5;overflow=hidden;html=1;whiteSpace=wrap;" vertex="1" parent="-2n7A1uFH6f_V6zUvD9d-658">
          <mxGeometry x="60" width="120" height="30" as="geometry">
            <mxRectangle width="120" height="30" as="alternateBounds" />
          </mxGeometry>
        </mxCell>
        <mxCell id="-2n7A1uFH6f_V6zUvD9d-661" value="" style="shape=tableRow;horizontal=0;startSize=0;swimlaneHead=0;swimlaneBody=0;fillColor=none;collapsible=0;dropTarget=0;points=[[0,0.5],[1,0.5]];portConstraint=eastwest;top=0;left=0;right=0;bottom=1;html=1;" vertex="1" parent="-2n7A1uFH6f_V6zUvD9d-657">
          <mxGeometry y="60" width="180" height="30" as="geometry" />
        </mxCell>
        <mxCell id="-2n7A1uFH6f_V6zUvD9d-662" value="PK,FK2" style="shape=partialRectangle;connectable=0;fillColor=none;top=0;left=0;bottom=0;right=0;fontStyle=1;overflow=hidden;html=1;whiteSpace=wrap;" vertex="1" parent="-2n7A1uFH6f_V6zUvD9d-661">
          <mxGeometry width="60" height="30" as="geometry">
            <mxRectangle width="60" height="30" as="alternateBounds" />
          </mxGeometry>
        </mxCell>
        <mxCell id="-2n7A1uFH6f_V6zUvD9d-663" value="numReserva" style="shape=partialRectangle;connectable=0;fillColor=none;top=0;left=0;bottom=0;right=0;align=left;spacingLeft=6;fontStyle=5;overflow=hidden;html=1;whiteSpace=wrap;" vertex="1" parent="-2n7A1uFH6f_V6zUvD9d-661">
          <mxGeometry x="60" width="120" height="30" as="geometry">
            <mxRectangle width="120" height="30" as="alternateBounds" />
          </mxGeometry>
        </mxCell>
        <mxCell id="-2n7A1uFH6f_V6zUvD9d-664" value="" style="shape=tableRow;horizontal=0;startSize=0;swimlaneHead=0;swimlaneBody=0;fillColor=none;collapsible=0;dropTarget=0;points=[[0,0.5],[1,0.5]];portConstraint=eastwest;top=0;left=0;right=0;bottom=0;html=1;" vertex="1" parent="-2n7A1uFH6f_V6zUvD9d-657">
          <mxGeometry y="90" width="180" height="30" as="geometry" />
        </mxCell>
        <mxCell id="-2n7A1uFH6f_V6zUvD9d-665" value="" style="shape=partialRectangle;connectable=0;fillColor=none;top=0;left=0;bottom=0;right=0;editable=1;overflow=hidden;html=1;whiteSpace=wrap;" vertex="1" parent="-2n7A1uFH6f_V6zUvD9d-664">
          <mxGeometry width="60" height="30" as="geometry">
            <mxRectangle width="60" height="30" as="alternateBounds" />
          </mxGeometry>
        </mxCell>
        <mxCell id="-2n7A1uFH6f_V6zUvD9d-666" value="" style="shape=partialRectangle;connectable=0;fillColor=none;top=0;left=0;bottom=0;right=0;align=left;spacingLeft=6;overflow=hidden;html=1;whiteSpace=wrap;" vertex="1" parent="-2n7A1uFH6f_V6zUvD9d-664">
          <mxGeometry x="60" width="120" height="30" as="geometry">
            <mxRectangle width="120" height="30" as="alternateBounds" />
          </mxGeometry>
        </mxCell>
        <mxCell id="-2n7A1uFH6f_V6zUvD9d-667" style="edgeStyle=orthogonalEdgeStyle;rounded=0;orthogonalLoop=1;jettySize=auto;html=1;endArrow=ERzeroToMany;endFill=0;startArrow=ERmandOne;startFill=0;" edge="1" parent="1" source="-2n7A1uFH6f_V6zUvD9d-625" target="-2n7A1uFH6f_V6zUvD9d-658">
          <mxGeometry relative="1" as="geometry" />
        </mxCell>
        <mxCell id="-2n7A1uFH6f_V6zUvD9d-668" style="edgeStyle=orthogonalEdgeStyle;rounded=0;orthogonalLoop=1;jettySize=auto;html=1;startArrow=ERzeroToMany;startFill=0;endArrow=ERmandOne;endFill=0;" edge="1" parent="1" source="-2n7A1uFH6f_V6zUvD9d-661" target="-2n7A1uFH6f_V6zUvD9d-632">
          <mxGeometry relative="1" as="geometry" />
        </mxCell>
        <mxCell id="-2n7A1uFH6f_V6zUvD9d-669" style="edgeStyle=orthogonalEdgeStyle;rounded=0;orthogonalLoop=1;jettySize=auto;html=1;endArrow=ERmandOne;endFill=0;startArrow=ERoneToMany;startFill=0;" edge="1" parent="1" source="-2n7A1uFH6f_V6zUvD9d-641" target="-2n7A1uFH6f_V6zUvD9d-645">
          <mxGeometry relative="1" as="geometry" />
        </mxCell>
        <mxCell id="-2n7A1uFH6f_V6zUvD9d-670" value="&lt;span data-teams=&quot;true&quot;&gt;&lt;span style=&quot;font-family: -apple-system, BlinkMacSystemFont, &amp;quot;Segoe UI&amp;quot;, system-ui, &amp;quot;Apple Color Emoji&amp;quot;, &amp;quot;Segoe UI Emoji&amp;quot;, &amp;quot;Segoe UI Web&amp;quot;, sans-serif; white-space-collapse: preserve;&quot;&gt;&lt;p&gt;&lt;strong style=&quot;font-family: Helvetica; white-space-collapse: collapse;&quot;&gt;Exercício 4.&lt;/strong&gt;&lt;span style=&quot;font-family: Helvetica; white-space-collapse: collapse;&quot;&gt; Uma discográfica deseja registar os vários álbuns produzidos numa base de dados. Cada álbum pode ter várias músicas. Quer-se guardar nos álbuns o nome e o ano de lançamento. Cada música pode ter vários artistas. E quer-se guardar nas músicas o nome, a data de lançamento e o estilo musical. Um artista por sua vez, pode atuar em várias músicas. Para os artistas quer-se armazenar o nome, data de nascimento e o NIF.&lt;/span&gt;&amp;nbsp;&lt;/p&gt;&lt;/span&gt;&lt;/span&gt;" style="text;strokeColor=none;fillColor=none;spacingLeft=4;spacingRight=4;overflow=hidden;rotatable=0;points=[[0,0.5],[1,0.5]];portConstraint=eastwest;fontSize=14;whiteSpace=wrap;html=1;fontFamily=Helvetica;fontColor=default;labelBackgroundColor=default;" vertex="1" parent="1">
          <mxGeometry x="1705" y="40" width="600" height="120" as="geometry" />
        </mxCell>
        <mxCell id="-2n7A1uFH6f_V6zUvD9d-671" style="edgeStyle=orthogonalEdgeStyle;shape=connector;rounded=0;orthogonalLoop=1;jettySize=auto;html=1;strokeColor=default;align=center;verticalAlign=middle;fontFamily=Helvetica;fontSize=11;fontColor=default;labelBackgroundColor=default;endArrow=none;endFill=0;startArrow=ERone;startFill=0;" edge="1" parent="1" source="-2n7A1uFH6f_V6zUvD9d-673" target="-2n7A1uFH6f_V6zUvD9d-696">
          <mxGeometry relative="1" as="geometry" />
        </mxCell>
        <mxCell id="-2n7A1uFH6f_V6zUvD9d-672" style="edgeStyle=orthogonalEdgeStyle;shape=connector;rounded=0;orthogonalLoop=1;jettySize=auto;html=1;strokeColor=default;align=center;verticalAlign=middle;fontFamily=Helvetica;fontSize=11;fontColor=default;labelBackgroundColor=default;endArrow=none;endFill=0;startArrow=ERmany;startFill=0;" edge="1" parent="1" source="-2n7A1uFH6f_V6zUvD9d-673" target="-2n7A1uFH6f_V6zUvD9d-698">
          <mxGeometry relative="1" as="geometry" />
        </mxCell>
        <mxCell id="-2n7A1uFH6f_V6zUvD9d-673" value="Álbum&amp;nbsp;" style="whiteSpace=wrap;html=1;align=center;" vertex="1" parent="1">
          <mxGeometry x="2029" y="300" width="120" height="40" as="geometry" />
        </mxCell>
        <mxCell id="-2n7A1uFH6f_V6zUvD9d-674" style="edgeStyle=orthogonalEdgeStyle;shape=connector;rounded=0;orthogonalLoop=1;jettySize=auto;html=1;strokeColor=default;align=center;verticalAlign=middle;fontFamily=Helvetica;fontSize=11;fontColor=default;labelBackgroundColor=default;endArrow=none;endFill=0;startArrow=ERmany;startFill=0;" edge="1" parent="1" source="-2n7A1uFH6f_V6zUvD9d-675" target="-2n7A1uFH6f_V6zUvD9d-700">
          <mxGeometry relative="1" as="geometry" />
        </mxCell>
        <mxCell id="-2n7A1uFH6f_V6zUvD9d-675" value="Música" style="whiteSpace=wrap;html=1;align=center;" vertex="1" parent="1">
          <mxGeometry x="1779" y="410" width="120" height="40" as="geometry" />
        </mxCell>
        <mxCell id="-2n7A1uFH6f_V6zUvD9d-676" value="Artista" style="whiteSpace=wrap;html=1;align=center;" vertex="1" parent="1">
          <mxGeometry x="2259" y="410" width="120" height="40" as="geometry" />
        </mxCell>
        <mxCell id="-2n7A1uFH6f_V6zUvD9d-677" style="rounded=0;orthogonalLoop=1;jettySize=auto;html=1;strokeColor=default;endArrow=none;endFill=0;" edge="1" parent="1" source="-2n7A1uFH6f_V6zUvD9d-678" target="-2n7A1uFH6f_V6zUvD9d-673">
          <mxGeometry relative="1" as="geometry" />
        </mxCell>
        <mxCell id="-2n7A1uFH6f_V6zUvD9d-678" value="Nome" style="ellipse;whiteSpace=wrap;html=1;align=center;" vertex="1" parent="1">
          <mxGeometry x="1949" y="240" width="80" height="40" as="geometry" />
        </mxCell>
        <mxCell id="-2n7A1uFH6f_V6zUvD9d-679" style="rounded=0;orthogonalLoop=1;jettySize=auto;html=1;strokeColor=default;endArrow=none;endFill=0;" edge="1" parent="1" source="-2n7A1uFH6f_V6zUvD9d-680" target="-2n7A1uFH6f_V6zUvD9d-673">
          <mxGeometry relative="1" as="geometry" />
        </mxCell>
        <mxCell id="-2n7A1uFH6f_V6zUvD9d-680" value="Ano&lt;div&gt;Lançamento&lt;/div&gt;" style="ellipse;whiteSpace=wrap;html=1;align=center;" vertex="1" parent="1">
          <mxGeometry x="2029" y="200" width="120" height="40" as="geometry" />
        </mxCell>
        <mxCell id="-2n7A1uFH6f_V6zUvD9d-681" style="rounded=0;orthogonalLoop=1;jettySize=auto;html=1;strokeColor=default;endArrow=none;endFill=0;" edge="1" parent="1" source="-2n7A1uFH6f_V6zUvD9d-682" target="-2n7A1uFH6f_V6zUvD9d-673">
          <mxGeometry relative="1" as="geometry" />
        </mxCell>
        <mxCell id="-2n7A1uFH6f_V6zUvD9d-682" value="Estilo" style="ellipse;whiteSpace=wrap;html=1;align=center;" vertex="1" parent="1">
          <mxGeometry x="2149" y="240" width="80" height="40" as="geometry" />
        </mxCell>
        <mxCell id="-2n7A1uFH6f_V6zUvD9d-683" style="edgeStyle=none;shape=connector;rounded=0;orthogonalLoop=1;jettySize=auto;html=1;strokeColor=default;align=center;verticalAlign=middle;fontFamily=Helvetica;fontSize=11;fontColor=default;labelBackgroundColor=default;endArrow=none;endFill=0;" edge="1" parent="1" source="-2n7A1uFH6f_V6zUvD9d-684" target="-2n7A1uFH6f_V6zUvD9d-675">
          <mxGeometry relative="1" as="geometry" />
        </mxCell>
        <mxCell id="-2n7A1uFH6f_V6zUvD9d-684" value="Nome" style="ellipse;whiteSpace=wrap;html=1;align=center;" vertex="1" parent="1">
          <mxGeometry x="1699" y="470" width="80" height="40" as="geometry" />
        </mxCell>
        <mxCell id="-2n7A1uFH6f_V6zUvD9d-685" style="edgeStyle=none;shape=connector;rounded=0;orthogonalLoop=1;jettySize=auto;html=1;strokeColor=default;align=center;verticalAlign=middle;fontFamily=Helvetica;fontSize=11;fontColor=default;labelBackgroundColor=default;endArrow=none;endFill=0;" edge="1" parent="1" source="-2n7A1uFH6f_V6zUvD9d-686" target="-2n7A1uFH6f_V6zUvD9d-675">
          <mxGeometry relative="1" as="geometry" />
        </mxCell>
        <mxCell id="-2n7A1uFH6f_V6zUvD9d-686" value="Ano&lt;div&gt;Lançamento&lt;/div&gt;" style="ellipse;whiteSpace=wrap;html=1;align=center;" vertex="1" parent="1">
          <mxGeometry x="1779" y="520" width="120" height="40" as="geometry" />
        </mxCell>
        <mxCell id="-2n7A1uFH6f_V6zUvD9d-687" style="edgeStyle=none;shape=connector;rounded=0;orthogonalLoop=1;jettySize=auto;html=1;strokeColor=default;align=center;verticalAlign=middle;fontFamily=Helvetica;fontSize=11;fontColor=default;labelBackgroundColor=default;endArrow=none;endFill=0;" edge="1" parent="1" source="-2n7A1uFH6f_V6zUvD9d-688" target="-2n7A1uFH6f_V6zUvD9d-675">
          <mxGeometry relative="1" as="geometry" />
        </mxCell>
        <mxCell id="-2n7A1uFH6f_V6zUvD9d-688" value="Estilo" style="ellipse;whiteSpace=wrap;html=1;align=center;" vertex="1" parent="1">
          <mxGeometry x="1899" y="470" width="80" height="40" as="geometry" />
        </mxCell>
        <mxCell id="-2n7A1uFH6f_V6zUvD9d-689" style="edgeStyle=none;shape=connector;rounded=0;orthogonalLoop=1;jettySize=auto;html=1;strokeColor=default;align=center;verticalAlign=middle;fontFamily=Helvetica;fontSize=11;fontColor=default;labelBackgroundColor=default;endArrow=none;endFill=0;" edge="1" parent="1" source="-2n7A1uFH6f_V6zUvD9d-690" target="-2n7A1uFH6f_V6zUvD9d-676">
          <mxGeometry relative="1" as="geometry" />
        </mxCell>
        <mxCell id="-2n7A1uFH6f_V6zUvD9d-690" value="Nome" style="ellipse;whiteSpace=wrap;html=1;align=center;" vertex="1" parent="1">
          <mxGeometry x="2179" y="470" width="80" height="40" as="geometry" />
        </mxCell>
        <mxCell id="-2n7A1uFH6f_V6zUvD9d-691" style="edgeStyle=none;shape=connector;rounded=0;orthogonalLoop=1;jettySize=auto;html=1;strokeColor=default;align=center;verticalAlign=middle;fontFamily=Helvetica;fontSize=11;fontColor=default;labelBackgroundColor=default;endArrow=none;endFill=0;" edge="1" parent="1" source="-2n7A1uFH6f_V6zUvD9d-692" target="-2n7A1uFH6f_V6zUvD9d-676">
          <mxGeometry relative="1" as="geometry" />
        </mxCell>
        <mxCell id="-2n7A1uFH6f_V6zUvD9d-692" value="NIF" style="ellipse;whiteSpace=wrap;html=1;align=center;" vertex="1" parent="1">
          <mxGeometry x="2379" y="470" width="80" height="40" as="geometry" />
        </mxCell>
        <mxCell id="-2n7A1uFH6f_V6zUvD9d-693" style="edgeStyle=none;shape=connector;rounded=0;orthogonalLoop=1;jettySize=auto;html=1;strokeColor=default;align=center;verticalAlign=middle;fontFamily=Helvetica;fontSize=11;fontColor=default;labelBackgroundColor=default;endArrow=none;endFill=0;" edge="1" parent="1" source="-2n7A1uFH6f_V6zUvD9d-694" target="-2n7A1uFH6f_V6zUvD9d-676">
          <mxGeometry relative="1" as="geometry" />
        </mxCell>
        <mxCell id="-2n7A1uFH6f_V6zUvD9d-694" value="Data&lt;div&gt;Nascimento&lt;/div&gt;" style="ellipse;whiteSpace=wrap;html=1;align=center;" vertex="1" parent="1">
          <mxGeometry x="2259" y="520" width="120" height="40" as="geometry" />
        </mxCell>
        <mxCell id="-2n7A1uFH6f_V6zUvD9d-695" style="edgeStyle=orthogonalEdgeStyle;shape=connector;rounded=0;orthogonalLoop=1;jettySize=auto;html=1;strokeColor=default;align=center;verticalAlign=middle;fontFamily=Helvetica;fontSize=11;fontColor=default;labelBackgroundColor=default;endArrow=ERmany;endFill=0;" edge="1" parent="1" source="-2n7A1uFH6f_V6zUvD9d-696" target="-2n7A1uFH6f_V6zUvD9d-675">
          <mxGeometry relative="1" as="geometry" />
        </mxCell>
        <mxCell id="-2n7A1uFH6f_V6zUvD9d-696" value="Contém" style="shape=rhombus;perimeter=rhombusPerimeter;whiteSpace=wrap;html=1;align=center;fontFamily=Helvetica;fontSize=11;fontColor=default;labelBackgroundColor=default;" vertex="1" parent="1">
          <mxGeometry x="1779" y="290" width="120" height="60" as="geometry" />
        </mxCell>
        <mxCell id="-2n7A1uFH6f_V6zUvD9d-697" style="edgeStyle=orthogonalEdgeStyle;shape=connector;rounded=0;orthogonalLoop=1;jettySize=auto;html=1;strokeColor=default;align=center;verticalAlign=middle;fontFamily=Helvetica;fontSize=11;fontColor=default;labelBackgroundColor=default;endArrow=ERmany;endFill=0;" edge="1" parent="1" source="-2n7A1uFH6f_V6zUvD9d-698" target="-2n7A1uFH6f_V6zUvD9d-676">
          <mxGeometry relative="1" as="geometry" />
        </mxCell>
        <mxCell id="-2n7A1uFH6f_V6zUvD9d-698" value="Tem" style="shape=rhombus;perimeter=rhombusPerimeter;whiteSpace=wrap;html=1;align=center;fontFamily=Helvetica;fontSize=11;fontColor=default;labelBackgroundColor=default;" vertex="1" parent="1">
          <mxGeometry x="2259" y="290" width="120" height="60" as="geometry" />
        </mxCell>
        <mxCell id="-2n7A1uFH6f_V6zUvD9d-699" style="edgeStyle=orthogonalEdgeStyle;shape=connector;rounded=0;orthogonalLoop=1;jettySize=auto;html=1;strokeColor=default;align=center;verticalAlign=middle;fontFamily=Helvetica;fontSize=11;fontColor=default;labelBackgroundColor=default;endArrow=ERmany;endFill=0;" edge="1" parent="1" source="-2n7A1uFH6f_V6zUvD9d-700" target="-2n7A1uFH6f_V6zUvD9d-676">
          <mxGeometry relative="1" as="geometry" />
        </mxCell>
        <mxCell id="-2n7A1uFH6f_V6zUvD9d-700" value="Producir" style="shape=rhombus;perimeter=rhombusPerimeter;whiteSpace=wrap;html=1;align=center;fontFamily=Helvetica;fontSize=11;fontColor=default;labelBackgroundColor=default;" vertex="1" parent="1">
          <mxGeometry x="2029" y="400" width="120" height="60" as="geometry" />
        </mxCell>
        <mxCell id="-2n7A1uFH6f_V6zUvD9d-701" value="" style="edgeStyle=orthogonalEdgeStyle;shape=connector;rounded=0;orthogonalLoop=1;jettySize=auto;html=1;strokeColor=#82b366;align=center;verticalAlign=middle;fontFamily=Helvetica;fontSize=11;fontColor=default;labelBackgroundColor=none;endArrow=none;endFill=0;fillColor=#d5e8d4;startArrow=ERone;startFill=0;" edge="1" parent="1" source="-2n7A1uFH6f_V6zUvD9d-702" target="-2n7A1uFH6f_V6zUvD9d-705">
          <mxGeometry relative="1" as="geometry" />
        </mxCell>
        <mxCell id="-2n7A1uFH6f_V6zUvD9d-702" value="Avião" style="whiteSpace=wrap;html=1;align=center;fontFamily=Helvetica;fontSize=11;labelBackgroundColor=none;fillColor=#d5e8d4;strokeColor=#82b366;" vertex="1" parent="1">
          <mxGeometry x="1798" y="640" width="100" height="40" as="geometry" />
        </mxCell>
        <mxCell id="-2n7A1uFH6f_V6zUvD9d-703" value="Voos" style="whiteSpace=wrap;html=1;align=center;fontFamily=Helvetica;fontSize=11;labelBackgroundColor=none;fillColor=#d5e8d4;strokeColor=#82b366;" vertex="1" parent="1">
          <mxGeometry x="2224" y="640" width="100" height="40" as="geometry" />
        </mxCell>
        <mxCell id="-2n7A1uFH6f_V6zUvD9d-704" value="" style="edgeStyle=orthogonalEdgeStyle;shape=connector;rounded=0;orthogonalLoop=1;jettySize=auto;html=1;strokeColor=#82b366;align=center;verticalAlign=middle;fontFamily=Helvetica;fontSize=11;fontColor=default;labelBackgroundColor=none;endArrow=ERmany;endFill=0;fillColor=#d5e8d4;" edge="1" parent="1" source="-2n7A1uFH6f_V6zUvD9d-705" target="-2n7A1uFH6f_V6zUvD9d-703">
          <mxGeometry relative="1" as="geometry" />
        </mxCell>
        <mxCell id="-2n7A1uFH6f_V6zUvD9d-705" value="Faz" style="shape=rhombus;perimeter=rhombusPerimeter;whiteSpace=wrap;html=1;align=center;fontFamily=Helvetica;fontSize=11;labelBackgroundColor=none;fillColor=#d5e8d4;strokeColor=#82b366;" vertex="1" parent="1">
          <mxGeometry x="1991.5" y="630" width="120" height="60" as="geometry" />
        </mxCell>
        <mxCell id="-2n7A1uFH6f_V6zUvD9d-706" style="shape=connector;rounded=0;orthogonalLoop=1;jettySize=auto;html=1;strokeColor=#82b366;align=center;verticalAlign=middle;fontFamily=Helvetica;fontSize=11;fontColor=default;labelBackgroundColor=none;endArrow=none;endFill=0;fillColor=#d5e8d4;" edge="1" parent="1" source="-2n7A1uFH6f_V6zUvD9d-707" target="-2n7A1uFH6f_V6zUvD9d-702">
          <mxGeometry relative="1" as="geometry" />
        </mxCell>
        <mxCell id="-2n7A1uFH6f_V6zUvD9d-707" value="Matrícula" style="ellipse;whiteSpace=wrap;html=1;align=center;fontFamily=Helvetica;fontSize=11;labelBackgroundColor=none;fillColor=#d5e8d4;strokeColor=#82b366;" vertex="1" parent="1">
          <mxGeometry x="1685" y="690" width="100" height="40" as="geometry" />
        </mxCell>
        <mxCell id="-2n7A1uFH6f_V6zUvD9d-708" style="shape=connector;rounded=0;orthogonalLoop=1;jettySize=auto;html=1;strokeColor=#82b366;align=center;verticalAlign=middle;fontFamily=Helvetica;fontSize=11;fontColor=default;labelBackgroundColor=none;endArrow=none;endFill=0;fillColor=#d5e8d4;" edge="1" parent="1" source="-2n7A1uFH6f_V6zUvD9d-709" target="-2n7A1uFH6f_V6zUvD9d-702">
          <mxGeometry relative="1" as="geometry" />
        </mxCell>
        <mxCell id="-2n7A1uFH6f_V6zUvD9d-709" value="Autonomia&amp;nbsp;" style="ellipse;whiteSpace=wrap;html=1;align=center;fontFamily=Helvetica;fontSize=11;labelBackgroundColor=none;fillColor=#d5e8d4;strokeColor=#82b366;" vertex="1" parent="1">
          <mxGeometry x="1885" y="720" width="100" height="40" as="geometry" />
        </mxCell>
        <mxCell id="-2n7A1uFH6f_V6zUvD9d-710" style="shape=connector;rounded=0;orthogonalLoop=1;jettySize=auto;html=1;strokeColor=default;align=center;verticalAlign=middle;fontFamily=Helvetica;fontSize=11;fontColor=default;labelBackgroundColor=default;endArrow=none;endFill=0;" edge="1" parent="1" source="-2n7A1uFH6f_V6zUvD9d-711" target="-2n7A1uFH6f_V6zUvD9d-703">
          <mxGeometry relative="1" as="geometry" />
        </mxCell>
        <mxCell id="-2n7A1uFH6f_V6zUvD9d-711" value="Data" style="ellipse;whiteSpace=wrap;html=1;align=center;fontFamily=Helvetica;fontSize=11;labelBackgroundColor=none;fillColor=#d5e8d4;strokeColor=#82b366;" vertex="1" parent="1">
          <mxGeometry x="2125" y="710" width="100" height="40" as="geometry" />
        </mxCell>
        <mxCell id="-2n7A1uFH6f_V6zUvD9d-712" style="shape=connector;rounded=0;orthogonalLoop=1;jettySize=auto;html=1;strokeColor=default;align=center;verticalAlign=middle;fontFamily=Helvetica;fontSize=11;fontColor=default;labelBackgroundColor=default;endArrow=none;endFill=0;" edge="1" parent="1" source="-2n7A1uFH6f_V6zUvD9d-713" target="-2n7A1uFH6f_V6zUvD9d-703">
          <mxGeometry relative="1" as="geometry" />
        </mxCell>
        <mxCell id="-2n7A1uFH6f_V6zUvD9d-713" value="Numero&lt;div&gt;Referência&lt;/div&gt;" style="ellipse;whiteSpace=wrap;html=1;align=center;fontFamily=Helvetica;fontSize=11;labelBackgroundColor=none;fillColor=#d5e8d4;strokeColor=#82b366;" vertex="1" parent="1">
          <mxGeometry x="2305" y="710" width="100" height="40" as="geometry" />
        </mxCell>
        <mxCell id="-2n7A1uFH6f_V6zUvD9d-714" value="Avião" style="whiteSpace=wrap;html=1;align=center;fontFamily=Helvetica;fontSize=11;labelBackgroundColor=none;fillColor=#d5e8d4;strokeColor=#82b366;" vertex="1" parent="1">
          <mxGeometry x="1798" y="640" width="100" height="40" as="geometry" />
        </mxCell>
        <mxCell id="-2n7A1uFH6f_V6zUvD9d-715" style="shape=connector;rounded=0;orthogonalLoop=1;jettySize=auto;html=1;strokeColor=#82b366;align=center;verticalAlign=middle;fontFamily=Helvetica;fontSize=11;fontColor=default;labelBackgroundColor=none;endArrow=none;endFill=0;fillColor=#d5e8d4;" edge="1" parent="1" source="-2n7A1uFH6f_V6zUvD9d-716" target="-2n7A1uFH6f_V6zUvD9d-714">
          <mxGeometry relative="1" as="geometry" />
        </mxCell>
        <mxCell id="-2n7A1uFH6f_V6zUvD9d-716" value="Marca" style="ellipse;whiteSpace=wrap;html=1;align=center;fontFamily=Helvetica;fontSize=11;labelBackgroundColor=none;fillColor=#d5e8d4;strokeColor=#82b366;" vertex="1" parent="1">
          <mxGeometry x="1775" y="740" width="100" height="40" as="geometry" />
        </mxCell>
        <mxCell id="-2n7A1uFH6f_V6zUvD9d-717" style="shape=connector;rounded=0;orthogonalLoop=1;jettySize=auto;html=1;strokeColor=default;align=center;verticalAlign=middle;fontFamily=Helvetica;fontSize=11;fontColor=default;labelBackgroundColor=default;endArrow=none;endFill=0;" edge="1" parent="1" source="-2n7A1uFH6f_V6zUvD9d-718" target="-2n7A1uFH6f_V6zUvD9d-703">
          <mxGeometry relative="1" as="geometry" />
        </mxCell>
        <mxCell id="-2n7A1uFH6f_V6zUvD9d-718" value="Hora" style="ellipse;whiteSpace=wrap;html=1;align=center;fontFamily=Helvetica;fontSize=11;labelBackgroundColor=none;fillColor=#d5e8d4;strokeColor=#82b366;" vertex="1" parent="1">
          <mxGeometry x="2225" y="760" width="100" height="40" as="geometry" />
        </mxCell>
        <mxCell id="-2n7A1uFH6f_V6zUvD9d-719" value="Médico" style="whiteSpace=wrap;html=1;align=center;fontFamily=Helvetica;fontSize=11;labelBackgroundColor=none;fillColor=#d5e8d4;strokeColor=#82b366;" vertex="1" parent="1">
          <mxGeometry x="1840" y="1270" width="100" height="40" as="geometry" />
        </mxCell>
        <mxCell id="-2n7A1uFH6f_V6zUvD9d-720" value="" style="edgeStyle=orthogonalEdgeStyle;shape=connector;rounded=0;orthogonalLoop=1;jettySize=auto;html=1;strokeColor=default;align=center;verticalAlign=middle;fontFamily=Helvetica;fontSize=11;fontColor=default;labelBackgroundColor=default;endArrow=none;endFill=0;startArrow=ERone;startFill=0;" edge="1" parent="1" source="-2n7A1uFH6f_V6zUvD9d-719" target="-2n7A1uFH6f_V6zUvD9d-722">
          <mxGeometry relative="1" as="geometry" />
        </mxCell>
        <mxCell id="-2n7A1uFH6f_V6zUvD9d-721" value="" style="shape=connector;rounded=0;orthogonalLoop=1;jettySize=auto;html=1;strokeColor=default;align=center;verticalAlign=middle;fontFamily=Helvetica;fontSize=11;fontColor=default;labelBackgroundColor=default;endArrow=ERmany;endFill=0;" edge="1" parent="1" source="-2n7A1uFH6f_V6zUvD9d-722" target="-2n7A1uFH6f_V6zUvD9d-723">
          <mxGeometry relative="1" as="geometry" />
        </mxCell>
        <mxCell id="-2n7A1uFH6f_V6zUvD9d-722" value="Dá" style="shape=rhombus;perimeter=rhombusPerimeter;whiteSpace=wrap;html=1;align=center;fontFamily=Helvetica;fontSize=11;labelBackgroundColor=none;fillColor=#d5e8d4;strokeColor=#82b366;" vertex="1" parent="1">
          <mxGeometry x="2040" y="1260" width="120" height="60" as="geometry" />
        </mxCell>
        <mxCell id="-2n7A1uFH6f_V6zUvD9d-723" value="Consulta" style="whiteSpace=wrap;html=1;align=center;fontFamily=Helvetica;fontSize=11;labelBackgroundColor=none;fillColor=#d5e8d4;strokeColor=#82b366;" vertex="1" parent="1">
          <mxGeometry x="2230" y="1380" width="100" height="40" as="geometry" />
        </mxCell>
        <mxCell id="-2n7A1uFH6f_V6zUvD9d-724" value="" style="shape=connector;rounded=0;orthogonalLoop=1;jettySize=auto;html=1;strokeColor=default;align=center;verticalAlign=middle;fontFamily=Helvetica;fontSize=11;fontColor=default;labelBackgroundColor=default;endArrow=ERone;endFill=0;startArrow=ERmany;startFill=0;" edge="1" parent="1" source="-2n7A1uFH6f_V6zUvD9d-719" target="-2n7A1uFH6f_V6zUvD9d-812">
          <mxGeometry relative="1" as="geometry">
            <mxPoint x="1761.2347523777212" y="1354.3826238111396" as="targetPoint" />
          </mxGeometry>
        </mxCell>
        <mxCell id="-2n7A1uFH6f_V6zUvD9d-725" style="shape=connector;rounded=0;orthogonalLoop=1;jettySize=auto;html=1;strokeColor=default;align=center;verticalAlign=middle;fontFamily=Helvetica;fontSize=11;fontColor=default;labelBackgroundColor=default;endArrow=none;endFill=0;" edge="1" parent="1" source="-2n7A1uFH6f_V6zUvD9d-726" target="-2n7A1uFH6f_V6zUvD9d-723">
          <mxGeometry relative="1" as="geometry" />
        </mxCell>
        <mxCell id="-2n7A1uFH6f_V6zUvD9d-726" value="Data" style="ellipse;whiteSpace=wrap;html=1;align=center;fontFamily=Helvetica;fontSize=11;labelBackgroundColor=none;fillColor=#d5e8d4;strokeColor=#82b366;" vertex="1" parent="1">
          <mxGeometry x="2340" y="1440" width="100" height="40" as="geometry" />
        </mxCell>
        <mxCell id="-2n7A1uFH6f_V6zUvD9d-727" value="" style="shape=connector;rounded=0;orthogonalLoop=1;jettySize=auto;html=1;strokeColor=default;align=center;verticalAlign=middle;fontFamily=Helvetica;fontSize=11;fontColor=default;labelBackgroundColor=default;endArrow=none;endFill=0;" edge="1" parent="1" source="-2n7A1uFH6f_V6zUvD9d-728" target="-2n7A1uFH6f_V6zUvD9d-723">
          <mxGeometry relative="1" as="geometry" />
        </mxCell>
        <mxCell id="-2n7A1uFH6f_V6zUvD9d-728" value="Hora" style="ellipse;whiteSpace=wrap;html=1;align=center;fontFamily=Helvetica;fontSize=11;labelBackgroundColor=none;fillColor=#d5e8d4;strokeColor=#82b366;" vertex="1" parent="1">
          <mxGeometry x="2360" y="1380" width="100" height="40" as="geometry" />
        </mxCell>
        <mxCell id="-2n7A1uFH6f_V6zUvD9d-729" style="shape=connector;rounded=0;orthogonalLoop=1;jettySize=auto;html=1;strokeColor=default;align=center;verticalAlign=middle;fontFamily=Helvetica;fontSize=11;fontColor=default;labelBackgroundColor=default;endArrow=none;endFill=0;" edge="1" parent="1" source="-2n7A1uFH6f_V6zUvD9d-730" target="-2n7A1uFH6f_V6zUvD9d-723">
          <mxGeometry relative="1" as="geometry" />
        </mxCell>
        <mxCell id="-2n7A1uFH6f_V6zUvD9d-730" value="Valor" style="ellipse;whiteSpace=wrap;html=1;align=center;fontFamily=Helvetica;fontSize=11;labelBackgroundColor=none;fillColor=#d5e8d4;strokeColor=#82b366;" vertex="1" parent="1">
          <mxGeometry x="2320" y="1320" width="100" height="40" as="geometry" />
        </mxCell>
        <mxCell id="-2n7A1uFH6f_V6zUvD9d-731" value="" style="edgeStyle=orthogonalEdgeStyle;shape=connector;rounded=0;orthogonalLoop=1;jettySize=auto;html=1;strokeColor=default;align=center;verticalAlign=middle;fontFamily=Helvetica;fontSize=11;fontColor=default;labelBackgroundColor=default;endArrow=none;endFill=0;startArrow=ERone;startFill=0;" edge="1" parent="1" source="-2n7A1uFH6f_V6zUvD9d-732" target="-2n7A1uFH6f_V6zUvD9d-736">
          <mxGeometry relative="1" as="geometry" />
        </mxCell>
        <mxCell id="-2n7A1uFH6f_V6zUvD9d-732" value="Paciente" style="whiteSpace=wrap;html=1;align=center;fontFamily=Helvetica;fontSize=11;labelBackgroundColor=none;fillColor=#d5e8d4;strokeColor=#82b366;" vertex="1" parent="1">
          <mxGeometry x="1850" y="1470" width="100" height="40" as="geometry" />
        </mxCell>
        <mxCell id="-2n7A1uFH6f_V6zUvD9d-733" value="" style="shape=connector;rounded=0;orthogonalLoop=1;jettySize=auto;html=1;strokeColor=default;align=center;verticalAlign=middle;fontFamily=Helvetica;fontSize=11;fontColor=default;labelBackgroundColor=default;endArrow=none;endFill=0;" edge="1" parent="1" source="-2n7A1uFH6f_V6zUvD9d-734" target="-2n7A1uFH6f_V6zUvD9d-732">
          <mxGeometry relative="1" as="geometry" />
        </mxCell>
        <mxCell id="-2n7A1uFH6f_V6zUvD9d-734" value="Nome" style="ellipse;whiteSpace=wrap;html=1;align=center;fontFamily=Helvetica;fontSize=11;labelBackgroundColor=none;fillColor=#d5e8d4;strokeColor=#82b366;" vertex="1" parent="1">
          <mxGeometry x="1850" y="1530" width="100" height="40" as="geometry" />
        </mxCell>
        <mxCell id="-2n7A1uFH6f_V6zUvD9d-735" value="" style="shape=connector;rounded=0;orthogonalLoop=1;jettySize=auto;html=1;strokeColor=default;align=center;verticalAlign=middle;fontFamily=Helvetica;fontSize=11;fontColor=default;labelBackgroundColor=default;endArrow=ERmany;endFill=0;" edge="1" parent="1" source="-2n7A1uFH6f_V6zUvD9d-736" target="-2n7A1uFH6f_V6zUvD9d-723">
          <mxGeometry relative="1" as="geometry" />
        </mxCell>
        <mxCell id="-2n7A1uFH6f_V6zUvD9d-736" value="Solícita" style="shape=rhombus;perimeter=rhombusPerimeter;whiteSpace=wrap;html=1;align=center;fontFamily=Helvetica;fontSize=11;labelBackgroundColor=none;fillColor=#d5e8d4;strokeColor=#82b366;" vertex="1" parent="1">
          <mxGeometry x="2040" y="1460" width="120" height="60" as="geometry" />
        </mxCell>
        <mxCell id="-2n7A1uFH6f_V6zUvD9d-737" value="Aviao" style="shape=table;startSize=40;container=1;collapsible=1;childLayout=tableLayout;fixedRows=1;rowLines=0;fontStyle=1;align=center;resizeLast=1;html=1;whiteSpace=wrap;" vertex="1" parent="1">
          <mxGeometry x="1712" y="830" width="273" height="130" as="geometry">
            <mxRectangle x="81" y="240" width="70" height="40" as="alternateBounds" />
          </mxGeometry>
        </mxCell>
        <mxCell id="-2n7A1uFH6f_V6zUvD9d-738" value="" style="shape=tableRow;horizontal=0;startSize=0;swimlaneHead=0;swimlaneBody=0;fillColor=none;collapsible=0;dropTarget=0;points=[[0,0.5],[1,0.5]];portConstraint=eastwest;top=0;left=0;right=0;bottom=1;html=1;" vertex="1" parent="-2n7A1uFH6f_V6zUvD9d-737">
          <mxGeometry y="40" width="273" height="30" as="geometry" />
        </mxCell>
        <mxCell id="-2n7A1uFH6f_V6zUvD9d-739" value="PK" style="shape=partialRectangle;connectable=0;fillColor=none;top=0;left=0;bottom=0;right=0;fontStyle=1;overflow=hidden;html=1;whiteSpace=wrap;" vertex="1" parent="-2n7A1uFH6f_V6zUvD9d-738">
          <mxGeometry width="53" height="30" as="geometry">
            <mxRectangle width="53" height="30" as="alternateBounds" />
          </mxGeometry>
        </mxCell>
        <mxCell id="-2n7A1uFH6f_V6zUvD9d-740" value="matricula" style="shape=partialRectangle;connectable=0;fillColor=none;top=0;left=0;bottom=0;right=0;align=left;spacingLeft=6;fontStyle=5;overflow=hidden;html=1;whiteSpace=wrap;" vertex="1" parent="-2n7A1uFH6f_V6zUvD9d-738">
          <mxGeometry x="53" width="220" height="30" as="geometry">
            <mxRectangle width="220" height="30" as="alternateBounds" />
          </mxGeometry>
        </mxCell>
        <mxCell id="-2n7A1uFH6f_V6zUvD9d-741" value="" style="shape=tableRow;horizontal=0;startSize=0;swimlaneHead=0;swimlaneBody=0;fillColor=none;collapsible=0;dropTarget=0;points=[[0,0.5],[1,0.5]];portConstraint=eastwest;top=0;left=0;right=0;bottom=0;html=1;" vertex="1" parent="-2n7A1uFH6f_V6zUvD9d-737">
          <mxGeometry y="70" width="273" height="30" as="geometry" />
        </mxCell>
        <mxCell id="-2n7A1uFH6f_V6zUvD9d-742" value="" style="shape=partialRectangle;connectable=0;fillColor=none;top=0;left=0;bottom=0;right=0;editable=1;overflow=hidden;html=1;whiteSpace=wrap;" vertex="1" parent="-2n7A1uFH6f_V6zUvD9d-741">
          <mxGeometry width="53" height="30" as="geometry">
            <mxRectangle width="53" height="30" as="alternateBounds" />
          </mxGeometry>
        </mxCell>
        <mxCell id="-2n7A1uFH6f_V6zUvD9d-743" value="marca" style="shape=partialRectangle;connectable=0;fillColor=none;top=0;left=0;bottom=0;right=0;align=left;spacingLeft=6;overflow=hidden;html=1;whiteSpace=wrap;" vertex="1" parent="-2n7A1uFH6f_V6zUvD9d-741">
          <mxGeometry x="53" width="220" height="30" as="geometry">
            <mxRectangle width="220" height="30" as="alternateBounds" />
          </mxGeometry>
        </mxCell>
        <mxCell id="-2n7A1uFH6f_V6zUvD9d-744" value="" style="shape=tableRow;horizontal=0;startSize=0;swimlaneHead=0;swimlaneBody=0;fillColor=none;collapsible=0;dropTarget=0;points=[[0,0.5],[1,0.5]];portConstraint=eastwest;top=0;left=0;right=0;bottom=0;html=1;" vertex="1" parent="-2n7A1uFH6f_V6zUvD9d-737">
          <mxGeometry y="100" width="273" height="30" as="geometry" />
        </mxCell>
        <mxCell id="-2n7A1uFH6f_V6zUvD9d-745" value="" style="shape=partialRectangle;connectable=0;fillColor=none;top=0;left=0;bottom=0;right=0;editable=1;overflow=hidden;html=1;whiteSpace=wrap;" vertex="1" parent="-2n7A1uFH6f_V6zUvD9d-744">
          <mxGeometry width="53" height="30" as="geometry">
            <mxRectangle width="53" height="30" as="alternateBounds" />
          </mxGeometry>
        </mxCell>
        <mxCell id="-2n7A1uFH6f_V6zUvD9d-746" value="autonomia (em horas)" style="shape=partialRectangle;connectable=0;fillColor=none;top=0;left=0;bottom=0;right=0;align=left;spacingLeft=6;overflow=hidden;html=1;whiteSpace=wrap;" vertex="1" parent="-2n7A1uFH6f_V6zUvD9d-744">
          <mxGeometry x="53" width="220" height="30" as="geometry">
            <mxRectangle width="220" height="30" as="alternateBounds" />
          </mxGeometry>
        </mxCell>
        <mxCell id="-2n7A1uFH6f_V6zUvD9d-747" value="Voo" style="shape=table;startSize=30;container=1;collapsible=1;childLayout=tableLayout;fixedRows=1;rowLines=0;fontStyle=1;align=center;resizeLast=1;html=1;whiteSpace=wrap;" vertex="1" parent="1">
          <mxGeometry x="2125" y="830" width="280" height="150" as="geometry">
            <mxRectangle x="494" y="240" width="60" height="30" as="alternateBounds" />
          </mxGeometry>
        </mxCell>
        <mxCell id="-2n7A1uFH6f_V6zUvD9d-748" value="" style="shape=tableRow;horizontal=0;startSize=0;swimlaneHead=0;swimlaneBody=0;fillColor=none;collapsible=0;dropTarget=0;points=[[0,0.5],[1,0.5]];portConstraint=eastwest;top=0;left=0;right=0;bottom=1;html=1;" vertex="1" parent="-2n7A1uFH6f_V6zUvD9d-747">
          <mxGeometry y="30" width="280" height="30" as="geometry" />
        </mxCell>
        <mxCell id="-2n7A1uFH6f_V6zUvD9d-749" value="PK" style="shape=partialRectangle;connectable=0;fillColor=none;top=0;left=0;bottom=0;right=0;fontStyle=1;overflow=hidden;html=1;whiteSpace=wrap;" vertex="1" parent="-2n7A1uFH6f_V6zUvD9d-748">
          <mxGeometry width="60" height="30" as="geometry">
            <mxRectangle width="60" height="30" as="alternateBounds" />
          </mxGeometry>
        </mxCell>
        <mxCell id="-2n7A1uFH6f_V6zUvD9d-750" value="numeroReferencia" style="shape=partialRectangle;connectable=0;fillColor=none;top=0;left=0;bottom=0;right=0;align=left;spacingLeft=6;fontStyle=5;overflow=hidden;html=1;whiteSpace=wrap;" vertex="1" parent="-2n7A1uFH6f_V6zUvD9d-748">
          <mxGeometry x="60" width="220" height="30" as="geometry">
            <mxRectangle width="220" height="30" as="alternateBounds" />
          </mxGeometry>
        </mxCell>
        <mxCell id="-2n7A1uFH6f_V6zUvD9d-751" value="" style="shape=tableRow;horizontal=0;startSize=0;swimlaneHead=0;swimlaneBody=0;fillColor=none;collapsible=0;dropTarget=0;points=[[0,0.5],[1,0.5]];portConstraint=eastwest;top=0;left=0;right=0;bottom=0;html=1;" vertex="1" parent="-2n7A1uFH6f_V6zUvD9d-747">
          <mxGeometry y="60" width="280" height="30" as="geometry" />
        </mxCell>
        <mxCell id="-2n7A1uFH6f_V6zUvD9d-752" value="FK" style="shape=partialRectangle;connectable=0;fillColor=none;top=0;left=0;bottom=0;right=0;editable=1;overflow=hidden;html=1;whiteSpace=wrap;" vertex="1" parent="-2n7A1uFH6f_V6zUvD9d-751">
          <mxGeometry width="60" height="30" as="geometry">
            <mxRectangle width="60" height="30" as="alternateBounds" />
          </mxGeometry>
        </mxCell>
        <mxCell id="-2n7A1uFH6f_V6zUvD9d-753" value="matriculaAviao" style="shape=partialRectangle;connectable=0;fillColor=none;top=0;left=0;bottom=0;right=0;align=left;spacingLeft=6;overflow=hidden;html=1;whiteSpace=wrap;" vertex="1" parent="-2n7A1uFH6f_V6zUvD9d-751">
          <mxGeometry x="60" width="220" height="30" as="geometry">
            <mxRectangle width="220" height="30" as="alternateBounds" />
          </mxGeometry>
        </mxCell>
        <mxCell id="-2n7A1uFH6f_V6zUvD9d-754" value="" style="shape=tableRow;horizontal=0;startSize=0;swimlaneHead=0;swimlaneBody=0;fillColor=none;collapsible=0;dropTarget=0;points=[[0,0.5],[1,0.5]];portConstraint=eastwest;top=0;left=0;right=0;bottom=0;html=1;" vertex="1" parent="-2n7A1uFH6f_V6zUvD9d-747">
          <mxGeometry y="90" width="280" height="30" as="geometry" />
        </mxCell>
        <mxCell id="-2n7A1uFH6f_V6zUvD9d-755" value="" style="shape=partialRectangle;connectable=0;fillColor=none;top=0;left=0;bottom=0;right=0;editable=1;overflow=hidden;html=1;whiteSpace=wrap;" vertex="1" parent="-2n7A1uFH6f_V6zUvD9d-754">
          <mxGeometry width="60" height="30" as="geometry">
            <mxRectangle width="60" height="30" as="alternateBounds" />
          </mxGeometry>
        </mxCell>
        <mxCell id="-2n7A1uFH6f_V6zUvD9d-756" value="data (dd/mm/yyyy)" style="shape=partialRectangle;connectable=0;fillColor=none;top=0;left=0;bottom=0;right=0;align=left;spacingLeft=6;overflow=hidden;html=1;whiteSpace=wrap;" vertex="1" parent="-2n7A1uFH6f_V6zUvD9d-754">
          <mxGeometry x="60" width="220" height="30" as="geometry">
            <mxRectangle width="220" height="30" as="alternateBounds" />
          </mxGeometry>
        </mxCell>
        <mxCell id="-2n7A1uFH6f_V6zUvD9d-757" value="" style="shape=tableRow;horizontal=0;startSize=0;swimlaneHead=0;swimlaneBody=0;fillColor=none;collapsible=0;dropTarget=0;points=[[0,0.5],[1,0.5]];portConstraint=eastwest;top=0;left=0;right=0;bottom=0;html=1;" vertex="1" parent="-2n7A1uFH6f_V6zUvD9d-747">
          <mxGeometry y="120" width="280" height="30" as="geometry" />
        </mxCell>
        <mxCell id="-2n7A1uFH6f_V6zUvD9d-758" value="" style="shape=partialRectangle;connectable=0;fillColor=none;top=0;left=0;bottom=0;right=0;editable=1;overflow=hidden;html=1;whiteSpace=wrap;" vertex="1" parent="-2n7A1uFH6f_V6zUvD9d-757">
          <mxGeometry width="60" height="30" as="geometry">
            <mxRectangle width="60" height="30" as="alternateBounds" />
          </mxGeometry>
        </mxCell>
        <mxCell id="-2n7A1uFH6f_V6zUvD9d-759" value="hora" style="shape=partialRectangle;connectable=0;fillColor=none;top=0;left=0;bottom=0;right=0;align=left;spacingLeft=6;overflow=hidden;html=1;whiteSpace=wrap;" vertex="1" parent="-2n7A1uFH6f_V6zUvD9d-757">
          <mxGeometry x="60" width="220" height="30" as="geometry">
            <mxRectangle width="220" height="30" as="alternateBounds" />
          </mxGeometry>
        </mxCell>
        <mxCell id="-2n7A1uFH6f_V6zUvD9d-760" style="edgeStyle=orthogonalEdgeStyle;rounded=0;orthogonalLoop=1;jettySize=auto;html=1;entryX=0;entryY=0.5;entryDx=0;entryDy=0;endArrow=ERzeroToMany;endFill=0;startArrow=ERmandOne;startFill=0;" edge="1" parent="1" source="-2n7A1uFH6f_V6zUvD9d-738" target="-2n7A1uFH6f_V6zUvD9d-751">
          <mxGeometry relative="1" as="geometry" />
        </mxCell>
        <mxCell id="-2n7A1uFH6f_V6zUvD9d-761" value="Medico" style="shape=table;startSize=30;container=1;collapsible=1;childLayout=tableLayout;fixedRows=1;rowLines=0;fontStyle=1;align=center;resizeLast=1;html=1;fontSize=12;" vertex="1" parent="1">
          <mxGeometry x="1783.5" y="1620" width="180" height="150" as="geometry" />
        </mxCell>
        <mxCell id="-2n7A1uFH6f_V6zUvD9d-762" value="" style="shape=tableRow;horizontal=0;startSize=0;swimlaneHead=0;swimlaneBody=0;fillColor=none;collapsible=0;dropTarget=0;points=[[0,0.5],[1,0.5]];portConstraint=eastwest;top=0;left=0;right=0;bottom=1;" vertex="1" parent="-2n7A1uFH6f_V6zUvD9d-761">
          <mxGeometry y="30" width="180" height="30" as="geometry" />
        </mxCell>
        <mxCell id="-2n7A1uFH6f_V6zUvD9d-763" value="PK" style="shape=partialRectangle;connectable=0;fillColor=none;top=0;left=0;bottom=0;right=0;fontStyle=1;overflow=hidden;whiteSpace=wrap;html=1;" vertex="1" parent="-2n7A1uFH6f_V6zUvD9d-762">
          <mxGeometry width="30" height="30" as="geometry">
            <mxRectangle width="30" height="30" as="alternateBounds" />
          </mxGeometry>
        </mxCell>
        <mxCell id="-2n7A1uFH6f_V6zUvD9d-764" value="numCedula" style="shape=partialRectangle;connectable=0;fillColor=none;top=0;left=0;bottom=0;right=0;align=left;spacingLeft=6;fontStyle=5;overflow=hidden;whiteSpace=wrap;html=1;" vertex="1" parent="-2n7A1uFH6f_V6zUvD9d-762">
          <mxGeometry x="30" width="150" height="30" as="geometry">
            <mxRectangle width="150" height="30" as="alternateBounds" />
          </mxGeometry>
        </mxCell>
        <mxCell id="-2n7A1uFH6f_V6zUvD9d-765" value="" style="shape=tableRow;horizontal=0;startSize=0;swimlaneHead=0;swimlaneBody=0;fillColor=none;collapsible=0;dropTarget=0;points=[[0,0.5],[1,0.5]];portConstraint=eastwest;top=0;left=0;right=0;bottom=0;" vertex="1" parent="-2n7A1uFH6f_V6zUvD9d-761">
          <mxGeometry y="60" width="180" height="30" as="geometry" />
        </mxCell>
        <mxCell id="-2n7A1uFH6f_V6zUvD9d-766" value="" style="shape=partialRectangle;connectable=0;fillColor=none;top=0;left=0;bottom=0;right=0;editable=1;overflow=hidden;whiteSpace=wrap;html=1;" vertex="1" parent="-2n7A1uFH6f_V6zUvD9d-765">
          <mxGeometry width="30" height="30" as="geometry">
            <mxRectangle width="30" height="30" as="alternateBounds" />
          </mxGeometry>
        </mxCell>
        <mxCell id="-2n7A1uFH6f_V6zUvD9d-767" value="nome" style="shape=partialRectangle;connectable=0;fillColor=none;top=0;left=0;bottom=0;right=0;align=left;spacingLeft=6;overflow=hidden;whiteSpace=wrap;html=1;" vertex="1" parent="-2n7A1uFH6f_V6zUvD9d-765">
          <mxGeometry x="30" width="150" height="30" as="geometry">
            <mxRectangle width="150" height="30" as="alternateBounds" />
          </mxGeometry>
        </mxCell>
        <mxCell id="-2n7A1uFH6f_V6zUvD9d-768" value="" style="shape=tableRow;horizontal=0;startSize=0;swimlaneHead=0;swimlaneBody=0;fillColor=none;collapsible=0;dropTarget=0;points=[[0,0.5],[1,0.5]];portConstraint=eastwest;top=0;left=0;right=0;bottom=0;" vertex="1" parent="-2n7A1uFH6f_V6zUvD9d-761">
          <mxGeometry y="90" width="180" height="30" as="geometry" />
        </mxCell>
        <mxCell id="-2n7A1uFH6f_V6zUvD9d-769" value="" style="shape=partialRectangle;connectable=0;fillColor=none;top=0;left=0;bottom=0;right=0;editable=1;overflow=hidden;whiteSpace=wrap;html=1;" vertex="1" parent="-2n7A1uFH6f_V6zUvD9d-768">
          <mxGeometry width="30" height="30" as="geometry">
            <mxRectangle width="30" height="30" as="alternateBounds" />
          </mxGeometry>
        </mxCell>
        <mxCell id="-2n7A1uFH6f_V6zUvD9d-770" value="telefone" style="shape=partialRectangle;connectable=0;fillColor=none;top=0;left=0;bottom=0;right=0;align=left;spacingLeft=6;overflow=hidden;whiteSpace=wrap;html=1;" vertex="1" parent="-2n7A1uFH6f_V6zUvD9d-768">
          <mxGeometry x="30" width="150" height="30" as="geometry">
            <mxRectangle width="150" height="30" as="alternateBounds" />
          </mxGeometry>
        </mxCell>
        <mxCell id="-2n7A1uFH6f_V6zUvD9d-771" style="shape=tableRow;horizontal=0;startSize=0;swimlaneHead=0;swimlaneBody=0;fillColor=none;collapsible=0;dropTarget=0;points=[[0,0.5],[1,0.5]];portConstraint=eastwest;top=0;left=0;right=0;bottom=0;" vertex="1" parent="-2n7A1uFH6f_V6zUvD9d-761">
          <mxGeometry y="120" width="180" height="30" as="geometry" />
        </mxCell>
        <mxCell id="-2n7A1uFH6f_V6zUvD9d-772" value="FK" style="shape=partialRectangle;connectable=0;fillColor=none;top=0;left=0;bottom=0;right=0;editable=1;overflow=hidden;whiteSpace=wrap;html=1;" vertex="1" parent="-2n7A1uFH6f_V6zUvD9d-771">
          <mxGeometry width="30" height="30" as="geometry">
            <mxRectangle width="30" height="30" as="alternateBounds" />
          </mxGeometry>
        </mxCell>
        <mxCell id="-2n7A1uFH6f_V6zUvD9d-773" value="codEspecialidade" style="shape=partialRectangle;connectable=0;fillColor=none;top=0;left=0;bottom=0;right=0;align=left;spacingLeft=6;overflow=hidden;whiteSpace=wrap;html=1;" vertex="1" parent="-2n7A1uFH6f_V6zUvD9d-771">
          <mxGeometry x="30" width="150" height="30" as="geometry">
            <mxRectangle width="150" height="30" as="alternateBounds" />
          </mxGeometry>
        </mxCell>
        <mxCell id="-2n7A1uFH6f_V6zUvD9d-774" value="Consulta" style="shape=table;startSize=30;container=1;collapsible=1;childLayout=tableLayout;fixedRows=1;rowLines=0;fontStyle=1;align=center;resizeLast=1;html=1;" vertex="1" parent="1">
          <mxGeometry x="2057" y="1620" width="180" height="210" as="geometry" />
        </mxCell>
        <mxCell id="-2n7A1uFH6f_V6zUvD9d-775" value="" style="shape=tableRow;horizontal=0;startSize=0;swimlaneHead=0;swimlaneBody=0;fillColor=none;collapsible=0;dropTarget=0;points=[[0,0.5],[1,0.5]];portConstraint=eastwest;top=0;left=0;right=0;bottom=1;" vertex="1" parent="-2n7A1uFH6f_V6zUvD9d-774">
          <mxGeometry y="30" width="180" height="30" as="geometry" />
        </mxCell>
        <mxCell id="-2n7A1uFH6f_V6zUvD9d-776" value="PK" style="shape=partialRectangle;connectable=0;fillColor=none;top=0;left=0;bottom=0;right=0;fontStyle=1;overflow=hidden;whiteSpace=wrap;html=1;" vertex="1" parent="-2n7A1uFH6f_V6zUvD9d-775">
          <mxGeometry width="30" height="30" as="geometry">
            <mxRectangle width="30" height="30" as="alternateBounds" />
          </mxGeometry>
        </mxCell>
        <mxCell id="-2n7A1uFH6f_V6zUvD9d-777" value="id" style="shape=partialRectangle;connectable=0;fillColor=none;top=0;left=0;bottom=0;right=0;align=left;spacingLeft=6;fontStyle=5;overflow=hidden;whiteSpace=wrap;html=1;" vertex="1" parent="-2n7A1uFH6f_V6zUvD9d-775">
          <mxGeometry x="30" width="150" height="30" as="geometry">
            <mxRectangle width="150" height="30" as="alternateBounds" />
          </mxGeometry>
        </mxCell>
        <mxCell id="-2n7A1uFH6f_V6zUvD9d-778" value="" style="shape=tableRow;horizontal=0;startSize=0;swimlaneHead=0;swimlaneBody=0;fillColor=none;collapsible=0;dropTarget=0;points=[[0,0.5],[1,0.5]];portConstraint=eastwest;top=0;left=0;right=0;bottom=0;" vertex="1" parent="-2n7A1uFH6f_V6zUvD9d-774">
          <mxGeometry y="60" width="180" height="30" as="geometry" />
        </mxCell>
        <mxCell id="-2n7A1uFH6f_V6zUvD9d-779" value="" style="shape=partialRectangle;connectable=0;fillColor=none;top=0;left=0;bottom=0;right=0;editable=1;overflow=hidden;whiteSpace=wrap;html=1;" vertex="1" parent="-2n7A1uFH6f_V6zUvD9d-778">
          <mxGeometry width="30" height="30" as="geometry">
            <mxRectangle width="30" height="30" as="alternateBounds" />
          </mxGeometry>
        </mxCell>
        <mxCell id="-2n7A1uFH6f_V6zUvD9d-780" value="data" style="shape=partialRectangle;connectable=0;fillColor=none;top=0;left=0;bottom=0;right=0;align=left;spacingLeft=6;overflow=hidden;whiteSpace=wrap;html=1;" vertex="1" parent="-2n7A1uFH6f_V6zUvD9d-778">
          <mxGeometry x="30" width="150" height="30" as="geometry">
            <mxRectangle width="150" height="30" as="alternateBounds" />
          </mxGeometry>
        </mxCell>
        <mxCell id="-2n7A1uFH6f_V6zUvD9d-781" value="" style="shape=tableRow;horizontal=0;startSize=0;swimlaneHead=0;swimlaneBody=0;fillColor=none;collapsible=0;dropTarget=0;points=[[0,0.5],[1,0.5]];portConstraint=eastwest;top=0;left=0;right=0;bottom=0;" vertex="1" parent="-2n7A1uFH6f_V6zUvD9d-774">
          <mxGeometry y="90" width="180" height="30" as="geometry" />
        </mxCell>
        <mxCell id="-2n7A1uFH6f_V6zUvD9d-782" value="" style="shape=partialRectangle;connectable=0;fillColor=none;top=0;left=0;bottom=0;right=0;editable=1;overflow=hidden;whiteSpace=wrap;html=1;" vertex="1" parent="-2n7A1uFH6f_V6zUvD9d-781">
          <mxGeometry width="30" height="30" as="geometry">
            <mxRectangle width="30" height="30" as="alternateBounds" />
          </mxGeometry>
        </mxCell>
        <mxCell id="-2n7A1uFH6f_V6zUvD9d-783" value="hora" style="shape=partialRectangle;connectable=0;fillColor=none;top=0;left=0;bottom=0;right=0;align=left;spacingLeft=6;overflow=hidden;whiteSpace=wrap;html=1;" vertex="1" parent="-2n7A1uFH6f_V6zUvD9d-781">
          <mxGeometry x="30" width="150" height="30" as="geometry">
            <mxRectangle width="150" height="30" as="alternateBounds" />
          </mxGeometry>
        </mxCell>
        <mxCell id="-2n7A1uFH6f_V6zUvD9d-784" value="" style="shape=tableRow;horizontal=0;startSize=0;swimlaneHead=0;swimlaneBody=0;fillColor=none;collapsible=0;dropTarget=0;points=[[0,0.5],[1,0.5]];portConstraint=eastwest;top=0;left=0;right=0;bottom=0;" vertex="1" parent="-2n7A1uFH6f_V6zUvD9d-774">
          <mxGeometry y="120" width="180" height="30" as="geometry" />
        </mxCell>
        <mxCell id="-2n7A1uFH6f_V6zUvD9d-785" value="" style="shape=partialRectangle;connectable=0;fillColor=none;top=0;left=0;bottom=0;right=0;editable=1;overflow=hidden;whiteSpace=wrap;html=1;" vertex="1" parent="-2n7A1uFH6f_V6zUvD9d-784">
          <mxGeometry width="30" height="30" as="geometry">
            <mxRectangle width="30" height="30" as="alternateBounds" />
          </mxGeometry>
        </mxCell>
        <mxCell id="-2n7A1uFH6f_V6zUvD9d-786" value="valor" style="shape=partialRectangle;connectable=0;fillColor=none;top=0;left=0;bottom=0;right=0;align=left;spacingLeft=6;overflow=hidden;whiteSpace=wrap;html=1;" vertex="1" parent="-2n7A1uFH6f_V6zUvD9d-784">
          <mxGeometry x="30" width="150" height="30" as="geometry">
            <mxRectangle width="150" height="30" as="alternateBounds" />
          </mxGeometry>
        </mxCell>
        <mxCell id="-2n7A1uFH6f_V6zUvD9d-787" style="shape=tableRow;horizontal=0;startSize=0;swimlaneHead=0;swimlaneBody=0;fillColor=none;collapsible=0;dropTarget=0;points=[[0,0.5],[1,0.5]];portConstraint=eastwest;top=0;left=0;right=0;bottom=0;" vertex="1" parent="-2n7A1uFH6f_V6zUvD9d-774">
          <mxGeometry y="150" width="180" height="30" as="geometry" />
        </mxCell>
        <mxCell id="-2n7A1uFH6f_V6zUvD9d-788" value="FK" style="shape=partialRectangle;connectable=0;fillColor=none;top=0;left=0;bottom=0;right=0;editable=1;overflow=hidden;whiteSpace=wrap;html=1;" vertex="1" parent="-2n7A1uFH6f_V6zUvD9d-787">
          <mxGeometry width="30" height="30" as="geometry">
            <mxRectangle width="30" height="30" as="alternateBounds" />
          </mxGeometry>
        </mxCell>
        <mxCell id="-2n7A1uFH6f_V6zUvD9d-789" value="&lt;div&gt;&lt;span style=&quot;background-color: initial;&quot;&gt;numCedulaMedico&lt;/span&gt;&lt;/div&gt;" style="shape=partialRectangle;connectable=0;fillColor=none;top=0;left=0;bottom=0;right=0;align=left;spacingLeft=6;overflow=hidden;whiteSpace=wrap;html=1;" vertex="1" parent="-2n7A1uFH6f_V6zUvD9d-787">
          <mxGeometry x="30" width="150" height="30" as="geometry">
            <mxRectangle width="150" height="30" as="alternateBounds" />
          </mxGeometry>
        </mxCell>
        <mxCell id="-2n7A1uFH6f_V6zUvD9d-790" style="shape=tableRow;horizontal=0;startSize=0;swimlaneHead=0;swimlaneBody=0;fillColor=none;collapsible=0;dropTarget=0;points=[[0,0.5],[1,0.5]];portConstraint=eastwest;top=0;left=0;right=0;bottom=0;" vertex="1" parent="-2n7A1uFH6f_V6zUvD9d-774">
          <mxGeometry y="180" width="180" height="30" as="geometry" />
        </mxCell>
        <mxCell id="-2n7A1uFH6f_V6zUvD9d-791" value="FK" style="shape=partialRectangle;connectable=0;fillColor=none;top=0;left=0;bottom=0;right=0;editable=1;overflow=hidden;whiteSpace=wrap;html=1;" vertex="1" parent="-2n7A1uFH6f_V6zUvD9d-790">
          <mxGeometry width="30" height="30" as="geometry">
            <mxRectangle width="30" height="30" as="alternateBounds" />
          </mxGeometry>
        </mxCell>
        <mxCell id="-2n7A1uFH6f_V6zUvD9d-792" value="numUtentePaciente" style="shape=partialRectangle;connectable=0;fillColor=none;top=0;left=0;bottom=0;right=0;align=left;spacingLeft=6;overflow=hidden;whiteSpace=wrap;html=1;" vertex="1" parent="-2n7A1uFH6f_V6zUvD9d-790">
          <mxGeometry x="30" width="150" height="30" as="geometry">
            <mxRectangle width="150" height="30" as="alternateBounds" />
          </mxGeometry>
        </mxCell>
        <mxCell id="-2n7A1uFH6f_V6zUvD9d-793" value="Paciente" style="shape=table;startSize=30;container=1;collapsible=1;childLayout=tableLayout;fixedRows=1;rowLines=0;fontStyle=1;align=center;resizeLast=1;html=1;" vertex="1" parent="1">
          <mxGeometry x="2297" y="1620" width="180" height="120" as="geometry" />
        </mxCell>
        <mxCell id="-2n7A1uFH6f_V6zUvD9d-794" value="" style="shape=tableRow;horizontal=0;startSize=0;swimlaneHead=0;swimlaneBody=0;fillColor=none;collapsible=0;dropTarget=0;points=[[0,0.5],[1,0.5]];portConstraint=eastwest;top=0;left=0;right=0;bottom=1;" vertex="1" parent="-2n7A1uFH6f_V6zUvD9d-793">
          <mxGeometry y="30" width="180" height="30" as="geometry" />
        </mxCell>
        <mxCell id="-2n7A1uFH6f_V6zUvD9d-795" value="PK" style="shape=partialRectangle;connectable=0;fillColor=none;top=0;left=0;bottom=0;right=0;fontStyle=1;overflow=hidden;whiteSpace=wrap;html=1;" vertex="1" parent="-2n7A1uFH6f_V6zUvD9d-794">
          <mxGeometry width="30" height="30" as="geometry">
            <mxRectangle width="30" height="30" as="alternateBounds" />
          </mxGeometry>
        </mxCell>
        <mxCell id="-2n7A1uFH6f_V6zUvD9d-796" value="numUtente" style="shape=partialRectangle;connectable=0;fillColor=none;top=0;left=0;bottom=0;right=0;align=left;spacingLeft=6;fontStyle=5;overflow=hidden;whiteSpace=wrap;html=1;" vertex="1" parent="-2n7A1uFH6f_V6zUvD9d-794">
          <mxGeometry x="30" width="150" height="30" as="geometry">
            <mxRectangle width="150" height="30" as="alternateBounds" />
          </mxGeometry>
        </mxCell>
        <mxCell id="-2n7A1uFH6f_V6zUvD9d-797" value="" style="shape=tableRow;horizontal=0;startSize=0;swimlaneHead=0;swimlaneBody=0;fillColor=none;collapsible=0;dropTarget=0;points=[[0,0.5],[1,0.5]];portConstraint=eastwest;top=0;left=0;right=0;bottom=0;" vertex="1" parent="-2n7A1uFH6f_V6zUvD9d-793">
          <mxGeometry y="60" width="180" height="30" as="geometry" />
        </mxCell>
        <mxCell id="-2n7A1uFH6f_V6zUvD9d-798" value="" style="shape=partialRectangle;connectable=0;fillColor=none;top=0;left=0;bottom=0;right=0;editable=1;overflow=hidden;whiteSpace=wrap;html=1;" vertex="1" parent="-2n7A1uFH6f_V6zUvD9d-797">
          <mxGeometry width="30" height="30" as="geometry">
            <mxRectangle width="30" height="30" as="alternateBounds" />
          </mxGeometry>
        </mxCell>
        <mxCell id="-2n7A1uFH6f_V6zUvD9d-799" value="nome" style="shape=partialRectangle;connectable=0;fillColor=none;top=0;left=0;bottom=0;right=0;align=left;spacingLeft=6;overflow=hidden;whiteSpace=wrap;html=1;" vertex="1" parent="-2n7A1uFH6f_V6zUvD9d-797">
          <mxGeometry x="30" width="150" height="30" as="geometry">
            <mxRectangle width="150" height="30" as="alternateBounds" />
          </mxGeometry>
        </mxCell>
        <mxCell id="-2n7A1uFH6f_V6zUvD9d-800" value="" style="shape=tableRow;horizontal=0;startSize=0;swimlaneHead=0;swimlaneBody=0;fillColor=none;collapsible=0;dropTarget=0;points=[[0,0.5],[1,0.5]];portConstraint=eastwest;top=0;left=0;right=0;bottom=0;" vertex="1" parent="-2n7A1uFH6f_V6zUvD9d-793">
          <mxGeometry y="90" width="180" height="30" as="geometry" />
        </mxCell>
        <mxCell id="-2n7A1uFH6f_V6zUvD9d-801" value="" style="shape=partialRectangle;connectable=0;fillColor=none;top=0;left=0;bottom=0;right=0;editable=1;overflow=hidden;whiteSpace=wrap;html=1;" vertex="1" parent="-2n7A1uFH6f_V6zUvD9d-800">
          <mxGeometry width="30" height="30" as="geometry">
            <mxRectangle width="30" height="30" as="alternateBounds" />
          </mxGeometry>
        </mxCell>
        <mxCell id="-2n7A1uFH6f_V6zUvD9d-802" value="telefone" style="shape=partialRectangle;connectable=0;fillColor=none;top=0;left=0;bottom=0;right=0;align=left;spacingLeft=6;overflow=hidden;whiteSpace=wrap;html=1;" vertex="1" parent="-2n7A1uFH6f_V6zUvD9d-800">
          <mxGeometry x="30" width="150" height="30" as="geometry">
            <mxRectangle width="150" height="30" as="alternateBounds" />
          </mxGeometry>
        </mxCell>
        <mxCell id="-2n7A1uFH6f_V6zUvD9d-803" value="Especialidade" style="shape=table;startSize=30;container=1;collapsible=1;childLayout=tableLayout;fixedRows=1;rowLines=0;fontStyle=1;align=center;resizeLast=1;html=1;" vertex="1" parent="1">
          <mxGeometry x="1783.5" y="1850" width="180" height="90" as="geometry" />
        </mxCell>
        <mxCell id="-2n7A1uFH6f_V6zUvD9d-804" value="" style="shape=tableRow;horizontal=0;startSize=0;swimlaneHead=0;swimlaneBody=0;fillColor=none;collapsible=0;dropTarget=0;points=[[0,0.5],[1,0.5]];portConstraint=eastwest;top=0;left=0;right=0;bottom=1;" vertex="1" parent="-2n7A1uFH6f_V6zUvD9d-803">
          <mxGeometry y="30" width="180" height="30" as="geometry" />
        </mxCell>
        <mxCell id="-2n7A1uFH6f_V6zUvD9d-805" value="PK" style="shape=partialRectangle;connectable=0;fillColor=none;top=0;left=0;bottom=0;right=0;fontStyle=1;overflow=hidden;whiteSpace=wrap;html=1;" vertex="1" parent="-2n7A1uFH6f_V6zUvD9d-804">
          <mxGeometry width="30" height="30" as="geometry">
            <mxRectangle width="30" height="30" as="alternateBounds" />
          </mxGeometry>
        </mxCell>
        <mxCell id="-2n7A1uFH6f_V6zUvD9d-806" value="cod" style="shape=partialRectangle;connectable=0;fillColor=none;top=0;left=0;bottom=0;right=0;align=left;spacingLeft=6;fontStyle=5;overflow=hidden;whiteSpace=wrap;html=1;" vertex="1" parent="-2n7A1uFH6f_V6zUvD9d-804">
          <mxGeometry x="30" width="150" height="30" as="geometry">
            <mxRectangle width="150" height="30" as="alternateBounds" />
          </mxGeometry>
        </mxCell>
        <mxCell id="-2n7A1uFH6f_V6zUvD9d-807" value="" style="shape=tableRow;horizontal=0;startSize=0;swimlaneHead=0;swimlaneBody=0;fillColor=none;collapsible=0;dropTarget=0;points=[[0,0.5],[1,0.5]];portConstraint=eastwest;top=0;left=0;right=0;bottom=0;" vertex="1" parent="-2n7A1uFH6f_V6zUvD9d-803">
          <mxGeometry y="60" width="180" height="30" as="geometry" />
        </mxCell>
        <mxCell id="-2n7A1uFH6f_V6zUvD9d-808" value="" style="shape=partialRectangle;connectable=0;fillColor=none;top=0;left=0;bottom=0;right=0;editable=1;overflow=hidden;whiteSpace=wrap;html=1;" vertex="1" parent="-2n7A1uFH6f_V6zUvD9d-807">
          <mxGeometry width="30" height="30" as="geometry">
            <mxRectangle width="30" height="30" as="alternateBounds" />
          </mxGeometry>
        </mxCell>
        <mxCell id="-2n7A1uFH6f_V6zUvD9d-809" value="nome" style="shape=partialRectangle;connectable=0;fillColor=none;top=0;left=0;bottom=0;right=0;align=left;spacingLeft=6;overflow=hidden;whiteSpace=wrap;html=1;" vertex="1" parent="-2n7A1uFH6f_V6zUvD9d-807">
          <mxGeometry x="30" width="150" height="30" as="geometry">
            <mxRectangle width="150" height="30" as="alternateBounds" />
          </mxGeometry>
        </mxCell>
        <mxCell id="-2n7A1uFH6f_V6zUvD9d-810" style="edgeStyle=orthogonalEdgeStyle;rounded=0;orthogonalLoop=1;jettySize=auto;html=1;startArrow=ERzeroToMany;startFill=0;endArrow=ERmandOne;endFill=0;" edge="1" parent="1" source="-2n7A1uFH6f_V6zUvD9d-790" target="-2n7A1uFH6f_V6zUvD9d-794">
          <mxGeometry relative="1" as="geometry" />
        </mxCell>
        <mxCell id="-2n7A1uFH6f_V6zUvD9d-811" style="edgeStyle=orthogonalEdgeStyle;rounded=0;orthogonalLoop=1;jettySize=auto;html=1;exitX=1;exitY=0.5;exitDx=0;exitDy=0;startArrow=ERzeroToMany;startFill=0;endArrow=ERmandOne;endFill=0;" edge="1" parent="1" source="-2n7A1uFH6f_V6zUvD9d-771" target="-2n7A1uFH6f_V6zUvD9d-804">
          <mxGeometry relative="1" as="geometry" />
        </mxCell>
        <mxCell id="-2n7A1uFH6f_V6zUvD9d-812" value="Especialidade" style="whiteSpace=wrap;html=1;align=center;fontFamily=Helvetica;fontSize=11;labelBackgroundColor=none;fillColor=#d5e8d4;strokeColor=#82b366;" vertex="1" parent="1">
          <mxGeometry x="1680" y="1350" width="100" height="40" as="geometry" />
        </mxCell>
        <mxCell id="-2n7A1uFH6f_V6zUvD9d-813" style="edgeStyle=orthogonalEdgeStyle;rounded=0;orthogonalLoop=1;jettySize=auto;html=1;endArrow=ERzeroToMany;endFill=0;startArrow=ERmandOne;startFill=0;" edge="1" parent="1" source="-2n7A1uFH6f_V6zUvD9d-762" target="-2n7A1uFH6f_V6zUvD9d-787">
          <mxGeometry relative="1" as="geometry" />
        </mxCell>
        <mxCell id="-2n7A1uFH6f_V6zUvD9d-814" value="&lt;span data-teams=&quot;true&quot;&gt;&lt;span style=&quot;font-family: -apple-system, BlinkMacSystemFont, &amp;quot;Segoe UI&amp;quot;, system-ui, &amp;quot;Apple Color Emoji&amp;quot;, &amp;quot;Segoe UI Emoji&amp;quot;, &amp;quot;Segoe UI Web&amp;quot;, sans-serif; font-size: 14px; white-space-collapse: preserve;&quot;&gt;&lt;p&gt;3. Um hotel pretende ter uma base de dados para guardar as reservas feitas por clientes. Um cliente pode reservar um ou mais quartos. Para cada cliente quer-se guardar o nome, o NIF e a nacionalidades. Para cada quarto é necessário guardar o número do quarto (que neste hotel é único de quarto para quarto) e o número de camas. Nas reservas, quer-se guardar em base de dados a data e o número de noites.&lt;/p&gt;&amp;nbsp;&lt;/span&gt;&lt;/span&gt;" style="text;strokeColor=none;fillColor=none;spacingLeft=4;spacingRight=4;overflow=hidden;rotatable=0;points=[[0,0.5],[1,0.5]];portConstraint=eastwest;fontSize=11;whiteSpace=wrap;html=1;fontFamily=Helvetica;fontColor=default;labelBackgroundColor=default;" vertex="1" parent="1">
          <mxGeometry x="2525" y="120" width="600" height="120" as="geometry" />
        </mxCell>
        <mxCell id="-2n7A1uFH6f_V6zUvD9d-815" style="edgeStyle=orthogonalEdgeStyle;shape=connector;rounded=0;orthogonalLoop=1;jettySize=auto;html=1;strokeColor=#82b366;align=center;verticalAlign=middle;fontFamily=Helvetica;fontSize=11;fontColor=default;labelBackgroundColor=none;endArrow=none;endFill=0;startArrow=ERone;startFill=0;fillColor=#d5e8d4;" edge="1" parent="1" source="-2n7A1uFH6f_V6zUvD9d-816" target="-2n7A1uFH6f_V6zUvD9d-831">
          <mxGeometry relative="1" as="geometry" />
        </mxCell>
        <mxCell id="-2n7A1uFH6f_V6zUvD9d-816" value="Cliente" style="whiteSpace=wrap;html=1;align=center;fontFamily=Helvetica;fontSize=11;labelBackgroundColor=none;fillColor=#d5e8d4;strokeColor=#82b366;" vertex="1" parent="1">
          <mxGeometry x="2785" y="350" width="80" height="40" as="geometry" />
        </mxCell>
        <mxCell id="-2n7A1uFH6f_V6zUvD9d-817" style="edgeStyle=orthogonalEdgeStyle;shape=connector;rounded=0;orthogonalLoop=1;jettySize=auto;html=1;strokeColor=#82b366;align=center;verticalAlign=middle;fontFamily=Helvetica;fontSize=11;fontColor=default;labelBackgroundColor=default;endArrow=none;endFill=0;startArrow=ERmany;startFill=0;fillColor=#d5e8d4;" edge="1" parent="1" source="-2n7A1uFH6f_V6zUvD9d-818" target="-2n7A1uFH6f_V6zUvD9d-837">
          <mxGeometry relative="1" as="geometry" />
        </mxCell>
        <mxCell id="-2n7A1uFH6f_V6zUvD9d-818" value="Quarto" style="whiteSpace=wrap;html=1;align=center;fontFamily=Helvetica;fontSize=11;labelBackgroundColor=none;fillColor=#d5e8d4;strokeColor=#82b366;" vertex="1" parent="1">
          <mxGeometry x="2655" y="510" width="80" height="40" as="geometry" />
        </mxCell>
        <mxCell id="-2n7A1uFH6f_V6zUvD9d-819" style="shape=connector;rounded=0;orthogonalLoop=1;jettySize=auto;html=1;strokeColor=#82b366;align=center;verticalAlign=middle;fontFamily=Helvetica;fontSize=11;fontColor=default;labelBackgroundColor=none;endArrow=none;endFill=0;fillColor=#d5e8d4;" edge="1" parent="1" source="-2n7A1uFH6f_V6zUvD9d-820" target="-2n7A1uFH6f_V6zUvD9d-816">
          <mxGeometry relative="1" as="geometry" />
        </mxCell>
        <mxCell id="-2n7A1uFH6f_V6zUvD9d-820" value="Nome" style="ellipse;whiteSpace=wrap;html=1;align=center;fontFamily=Helvetica;fontSize=11;labelBackgroundColor=none;fillColor=#d5e8d4;strokeColor=#82b366;" vertex="1" parent="1">
          <mxGeometry x="2785" y="270" width="80" height="40" as="geometry" />
        </mxCell>
        <mxCell id="-2n7A1uFH6f_V6zUvD9d-821" style="shape=connector;rounded=0;orthogonalLoop=1;jettySize=auto;html=1;strokeColor=#82b366;align=center;verticalAlign=middle;fontFamily=Helvetica;fontSize=11;fontColor=default;labelBackgroundColor=none;endArrow=none;endFill=0;fillColor=#d5e8d4;" edge="1" parent="1" source="-2n7A1uFH6f_V6zUvD9d-822" target="-2n7A1uFH6f_V6zUvD9d-816">
          <mxGeometry relative="1" as="geometry" />
        </mxCell>
        <mxCell id="-2n7A1uFH6f_V6zUvD9d-822" value="Nacionalidade" style="ellipse;whiteSpace=wrap;html=1;align=center;fontFamily=Helvetica;fontSize=11;labelBackgroundColor=none;fillColor=#d5e8d4;strokeColor=#82b366;" vertex="1" parent="1">
          <mxGeometry x="2865" y="310" width="80" height="40" as="geometry" />
        </mxCell>
        <mxCell id="-2n7A1uFH6f_V6zUvD9d-823" style="shape=connector;rounded=0;orthogonalLoop=1;jettySize=auto;html=1;strokeColor=#82b366;align=center;verticalAlign=middle;fontFamily=Helvetica;fontSize=11;fontColor=default;labelBackgroundColor=none;endArrow=none;endFill=0;fillColor=#d5e8d4;" edge="1" parent="1" source="-2n7A1uFH6f_V6zUvD9d-824" target="-2n7A1uFH6f_V6zUvD9d-816">
          <mxGeometry relative="1" as="geometry" />
        </mxCell>
        <mxCell id="-2n7A1uFH6f_V6zUvD9d-824" value="NIF" style="ellipse;whiteSpace=wrap;html=1;align=center;fontFamily=Helvetica;fontSize=11;labelBackgroundColor=none;fillColor=#d5e8d4;strokeColor=#82b366;" vertex="1" parent="1">
          <mxGeometry x="2705" y="310" width="80" height="40" as="geometry" />
        </mxCell>
        <mxCell id="-2n7A1uFH6f_V6zUvD9d-825" style="shape=connector;rounded=0;orthogonalLoop=1;jettySize=auto;html=1;strokeColor=#82b366;align=center;verticalAlign=middle;fontFamily=Helvetica;fontSize=11;fontColor=default;labelBackgroundColor=none;endArrow=none;endFill=0;fillColor=#d5e8d4;" edge="1" parent="1" source="-2n7A1uFH6f_V6zUvD9d-826" target="-2n7A1uFH6f_V6zUvD9d-818">
          <mxGeometry relative="1" as="geometry" />
        </mxCell>
        <mxCell id="-2n7A1uFH6f_V6zUvD9d-826" value="Número" style="ellipse;whiteSpace=wrap;html=1;align=center;fontFamily=Helvetica;fontSize=11;labelBackgroundColor=none;strokeColor=#82b366;verticalAlign=middle;fontStyle=4;fillColor=#d5e8d4;" vertex="1" parent="1">
          <mxGeometry x="2575" y="550" width="80" height="40" as="geometry" />
        </mxCell>
        <mxCell id="-2n7A1uFH6f_V6zUvD9d-827" style="shape=connector;rounded=0;orthogonalLoop=1;jettySize=auto;html=1;strokeColor=#82b366;align=center;verticalAlign=middle;fontFamily=Helvetica;fontSize=11;fontColor=default;labelBackgroundColor=none;endArrow=none;endFill=0;fillColor=#d5e8d4;" edge="1" parent="1" source="-2n7A1uFH6f_V6zUvD9d-828" target="-2n7A1uFH6f_V6zUvD9d-818">
          <mxGeometry relative="1" as="geometry" />
        </mxCell>
        <mxCell id="-2n7A1uFH6f_V6zUvD9d-828" value="Camas" style="ellipse;whiteSpace=wrap;html=1;align=center;fontFamily=Helvetica;fontSize=11;labelBackgroundColor=none;fillColor=#d5e8d4;strokeColor=#82b366;" vertex="1" parent="1">
          <mxGeometry x="2735" y="550" width="80" height="40" as="geometry" />
        </mxCell>
        <mxCell id="-2n7A1uFH6f_V6zUvD9d-829" value="Reserva" style="whiteSpace=wrap;html=1;align=center;fontFamily=Helvetica;fontSize=11;labelBackgroundColor=none;fillColor=#d5e8d4;strokeColor=#82b366;" vertex="1" parent="1">
          <mxGeometry x="3005" y="510" width="80" height="40" as="geometry" />
        </mxCell>
        <mxCell id="-2n7A1uFH6f_V6zUvD9d-830" style="edgeStyle=orthogonalEdgeStyle;shape=connector;rounded=0;orthogonalLoop=1;jettySize=auto;html=1;strokeColor=#82b366;align=center;verticalAlign=middle;fontFamily=Helvetica;fontSize=11;fontColor=default;labelBackgroundColor=none;endArrow=ERmany;endFill=0;fillColor=#d5e8d4;" edge="1" parent="1" source="-2n7A1uFH6f_V6zUvD9d-831" target="-2n7A1uFH6f_V6zUvD9d-829">
          <mxGeometry relative="1" as="geometry" />
        </mxCell>
        <mxCell id="-2n7A1uFH6f_V6zUvD9d-831" value="Faz" style="shape=rhombus;perimeter=rhombusPerimeter;whiteSpace=wrap;html=1;align=center;fontFamily=Helvetica;fontSize=11;labelBackgroundColor=none;fillColor=#d5e8d4;strokeColor=#82b366;" vertex="1" parent="1">
          <mxGeometry x="2985" y="340" width="120" height="60" as="geometry" />
        </mxCell>
        <mxCell id="-2n7A1uFH6f_V6zUvD9d-832" style="shape=connector;rounded=0;orthogonalLoop=1;jettySize=auto;html=1;strokeColor=#82b366;align=center;verticalAlign=middle;fontFamily=Helvetica;fontSize=11;fontColor=default;labelBackgroundColor=none;endArrow=none;endFill=0;fillColor=#d5e8d4;" edge="1" parent="1" source="-2n7A1uFH6f_V6zUvD9d-833" target="-2n7A1uFH6f_V6zUvD9d-829">
          <mxGeometry relative="1" as="geometry" />
        </mxCell>
        <mxCell id="-2n7A1uFH6f_V6zUvD9d-833" value="Data" style="ellipse;whiteSpace=wrap;html=1;align=center;fontFamily=Helvetica;fontSize=11;labelBackgroundColor=none;fillColor=#d5e8d4;strokeColor=#82b366;" vertex="1" parent="1">
          <mxGeometry x="3085" y="550" width="80" height="40" as="geometry" />
        </mxCell>
        <mxCell id="-2n7A1uFH6f_V6zUvD9d-834" style="shape=connector;rounded=0;orthogonalLoop=1;jettySize=auto;html=1;strokeColor=#82b366;align=center;verticalAlign=middle;fontFamily=Helvetica;fontSize=11;fontColor=default;labelBackgroundColor=none;endArrow=none;endFill=0;fillColor=#d5e8d4;" edge="1" parent="1" source="-2n7A1uFH6f_V6zUvD9d-835" target="-2n7A1uFH6f_V6zUvD9d-829">
          <mxGeometry relative="1" as="geometry" />
        </mxCell>
        <mxCell id="-2n7A1uFH6f_V6zUvD9d-835" value="Noites" style="ellipse;whiteSpace=wrap;html=1;align=center;fontFamily=Helvetica;fontSize=11;labelBackgroundColor=none;fillColor=#d5e8d4;strokeColor=#82b366;" vertex="1" parent="1">
          <mxGeometry x="3085" y="470" width="80" height="40" as="geometry" />
        </mxCell>
        <mxCell id="-2n7A1uFH6f_V6zUvD9d-836" style="edgeStyle=orthogonalEdgeStyle;shape=connector;rounded=0;orthogonalLoop=1;jettySize=auto;html=1;strokeColor=#82b366;align=center;verticalAlign=middle;fontFamily=Helvetica;fontSize=11;fontColor=default;labelBackgroundColor=default;endArrow=ERmany;endFill=0;fillColor=#d5e8d4;" edge="1" parent="1" source="-2n7A1uFH6f_V6zUvD9d-837" target="-2n7A1uFH6f_V6zUvD9d-829">
          <mxGeometry relative="1" as="geometry" />
        </mxCell>
        <mxCell id="-2n7A1uFH6f_V6zUvD9d-837" value="Tem" style="shape=rhombus;perimeter=rhombusPerimeter;whiteSpace=wrap;html=1;align=center;fontFamily=Helvetica;fontSize=11;labelBackgroundColor=none;fillColor=#d5e8d4;strokeColor=#82b366;" vertex="1" parent="1">
          <mxGeometry x="2825" y="500" width="120" height="60" as="geometry" />
        </mxCell>
        <mxCell id="-2n7A1uFH6f_V6zUvD9d-838" value="Quarto" style="shape=table;startSize=30;container=1;collapsible=1;childLayout=tableLayout;fixedRows=1;rowLines=0;fontStyle=1;align=center;resizeLast=1;html=1;" vertex="1" parent="1">
          <mxGeometry x="2565" y="640" width="180" height="90" as="geometry" />
        </mxCell>
        <mxCell id="-2n7A1uFH6f_V6zUvD9d-839" value="" style="shape=tableRow;horizontal=0;startSize=0;swimlaneHead=0;swimlaneBody=0;fillColor=none;collapsible=0;dropTarget=0;points=[[0,0.5],[1,0.5]];portConstraint=eastwest;top=0;left=0;right=0;bottom=1;" vertex="1" parent="-2n7A1uFH6f_V6zUvD9d-838">
          <mxGeometry y="30" width="180" height="30" as="geometry" />
        </mxCell>
        <mxCell id="-2n7A1uFH6f_V6zUvD9d-840" value="PK" style="shape=partialRectangle;connectable=0;fillColor=none;top=0;left=0;bottom=0;right=0;fontStyle=1;overflow=hidden;whiteSpace=wrap;html=1;" vertex="1" parent="-2n7A1uFH6f_V6zUvD9d-839">
          <mxGeometry width="30" height="30" as="geometry">
            <mxRectangle width="30" height="30" as="alternateBounds" />
          </mxGeometry>
        </mxCell>
        <mxCell id="-2n7A1uFH6f_V6zUvD9d-841" value="numero" style="shape=partialRectangle;connectable=0;fillColor=none;top=0;left=0;bottom=0;right=0;align=left;spacingLeft=6;fontStyle=5;overflow=hidden;whiteSpace=wrap;html=1;" vertex="1" parent="-2n7A1uFH6f_V6zUvD9d-839">
          <mxGeometry x="30" width="150" height="30" as="geometry">
            <mxRectangle width="150" height="30" as="alternateBounds" />
          </mxGeometry>
        </mxCell>
        <mxCell id="-2n7A1uFH6f_V6zUvD9d-842" value="" style="shape=tableRow;horizontal=0;startSize=0;swimlaneHead=0;swimlaneBody=0;fillColor=none;collapsible=0;dropTarget=0;points=[[0,0.5],[1,0.5]];portConstraint=eastwest;top=0;left=0;right=0;bottom=0;" vertex="1" parent="-2n7A1uFH6f_V6zUvD9d-838">
          <mxGeometry y="60" width="180" height="30" as="geometry" />
        </mxCell>
        <mxCell id="-2n7A1uFH6f_V6zUvD9d-843" value="" style="shape=partialRectangle;connectable=0;fillColor=none;top=0;left=0;bottom=0;right=0;editable=1;overflow=hidden;whiteSpace=wrap;html=1;" vertex="1" parent="-2n7A1uFH6f_V6zUvD9d-842">
          <mxGeometry width="30" height="30" as="geometry">
            <mxRectangle width="30" height="30" as="alternateBounds" />
          </mxGeometry>
        </mxCell>
        <mxCell id="-2n7A1uFH6f_V6zUvD9d-844" value="camas" style="shape=partialRectangle;connectable=0;fillColor=none;top=0;left=0;bottom=0;right=0;align=left;spacingLeft=6;overflow=hidden;whiteSpace=wrap;html=1;" vertex="1" parent="-2n7A1uFH6f_V6zUvD9d-842">
          <mxGeometry x="30" width="150" height="30" as="geometry">
            <mxRectangle width="150" height="30" as="alternateBounds" />
          </mxGeometry>
        </mxCell>
        <mxCell id="-2n7A1uFH6f_V6zUvD9d-845" value="Reserva" style="shape=table;startSize=30;container=1;collapsible=1;childLayout=tableLayout;fixedRows=1;rowLines=0;fontStyle=1;align=center;resizeLast=1;html=1;" vertex="1" parent="1">
          <mxGeometry x="3085" y="640" width="180" height="150" as="geometry" />
        </mxCell>
        <mxCell id="-2n7A1uFH6f_V6zUvD9d-846" value="" style="shape=tableRow;horizontal=0;startSize=0;swimlaneHead=0;swimlaneBody=0;fillColor=none;collapsible=0;dropTarget=0;points=[[0,0.5],[1,0.5]];portConstraint=eastwest;top=0;left=0;right=0;bottom=1;" vertex="1" parent="-2n7A1uFH6f_V6zUvD9d-845">
          <mxGeometry y="30" width="180" height="30" as="geometry" />
        </mxCell>
        <mxCell id="-2n7A1uFH6f_V6zUvD9d-847" value="PK" style="shape=partialRectangle;connectable=0;fillColor=none;top=0;left=0;bottom=0;right=0;fontStyle=1;overflow=hidden;whiteSpace=wrap;html=1;" vertex="1" parent="-2n7A1uFH6f_V6zUvD9d-846">
          <mxGeometry width="30" height="30" as="geometry">
            <mxRectangle width="30" height="30" as="alternateBounds" />
          </mxGeometry>
        </mxCell>
        <mxCell id="-2n7A1uFH6f_V6zUvD9d-848" value="numero" style="shape=partialRectangle;connectable=0;fillColor=none;top=0;left=0;bottom=0;right=0;align=left;spacingLeft=6;fontStyle=5;overflow=hidden;whiteSpace=wrap;html=1;" vertex="1" parent="-2n7A1uFH6f_V6zUvD9d-846">
          <mxGeometry x="30" width="150" height="30" as="geometry">
            <mxRectangle width="150" height="30" as="alternateBounds" />
          </mxGeometry>
        </mxCell>
        <mxCell id="-2n7A1uFH6f_V6zUvD9d-849" value="" style="shape=tableRow;horizontal=0;startSize=0;swimlaneHead=0;swimlaneBody=0;fillColor=none;collapsible=0;dropTarget=0;points=[[0,0.5],[1,0.5]];portConstraint=eastwest;top=0;left=0;right=0;bottom=0;" vertex="1" parent="-2n7A1uFH6f_V6zUvD9d-845">
          <mxGeometry y="60" width="180" height="30" as="geometry" />
        </mxCell>
        <mxCell id="-2n7A1uFH6f_V6zUvD9d-850" value="" style="shape=partialRectangle;connectable=0;fillColor=none;top=0;left=0;bottom=0;right=0;editable=1;overflow=hidden;whiteSpace=wrap;html=1;" vertex="1" parent="-2n7A1uFH6f_V6zUvD9d-849">
          <mxGeometry width="30" height="30" as="geometry">
            <mxRectangle width="30" height="30" as="alternateBounds" />
          </mxGeometry>
        </mxCell>
        <mxCell id="-2n7A1uFH6f_V6zUvD9d-851" value="data (dd/mm/yyyy)" style="shape=partialRectangle;connectable=0;fillColor=none;top=0;left=0;bottom=0;right=0;align=left;spacingLeft=6;overflow=hidden;whiteSpace=wrap;html=1;" vertex="1" parent="-2n7A1uFH6f_V6zUvD9d-849">
          <mxGeometry x="30" width="150" height="30" as="geometry">
            <mxRectangle width="150" height="30" as="alternateBounds" />
          </mxGeometry>
        </mxCell>
        <mxCell id="-2n7A1uFH6f_V6zUvD9d-852" value="" style="shape=tableRow;horizontal=0;startSize=0;swimlaneHead=0;swimlaneBody=0;fillColor=none;collapsible=0;dropTarget=0;points=[[0,0.5],[1,0.5]];portConstraint=eastwest;top=0;left=0;right=0;bottom=0;" vertex="1" parent="-2n7A1uFH6f_V6zUvD9d-845">
          <mxGeometry y="90" width="180" height="30" as="geometry" />
        </mxCell>
        <mxCell id="-2n7A1uFH6f_V6zUvD9d-853" value="" style="shape=partialRectangle;connectable=0;fillColor=none;top=0;left=0;bottom=0;right=0;editable=1;overflow=hidden;whiteSpace=wrap;html=1;" vertex="1" parent="-2n7A1uFH6f_V6zUvD9d-852">
          <mxGeometry width="30" height="30" as="geometry">
            <mxRectangle width="30" height="30" as="alternateBounds" />
          </mxGeometry>
        </mxCell>
        <mxCell id="-2n7A1uFH6f_V6zUvD9d-854" value="noites" style="shape=partialRectangle;connectable=0;fillColor=none;top=0;left=0;bottom=0;right=0;align=left;spacingLeft=6;overflow=hidden;whiteSpace=wrap;html=1;" vertex="1" parent="-2n7A1uFH6f_V6zUvD9d-852">
          <mxGeometry x="30" width="150" height="30" as="geometry">
            <mxRectangle width="150" height="30" as="alternateBounds" />
          </mxGeometry>
        </mxCell>
        <mxCell id="-2n7A1uFH6f_V6zUvD9d-855" style="shape=tableRow;horizontal=0;startSize=0;swimlaneHead=0;swimlaneBody=0;fillColor=none;collapsible=0;dropTarget=0;points=[[0,0.5],[1,0.5]];portConstraint=eastwest;top=0;left=0;right=0;bottom=0;" vertex="1" parent="-2n7A1uFH6f_V6zUvD9d-845">
          <mxGeometry y="120" width="180" height="30" as="geometry" />
        </mxCell>
        <mxCell id="-2n7A1uFH6f_V6zUvD9d-856" value="FK" style="shape=partialRectangle;connectable=0;fillColor=none;top=0;left=0;bottom=0;right=0;editable=1;overflow=hidden;whiteSpace=wrap;html=1;" vertex="1" parent="-2n7A1uFH6f_V6zUvD9d-855">
          <mxGeometry width="30" height="30" as="geometry">
            <mxRectangle width="30" height="30" as="alternateBounds" />
          </mxGeometry>
        </mxCell>
        <mxCell id="-2n7A1uFH6f_V6zUvD9d-857" value="numCliente" style="shape=partialRectangle;connectable=0;fillColor=none;top=0;left=0;bottom=0;right=0;align=left;spacingLeft=6;overflow=hidden;whiteSpace=wrap;html=1;" vertex="1" parent="-2n7A1uFH6f_V6zUvD9d-855">
          <mxGeometry x="30" width="150" height="30" as="geometry">
            <mxRectangle width="150" height="30" as="alternateBounds" />
          </mxGeometry>
        </mxCell>
        <mxCell id="-2n7A1uFH6f_V6zUvD9d-858" value="Cliente" style="shape=table;startSize=30;container=1;collapsible=1;childLayout=tableLayout;fixedRows=1;rowLines=0;fontStyle=1;align=center;resizeLast=1;html=1;" vertex="1" parent="1">
          <mxGeometry x="2825" y="780" width="180" height="150" as="geometry" />
        </mxCell>
        <mxCell id="-2n7A1uFH6f_V6zUvD9d-859" value="" style="shape=tableRow;horizontal=0;startSize=0;swimlaneHead=0;swimlaneBody=0;fillColor=none;collapsible=0;dropTarget=0;points=[[0,0.5],[1,0.5]];portConstraint=eastwest;top=0;left=0;right=0;bottom=1;" vertex="1" parent="-2n7A1uFH6f_V6zUvD9d-858">
          <mxGeometry y="30" width="180" height="30" as="geometry" />
        </mxCell>
        <mxCell id="-2n7A1uFH6f_V6zUvD9d-860" value="PK" style="shape=partialRectangle;connectable=0;fillColor=none;top=0;left=0;bottom=0;right=0;fontStyle=1;overflow=hidden;whiteSpace=wrap;html=1;" vertex="1" parent="-2n7A1uFH6f_V6zUvD9d-859">
          <mxGeometry width="30" height="30" as="geometry">
            <mxRectangle width="30" height="30" as="alternateBounds" />
          </mxGeometry>
        </mxCell>
        <mxCell id="-2n7A1uFH6f_V6zUvD9d-861" value="numero" style="shape=partialRectangle;connectable=0;fillColor=none;top=0;left=0;bottom=0;right=0;align=left;spacingLeft=6;fontStyle=5;overflow=hidden;whiteSpace=wrap;html=1;" vertex="1" parent="-2n7A1uFH6f_V6zUvD9d-859">
          <mxGeometry x="30" width="150" height="30" as="geometry">
            <mxRectangle width="150" height="30" as="alternateBounds" />
          </mxGeometry>
        </mxCell>
        <mxCell id="-2n7A1uFH6f_V6zUvD9d-862" value="" style="shape=tableRow;horizontal=0;startSize=0;swimlaneHead=0;swimlaneBody=0;fillColor=none;collapsible=0;dropTarget=0;points=[[0,0.5],[1,0.5]];portConstraint=eastwest;top=0;left=0;right=0;bottom=0;" vertex="1" parent="-2n7A1uFH6f_V6zUvD9d-858">
          <mxGeometry y="60" width="180" height="30" as="geometry" />
        </mxCell>
        <mxCell id="-2n7A1uFH6f_V6zUvD9d-863" value="" style="shape=partialRectangle;connectable=0;fillColor=none;top=0;left=0;bottom=0;right=0;editable=1;overflow=hidden;whiteSpace=wrap;html=1;" vertex="1" parent="-2n7A1uFH6f_V6zUvD9d-862">
          <mxGeometry width="30" height="30" as="geometry">
            <mxRectangle width="30" height="30" as="alternateBounds" />
          </mxGeometry>
        </mxCell>
        <mxCell id="-2n7A1uFH6f_V6zUvD9d-864" value="nome" style="shape=partialRectangle;connectable=0;fillColor=none;top=0;left=0;bottom=0;right=0;align=left;spacingLeft=6;overflow=hidden;whiteSpace=wrap;html=1;" vertex="1" parent="-2n7A1uFH6f_V6zUvD9d-862">
          <mxGeometry x="30" width="150" height="30" as="geometry">
            <mxRectangle width="150" height="30" as="alternateBounds" />
          </mxGeometry>
        </mxCell>
        <mxCell id="-2n7A1uFH6f_V6zUvD9d-865" value="" style="shape=tableRow;horizontal=0;startSize=0;swimlaneHead=0;swimlaneBody=0;fillColor=none;collapsible=0;dropTarget=0;points=[[0,0.5],[1,0.5]];portConstraint=eastwest;top=0;left=0;right=0;bottom=0;" vertex="1" parent="-2n7A1uFH6f_V6zUvD9d-858">
          <mxGeometry y="90" width="180" height="30" as="geometry" />
        </mxCell>
        <mxCell id="-2n7A1uFH6f_V6zUvD9d-866" value="" style="shape=partialRectangle;connectable=0;fillColor=none;top=0;left=0;bottom=0;right=0;editable=1;overflow=hidden;whiteSpace=wrap;html=1;" vertex="1" parent="-2n7A1uFH6f_V6zUvD9d-865">
          <mxGeometry width="30" height="30" as="geometry">
            <mxRectangle width="30" height="30" as="alternateBounds" />
          </mxGeometry>
        </mxCell>
        <mxCell id="-2n7A1uFH6f_V6zUvD9d-867" value="nif" style="shape=partialRectangle;connectable=0;fillColor=none;top=0;left=0;bottom=0;right=0;align=left;spacingLeft=6;overflow=hidden;whiteSpace=wrap;html=1;" vertex="1" parent="-2n7A1uFH6f_V6zUvD9d-865">
          <mxGeometry x="30" width="150" height="30" as="geometry">
            <mxRectangle width="150" height="30" as="alternateBounds" />
          </mxGeometry>
        </mxCell>
        <mxCell id="-2n7A1uFH6f_V6zUvD9d-868" style="shape=tableRow;horizontal=0;startSize=0;swimlaneHead=0;swimlaneBody=0;fillColor=none;collapsible=0;dropTarget=0;points=[[0,0.5],[1,0.5]];portConstraint=eastwest;top=0;left=0;right=0;bottom=0;" vertex="1" parent="-2n7A1uFH6f_V6zUvD9d-858">
          <mxGeometry y="120" width="180" height="30" as="geometry" />
        </mxCell>
        <mxCell id="-2n7A1uFH6f_V6zUvD9d-869" style="shape=partialRectangle;connectable=0;fillColor=none;top=0;left=0;bottom=0;right=0;editable=1;overflow=hidden;whiteSpace=wrap;html=1;" vertex="1" parent="-2n7A1uFH6f_V6zUvD9d-868">
          <mxGeometry width="30" height="30" as="geometry">
            <mxRectangle width="30" height="30" as="alternateBounds" />
          </mxGeometry>
        </mxCell>
        <mxCell id="-2n7A1uFH6f_V6zUvD9d-870" value="nacionalidade" style="shape=partialRectangle;connectable=0;fillColor=none;top=0;left=0;bottom=0;right=0;align=left;spacingLeft=6;overflow=hidden;whiteSpace=wrap;html=1;" vertex="1" parent="-2n7A1uFH6f_V6zUvD9d-868">
          <mxGeometry x="30" width="150" height="30" as="geometry">
            <mxRectangle width="150" height="30" as="alternateBounds" />
          </mxGeometry>
        </mxCell>
        <mxCell id="-2n7A1uFH6f_V6zUvD9d-871" value="Quarto_Reserva" style="shape=table;startSize=30;container=1;collapsible=1;childLayout=tableLayout;fixedRows=1;rowLines=0;fontStyle=1;align=center;resizeLast=1;html=1;whiteSpace=wrap;" vertex="1" parent="1">
          <mxGeometry x="2825" y="640" width="180" height="120" as="geometry" />
        </mxCell>
        <mxCell id="-2n7A1uFH6f_V6zUvD9d-872" value="" style="shape=tableRow;horizontal=0;startSize=0;swimlaneHead=0;swimlaneBody=0;fillColor=none;collapsible=0;dropTarget=0;points=[[0,0.5],[1,0.5]];portConstraint=eastwest;top=0;left=0;right=0;bottom=0;html=1;" vertex="1" parent="-2n7A1uFH6f_V6zUvD9d-871">
          <mxGeometry y="30" width="180" height="30" as="geometry" />
        </mxCell>
        <mxCell id="-2n7A1uFH6f_V6zUvD9d-873" value="PK,FK1" style="shape=partialRectangle;connectable=0;fillColor=none;top=0;left=0;bottom=0;right=0;fontStyle=1;overflow=hidden;html=1;whiteSpace=wrap;" vertex="1" parent="-2n7A1uFH6f_V6zUvD9d-872">
          <mxGeometry width="60" height="30" as="geometry">
            <mxRectangle width="60" height="30" as="alternateBounds" />
          </mxGeometry>
        </mxCell>
        <mxCell id="-2n7A1uFH6f_V6zUvD9d-874" value="numQuarto" style="shape=partialRectangle;connectable=0;fillColor=none;top=0;left=0;bottom=0;right=0;align=left;spacingLeft=6;fontStyle=5;overflow=hidden;html=1;whiteSpace=wrap;" vertex="1" parent="-2n7A1uFH6f_V6zUvD9d-872">
          <mxGeometry x="60" width="120" height="30" as="geometry">
            <mxRectangle width="120" height="30" as="alternateBounds" />
          </mxGeometry>
        </mxCell>
        <mxCell id="-2n7A1uFH6f_V6zUvD9d-875" value="" style="shape=tableRow;horizontal=0;startSize=0;swimlaneHead=0;swimlaneBody=0;fillColor=none;collapsible=0;dropTarget=0;points=[[0,0.5],[1,0.5]];portConstraint=eastwest;top=0;left=0;right=0;bottom=1;html=1;" vertex="1" parent="-2n7A1uFH6f_V6zUvD9d-871">
          <mxGeometry y="60" width="180" height="30" as="geometry" />
        </mxCell>
        <mxCell id="-2n7A1uFH6f_V6zUvD9d-876" value="PK,FK2" style="shape=partialRectangle;connectable=0;fillColor=none;top=0;left=0;bottom=0;right=0;fontStyle=1;overflow=hidden;html=1;whiteSpace=wrap;" vertex="1" parent="-2n7A1uFH6f_V6zUvD9d-875">
          <mxGeometry width="60" height="30" as="geometry">
            <mxRectangle width="60" height="30" as="alternateBounds" />
          </mxGeometry>
        </mxCell>
        <mxCell id="-2n7A1uFH6f_V6zUvD9d-877" value="numReserva" style="shape=partialRectangle;connectable=0;fillColor=none;top=0;left=0;bottom=0;right=0;align=left;spacingLeft=6;fontStyle=5;overflow=hidden;html=1;whiteSpace=wrap;" vertex="1" parent="-2n7A1uFH6f_V6zUvD9d-875">
          <mxGeometry x="60" width="120" height="30" as="geometry">
            <mxRectangle width="120" height="30" as="alternateBounds" />
          </mxGeometry>
        </mxCell>
        <mxCell id="-2n7A1uFH6f_V6zUvD9d-878" value="" style="shape=tableRow;horizontal=0;startSize=0;swimlaneHead=0;swimlaneBody=0;fillColor=none;collapsible=0;dropTarget=0;points=[[0,0.5],[1,0.5]];portConstraint=eastwest;top=0;left=0;right=0;bottom=0;html=1;" vertex="1" parent="-2n7A1uFH6f_V6zUvD9d-871">
          <mxGeometry y="90" width="180" height="30" as="geometry" />
        </mxCell>
        <mxCell id="-2n7A1uFH6f_V6zUvD9d-879" value="" style="shape=partialRectangle;connectable=0;fillColor=none;top=0;left=0;bottom=0;right=0;editable=1;overflow=hidden;html=1;whiteSpace=wrap;" vertex="1" parent="-2n7A1uFH6f_V6zUvD9d-878">
          <mxGeometry width="60" height="30" as="geometry">
            <mxRectangle width="60" height="30" as="alternateBounds" />
          </mxGeometry>
        </mxCell>
        <mxCell id="-2n7A1uFH6f_V6zUvD9d-880" value="" style="shape=partialRectangle;connectable=0;fillColor=none;top=0;left=0;bottom=0;right=0;align=left;spacingLeft=6;overflow=hidden;html=1;whiteSpace=wrap;" vertex="1" parent="-2n7A1uFH6f_V6zUvD9d-878">
          <mxGeometry x="60" width="120" height="30" as="geometry">
            <mxRectangle width="120" height="30" as="alternateBounds" />
          </mxGeometry>
        </mxCell>
        <mxCell id="-2n7A1uFH6f_V6zUvD9d-881" style="edgeStyle=orthogonalEdgeStyle;rounded=0;orthogonalLoop=1;jettySize=auto;html=1;endArrow=ERzeroToMany;endFill=0;startArrow=ERmandOne;startFill=0;" edge="1" parent="1" source="-2n7A1uFH6f_V6zUvD9d-839" target="-2n7A1uFH6f_V6zUvD9d-872">
          <mxGeometry relative="1" as="geometry" />
        </mxCell>
        <mxCell id="-2n7A1uFH6f_V6zUvD9d-882" style="edgeStyle=orthogonalEdgeStyle;rounded=0;orthogonalLoop=1;jettySize=auto;html=1;startArrow=ERzeroToMany;startFill=0;endArrow=ERmandOne;endFill=0;" edge="1" parent="1" source="-2n7A1uFH6f_V6zUvD9d-875" target="-2n7A1uFH6f_V6zUvD9d-846">
          <mxGeometry relative="1" as="geometry" />
        </mxCell>
        <mxCell id="-2n7A1uFH6f_V6zUvD9d-883" style="edgeStyle=orthogonalEdgeStyle;rounded=0;orthogonalLoop=1;jettySize=auto;html=1;endArrow=ERmandOne;endFill=0;startArrow=ERoneToMany;startFill=0;" edge="1" parent="1" source="-2n7A1uFH6f_V6zUvD9d-855" target="-2n7A1uFH6f_V6zUvD9d-859">
          <mxGeometry relative="1" as="geometry" />
        </mxCell>
        <mxCell id="-2n7A1uFH6f_V6zUvD9d-884" value="&lt;span data-teams=&quot;true&quot;&gt;&lt;span style=&quot;font-family: -apple-system, BlinkMacSystemFont, &amp;quot;Segoe UI&amp;quot;, system-ui, &amp;quot;Apple Color Emoji&amp;quot;, &amp;quot;Segoe UI Emoji&amp;quot;, &amp;quot;Segoe UI Web&amp;quot;, sans-serif; white-space-collapse: preserve;&quot;&gt;&lt;p style=&quot;&quot;&gt;&lt;span data-teams=&quot;true&quot;&gt;&lt;/span&gt;&lt;/p&gt;&lt;p style=&quot;&quot;&gt;&lt;strong style=&quot;&quot;&gt;Exercício 5.&lt;/strong&gt; Pretende-se criar uma base de dados para uma biblioteca onde sejam registados os livros requisitados pelos sócios. Para cada livro pretende-se registar um código identificativo, o título, o(s) autor(es), a editora e o ano da publicação. Sobre cada autor, pretende-se registar o nome, a nacionalidade e a data de nascimento. Para cada editora pretende-se guardar o nome, a morada o(s) telefone(s) e o número de contribuinte. Sobre cada sócio, pretende-se registar o nome, o número de cartão de cidadão, e um e-mail e o(s) telefone(s). É ainda necessário registar as requisições de livros que vão sendo efetuadas e para cada uma destas pretende-se registar o livro requisitado, o sócio que o requisitou, a data da requisição e a data da devolução.&lt;/p&gt;&lt;/span&gt;&lt;/span&gt;" style="text;strokeColor=none;fillColor=none;spacingLeft=4;spacingRight=4;overflow=hidden;rotatable=0;points=[[0,0.5],[1,0.5]];portConstraint=eastwest;fontSize=14;whiteSpace=wrap;html=1;fontFamily=Helvetica;fontColor=default;labelBackgroundColor=default;" vertex="1" parent="1">
          <mxGeometry x="890" y="1230" width="730" height="170" as="geometry" />
        </mxCell>
        <mxCell id="-2n7A1uFH6f_V6zUvD9d-885" style="edgeStyle=none;shape=connector;rounded=0;orthogonalLoop=1;jettySize=auto;html=1;strokeColor=default;align=center;verticalAlign=middle;fontFamily=Helvetica;fontSize=11;fontColor=default;labelBackgroundColor=default;endArrow=ERmany;endFill=0;" edge="1" parent="1" source="-2n7A1uFH6f_V6zUvD9d-925" target="-2n7A1uFH6f_V6zUvD9d-887">
          <mxGeometry relative="1" as="geometry" />
        </mxCell>
        <mxCell id="-2n7A1uFH6f_V6zUvD9d-886" style="shape=connector;rounded=0;orthogonalLoop=1;jettySize=auto;html=1;strokeColor=default;align=center;verticalAlign=middle;fontFamily=Helvetica;fontSize=11;fontColor=default;labelBackgroundColor=default;endArrow=ERmany;endFill=0;" edge="1" parent="1" source="-2n7A1uFH6f_V6zUvD9d-927" target="-2n7A1uFH6f_V6zUvD9d-887">
          <mxGeometry relative="1" as="geometry" />
        </mxCell>
        <mxCell id="-2n7A1uFH6f_V6zUvD9d-887" value="Livro" style="whiteSpace=wrap;html=1;align=center;fontFamily=Helvetica;fontSize=11;fontColor=default;labelBackgroundColor=default;" vertex="1" parent="1">
          <mxGeometry x="1224" y="1710" width="120" height="40" as="geometry" />
        </mxCell>
        <mxCell id="-2n7A1uFH6f_V6zUvD9d-888" value="Autor" style="whiteSpace=wrap;html=1;align=center;fontFamily=Helvetica;fontSize=11;fontColor=default;labelBackgroundColor=default;" vertex="1" parent="1">
          <mxGeometry x="1040" y="1530" width="120" height="40" as="geometry" />
        </mxCell>
        <mxCell id="-2n7A1uFH6f_V6zUvD9d-889" value="Editora" style="whiteSpace=wrap;html=1;align=center;fontFamily=Helvetica;fontSize=11;fontColor=default;labelBackgroundColor=default;" vertex="1" parent="1">
          <mxGeometry x="1380" y="1520" width="120" height="40" as="geometry" />
        </mxCell>
        <mxCell id="-2n7A1uFH6f_V6zUvD9d-890" value="Sócio" style="whiteSpace=wrap;html=1;align=center;fontFamily=Helvetica;fontSize=11;fontColor=default;labelBackgroundColor=default;" vertex="1" parent="1">
          <mxGeometry x="1226" y="1950" width="120" height="40" as="geometry" />
        </mxCell>
        <mxCell id="-2n7A1uFH6f_V6zUvD9d-891" style="shape=connector;rounded=0;orthogonalLoop=1;jettySize=auto;html=1;strokeColor=default;align=center;verticalAlign=middle;fontFamily=Helvetica;fontSize=11;fontColor=default;labelBackgroundColor=default;endArrow=none;endFill=0;" edge="1" parent="1" source="-2n7A1uFH6f_V6zUvD9d-892" target="-2n7A1uFH6f_V6zUvD9d-887">
          <mxGeometry relative="1" as="geometry" />
        </mxCell>
        <mxCell id="-2n7A1uFH6f_V6zUvD9d-892" value="Código&lt;div&gt;ID&lt;/div&gt;" style="ellipse;whiteSpace=wrap;html=1;align=center;strokeColor=default;verticalAlign=middle;fontFamily=Helvetica;fontSize=11;fontColor=default;labelBackgroundColor=default;fillColor=default;" vertex="1" parent="1">
          <mxGeometry x="1380" y="1710" width="80" height="40" as="geometry" />
        </mxCell>
        <mxCell id="-2n7A1uFH6f_V6zUvD9d-893" style="shape=connector;rounded=0;orthogonalLoop=1;jettySize=auto;html=1;strokeColor=default;align=center;verticalAlign=middle;fontFamily=Helvetica;fontSize=11;fontColor=default;labelBackgroundColor=default;endArrow=none;endFill=0;" edge="1" parent="1" source="-2n7A1uFH6f_V6zUvD9d-894" target="-2n7A1uFH6f_V6zUvD9d-887">
          <mxGeometry relative="1" as="geometry" />
        </mxCell>
        <mxCell id="-2n7A1uFH6f_V6zUvD9d-894" value="Título" style="ellipse;whiteSpace=wrap;html=1;align=center;strokeColor=default;verticalAlign=middle;fontFamily=Helvetica;fontSize=11;fontColor=default;labelBackgroundColor=default;fillColor=default;" vertex="1" parent="1">
          <mxGeometry x="1246" y="1640" width="80" height="40" as="geometry" />
        </mxCell>
        <mxCell id="-2n7A1uFH6f_V6zUvD9d-895" style="edgeStyle=none;shape=connector;rounded=0;orthogonalLoop=1;jettySize=auto;html=1;strokeColor=default;align=center;verticalAlign=middle;fontFamily=Helvetica;fontSize=11;fontColor=default;labelBackgroundColor=default;endArrow=none;endFill=0;" edge="1" parent="1" source="-2n7A1uFH6f_V6zUvD9d-896" target="-2n7A1uFH6f_V6zUvD9d-887">
          <mxGeometry relative="1" as="geometry" />
        </mxCell>
        <mxCell id="-2n7A1uFH6f_V6zUvD9d-896" value="Ano&lt;div&gt;Publicação&lt;/div&gt;" style="ellipse;whiteSpace=wrap;html=1;align=center;strokeColor=default;verticalAlign=middle;fontFamily=Helvetica;fontSize=11;fontColor=default;labelBackgroundColor=default;fillColor=default;" vertex="1" parent="1">
          <mxGeometry x="1110" y="1710" width="80" height="40" as="geometry" />
        </mxCell>
        <mxCell id="-2n7A1uFH6f_V6zUvD9d-897" style="edgeStyle=none;shape=connector;rounded=0;orthogonalLoop=1;jettySize=auto;html=1;strokeColor=default;align=center;verticalAlign=middle;fontFamily=Helvetica;fontSize=11;fontColor=default;labelBackgroundColor=default;endArrow=none;endFill=0;" edge="1" parent="1" source="-2n7A1uFH6f_V6zUvD9d-898" target="-2n7A1uFH6f_V6zUvD9d-888">
          <mxGeometry relative="1" as="geometry" />
        </mxCell>
        <mxCell id="-2n7A1uFH6f_V6zUvD9d-898" value="Nome" style="ellipse;whiteSpace=wrap;html=1;align=center;strokeColor=default;verticalAlign=middle;fontFamily=Helvetica;fontSize=11;fontColor=default;labelBackgroundColor=default;fillColor=default;" vertex="1" parent="1">
          <mxGeometry x="960" y="1480" width="80" height="40" as="geometry" />
        </mxCell>
        <mxCell id="-2n7A1uFH6f_V6zUvD9d-899" style="edgeStyle=none;shape=connector;rounded=0;orthogonalLoop=1;jettySize=auto;html=1;strokeColor=default;align=center;verticalAlign=middle;fontFamily=Helvetica;fontSize=11;fontColor=default;labelBackgroundColor=default;endArrow=none;endFill=0;" edge="1" parent="1" source="-2n7A1uFH6f_V6zUvD9d-900" target="-2n7A1uFH6f_V6zUvD9d-888">
          <mxGeometry relative="1" as="geometry" />
        </mxCell>
        <mxCell id="-2n7A1uFH6f_V6zUvD9d-900" value="Nacionalidade" style="ellipse;whiteSpace=wrap;html=1;align=center;strokeColor=default;verticalAlign=middle;fontFamily=Helvetica;fontSize=11;fontColor=default;labelBackgroundColor=default;fillColor=default;" vertex="1" parent="1">
          <mxGeometry x="1060" y="1440" width="80" height="40" as="geometry" />
        </mxCell>
        <mxCell id="-2n7A1uFH6f_V6zUvD9d-901" style="edgeStyle=none;shape=connector;rounded=0;orthogonalLoop=1;jettySize=auto;html=1;strokeColor=default;align=center;verticalAlign=middle;fontFamily=Helvetica;fontSize=11;fontColor=default;labelBackgroundColor=default;endArrow=none;endFill=0;" edge="1" parent="1" source="-2n7A1uFH6f_V6zUvD9d-902" target="-2n7A1uFH6f_V6zUvD9d-888">
          <mxGeometry relative="1" as="geometry" />
        </mxCell>
        <mxCell id="-2n7A1uFH6f_V6zUvD9d-902" value="Data&lt;div&gt;Nascimento&lt;/div&gt;" style="ellipse;whiteSpace=wrap;html=1;align=center;strokeColor=default;verticalAlign=middle;fontFamily=Helvetica;fontSize=11;fontColor=default;labelBackgroundColor=default;fillColor=default;" vertex="1" parent="1">
          <mxGeometry x="1160" y="1480" width="80" height="40" as="geometry" />
        </mxCell>
        <mxCell id="-2n7A1uFH6f_V6zUvD9d-903" style="edgeStyle=none;shape=connector;rounded=0;orthogonalLoop=1;jettySize=auto;html=1;strokeColor=default;align=center;verticalAlign=middle;fontFamily=Helvetica;fontSize=11;fontColor=default;labelBackgroundColor=default;endArrow=none;endFill=0;" edge="1" parent="1" source="-2n7A1uFH6f_V6zUvD9d-904" target="-2n7A1uFH6f_V6zUvD9d-889">
          <mxGeometry relative="1" as="geometry" />
        </mxCell>
        <mxCell id="-2n7A1uFH6f_V6zUvD9d-904" value="Nome" style="ellipse;whiteSpace=wrap;html=1;align=center;strokeColor=default;verticalAlign=middle;fontFamily=Helvetica;fontSize=11;fontColor=default;labelBackgroundColor=default;fillColor=default;" vertex="1" parent="1">
          <mxGeometry x="1500" y="1450" width="80" height="40" as="geometry" />
        </mxCell>
        <mxCell id="-2n7A1uFH6f_V6zUvD9d-905" style="edgeStyle=none;shape=connector;rounded=0;orthogonalLoop=1;jettySize=auto;html=1;strokeColor=default;align=center;verticalAlign=middle;fontFamily=Helvetica;fontSize=11;fontColor=default;labelBackgroundColor=default;endArrow=none;endFill=0;" edge="1" parent="1" source="-2n7A1uFH6f_V6zUvD9d-906" target="-2n7A1uFH6f_V6zUvD9d-889">
          <mxGeometry relative="1" as="geometry" />
        </mxCell>
        <mxCell id="-2n7A1uFH6f_V6zUvD9d-906" value="Morada" style="ellipse;whiteSpace=wrap;html=1;align=center;strokeColor=default;verticalAlign=middle;fontFamily=Helvetica;fontSize=11;fontColor=default;labelBackgroundColor=default;fillColor=default;" vertex="1" parent="1">
          <mxGeometry x="1530" y="1500" width="80" height="40" as="geometry" />
        </mxCell>
        <mxCell id="-2n7A1uFH6f_V6zUvD9d-907" style="edgeStyle=none;shape=connector;rounded=0;orthogonalLoop=1;jettySize=auto;html=1;strokeColor=default;align=center;verticalAlign=middle;fontFamily=Helvetica;fontSize=11;fontColor=default;labelBackgroundColor=default;endArrow=none;endFill=0;" edge="1" parent="1" source="-2n7A1uFH6f_V6zUvD9d-908" target="-2n7A1uFH6f_V6zUvD9d-889">
          <mxGeometry relative="1" as="geometry" />
        </mxCell>
        <mxCell id="-2n7A1uFH6f_V6zUvD9d-908" value="Telefone(s)" style="ellipse;whiteSpace=wrap;html=1;align=center;strokeColor=default;verticalAlign=middle;fontFamily=Helvetica;fontSize=11;fontColor=default;labelBackgroundColor=default;fillColor=default;" vertex="1" parent="1">
          <mxGeometry x="1410" y="1440" width="80" height="40" as="geometry" />
        </mxCell>
        <mxCell id="-2n7A1uFH6f_V6zUvD9d-909" style="edgeStyle=none;shape=connector;rounded=0;orthogonalLoop=1;jettySize=auto;html=1;strokeColor=default;align=center;verticalAlign=middle;fontFamily=Helvetica;fontSize=11;fontColor=default;labelBackgroundColor=default;endArrow=none;endFill=0;" edge="1" parent="1" source="-2n7A1uFH6f_V6zUvD9d-910" target="-2n7A1uFH6f_V6zUvD9d-889">
          <mxGeometry relative="1" as="geometry" />
        </mxCell>
        <mxCell id="-2n7A1uFH6f_V6zUvD9d-910" value="NIF" style="ellipse;whiteSpace=wrap;html=1;align=center;strokeColor=default;verticalAlign=middle;fontFamily=Helvetica;fontSize=11;fontColor=default;labelBackgroundColor=default;fillColor=default;" vertex="1" parent="1">
          <mxGeometry x="1320" y="1460" width="80" height="40" as="geometry" />
        </mxCell>
        <mxCell id="-2n7A1uFH6f_V6zUvD9d-911" style="edgeStyle=none;shape=connector;rounded=0;orthogonalLoop=1;jettySize=auto;html=1;strokeColor=default;align=center;verticalAlign=middle;fontFamily=Helvetica;fontSize=11;fontColor=default;labelBackgroundColor=default;endArrow=none;endFill=0;" edge="1" parent="1" source="-2n7A1uFH6f_V6zUvD9d-912" target="-2n7A1uFH6f_V6zUvD9d-890">
          <mxGeometry relative="1" as="geometry" />
        </mxCell>
        <mxCell id="-2n7A1uFH6f_V6zUvD9d-912" value="Nome" style="ellipse;whiteSpace=wrap;html=1;align=center;strokeColor=default;verticalAlign=middle;fontFamily=Helvetica;fontSize=11;fontColor=default;labelBackgroundColor=default;fillColor=default;" vertex="1" parent="1">
          <mxGeometry x="1126" y="1910" width="80" height="40" as="geometry" />
        </mxCell>
        <mxCell id="-2n7A1uFH6f_V6zUvD9d-913" style="edgeStyle=none;shape=connector;rounded=0;orthogonalLoop=1;jettySize=auto;html=1;strokeColor=default;align=center;verticalAlign=middle;fontFamily=Helvetica;fontSize=11;fontColor=default;labelBackgroundColor=default;endArrow=none;endFill=0;" edge="1" parent="1" source="-2n7A1uFH6f_V6zUvD9d-914" target="-2n7A1uFH6f_V6zUvD9d-890">
          <mxGeometry relative="1" as="geometry" />
        </mxCell>
        <mxCell id="-2n7A1uFH6f_V6zUvD9d-914" value="Num&lt;div&gt;Cartão de cidadão&amp;nbsp;&lt;/div&gt;" style="ellipse;whiteSpace=wrap;html=1;align=center;strokeColor=default;verticalAlign=middle;fontFamily=Helvetica;fontSize=11;fontColor=default;labelBackgroundColor=default;fillColor=default;" vertex="1" parent="1">
          <mxGeometry x="1100" y="1990" width="126" height="40" as="geometry" />
        </mxCell>
        <mxCell id="-2n7A1uFH6f_V6zUvD9d-915" style="edgeStyle=none;shape=connector;rounded=0;orthogonalLoop=1;jettySize=auto;html=1;strokeColor=default;align=center;verticalAlign=middle;fontFamily=Helvetica;fontSize=11;fontColor=default;labelBackgroundColor=default;endArrow=none;endFill=0;" edge="1" parent="1" source="-2n7A1uFH6f_V6zUvD9d-916" target="-2n7A1uFH6f_V6zUvD9d-890">
          <mxGeometry relative="1" as="geometry" />
        </mxCell>
        <mxCell id="-2n7A1uFH6f_V6zUvD9d-916" value="Telefone" style="ellipse;whiteSpace=wrap;html=1;align=center;strokeColor=default;verticalAlign=middle;fontFamily=Helvetica;fontSize=11;fontColor=default;labelBackgroundColor=default;fillColor=default;" vertex="1" parent="1">
          <mxGeometry x="1372" y="1990" width="80" height="40" as="geometry" />
        </mxCell>
        <mxCell id="-2n7A1uFH6f_V6zUvD9d-917" style="edgeStyle=none;shape=connector;rounded=0;orthogonalLoop=1;jettySize=auto;html=1;strokeColor=default;align=center;verticalAlign=middle;fontFamily=Helvetica;fontSize=11;fontColor=default;labelBackgroundColor=default;endArrow=none;endFill=0;" edge="1" parent="1" source="-2n7A1uFH6f_V6zUvD9d-918" target="-2n7A1uFH6f_V6zUvD9d-890">
          <mxGeometry relative="1" as="geometry" />
        </mxCell>
        <mxCell id="-2n7A1uFH6f_V6zUvD9d-918" value="Email" style="ellipse;whiteSpace=wrap;html=1;align=center;strokeColor=default;verticalAlign=middle;fontFamily=Helvetica;fontSize=11;fontColor=default;labelBackgroundColor=default;fillColor=default;" vertex="1" parent="1">
          <mxGeometry x="1372" y="1910" width="80" height="40" as="geometry" />
        </mxCell>
        <mxCell id="-2n7A1uFH6f_V6zUvD9d-919" style="edgeStyle=none;shape=connector;rounded=0;orthogonalLoop=1;jettySize=auto;html=1;strokeColor=default;align=center;verticalAlign=middle;fontFamily=Helvetica;fontSize=11;fontColor=default;labelBackgroundColor=default;endArrow=none;endFill=0;" edge="1" parent="1" source="-2n7A1uFH6f_V6zUvD9d-920" target="-2n7A1uFH6f_V6zUvD9d-923">
          <mxGeometry relative="1" as="geometry">
            <mxPoint x="1340" y="1835" as="targetPoint" />
          </mxGeometry>
        </mxCell>
        <mxCell id="-2n7A1uFH6f_V6zUvD9d-920" value="Data&lt;div&gt;Requisiçao&lt;/div&gt;" style="ellipse;whiteSpace=wrap;html=1;align=center;strokeColor=default;verticalAlign=middle;fontFamily=Helvetica;fontSize=11;fontColor=default;labelBackgroundColor=default;fillColor=default;" vertex="1" parent="1">
          <mxGeometry x="1110" y="1830" width="80" height="40" as="geometry" />
        </mxCell>
        <mxCell id="-2n7A1uFH6f_V6zUvD9d-921" style="edgeStyle=none;shape=connector;rounded=0;orthogonalLoop=1;jettySize=auto;html=1;strokeColor=default;align=center;verticalAlign=middle;fontFamily=Helvetica;fontSize=11;fontColor=default;labelBackgroundColor=default;endArrow=none;endFill=0;startArrow=ERmany;startFill=0;" edge="1" parent="1" source="-2n7A1uFH6f_V6zUvD9d-887" target="-2n7A1uFH6f_V6zUvD9d-923">
          <mxGeometry relative="1" as="geometry">
            <mxPoint x="1190" y="1730" as="targetPoint" />
          </mxGeometry>
        </mxCell>
        <mxCell id="-2n7A1uFH6f_V6zUvD9d-922" style="edgeStyle=none;shape=connector;rounded=0;orthogonalLoop=1;jettySize=auto;html=1;strokeColor=default;align=center;verticalAlign=middle;fontFamily=Helvetica;fontSize=11;fontColor=default;labelBackgroundColor=default;endArrow=ERmany;endFill=0;" edge="1" parent="1" source="-2n7A1uFH6f_V6zUvD9d-923" target="-2n7A1uFH6f_V6zUvD9d-890">
          <mxGeometry relative="1" as="geometry" />
        </mxCell>
        <mxCell id="-2n7A1uFH6f_V6zUvD9d-923" value="Requisição" style="shape=rhombus;perimeter=rhombusPerimeter;whiteSpace=wrap;html=1;align=center;strokeColor=default;verticalAlign=middle;fontFamily=Helvetica;fontSize=11;fontColor=default;labelBackgroundColor=default;fillColor=default;" vertex="1" parent="1">
          <mxGeometry x="1226" y="1820" width="120" height="60" as="geometry" />
        </mxCell>
        <mxCell id="-2n7A1uFH6f_V6zUvD9d-924" style="edgeStyle=none;shape=connector;rounded=0;orthogonalLoop=1;jettySize=auto;html=1;strokeColor=default;align=center;verticalAlign=middle;fontFamily=Helvetica;fontSize=11;fontColor=default;labelBackgroundColor=default;endArrow=none;endFill=0;startArrow=ERmany;startFill=0;" edge="1" parent="1" source="-2n7A1uFH6f_V6zUvD9d-888" target="-2n7A1uFH6f_V6zUvD9d-925">
          <mxGeometry relative="1" as="geometry" />
        </mxCell>
        <mxCell id="-2n7A1uFH6f_V6zUvD9d-925" value="Escrito" style="shape=rhombus;perimeter=rhombusPerimeter;whiteSpace=wrap;html=1;align=center;strokeColor=default;verticalAlign=middle;fontFamily=Helvetica;fontSize=11;fontColor=default;labelBackgroundColor=default;fillColor=default;" vertex="1" parent="1">
          <mxGeometry x="1040" y="1600" width="120" height="60" as="geometry" />
        </mxCell>
        <mxCell id="-2n7A1uFH6f_V6zUvD9d-926" style="edgeStyle=none;shape=connector;rounded=0;orthogonalLoop=1;jettySize=auto;html=1;strokeColor=default;align=center;verticalAlign=middle;fontFamily=Helvetica;fontSize=11;fontColor=default;labelBackgroundColor=default;endArrow=none;endFill=0;startArrow=ERone;startFill=0;" edge="1" parent="1" source="-2n7A1uFH6f_V6zUvD9d-889" target="-2n7A1uFH6f_V6zUvD9d-927">
          <mxGeometry relative="1" as="geometry">
            <mxPoint x="1419.4545454545455" y="1582.727272727273" as="targetPoint" />
          </mxGeometry>
        </mxCell>
        <mxCell id="-2n7A1uFH6f_V6zUvD9d-927" value="Publicado" style="shape=rhombus;perimeter=rhombusPerimeter;whiteSpace=wrap;html=1;align=center;strokeColor=default;verticalAlign=middle;fontFamily=Helvetica;fontSize=11;fontColor=default;labelBackgroundColor=default;fillColor=default;" vertex="1" parent="1">
          <mxGeometry x="1380" y="1600" width="120" height="60" as="geometry" />
        </mxCell>
        <mxCell id="-2n7A1uFH6f_V6zUvD9d-928" style="edgeStyle=none;shape=connector;rounded=0;orthogonalLoop=1;jettySize=auto;html=1;strokeColor=default;align=center;verticalAlign=middle;fontFamily=Helvetica;fontSize=11;fontColor=default;labelBackgroundColor=default;endArrow=none;endFill=0;" edge="1" parent="1" source="-2n7A1uFH6f_V6zUvD9d-929" target="-2n7A1uFH6f_V6zUvD9d-923">
          <mxGeometry relative="1" as="geometry">
            <mxPoint x="1340" y="1875" as="targetPoint" />
          </mxGeometry>
        </mxCell>
        <mxCell id="-2n7A1uFH6f_V6zUvD9d-929" value="Data&lt;div&gt;Devolução&lt;/div&gt;" style="ellipse;whiteSpace=wrap;html=1;align=center;strokeColor=default;verticalAlign=middle;fontFamily=Helvetica;fontSize=11;fontColor=default;labelBackgroundColor=default;fillColor=default;" vertex="1" parent="1">
          <mxGeometry x="1380" y="1830" width="80" height="40" as="geometry" />
        </mxCell>
      </root>
    </mxGraphModel>
  </diagram>
</mxfile>
